<svg xmlns="http://www.w3.org/2000/svg" width="500" height="500" viewBox="0 0 500 500">
      <path class="primary" d="M9.9 349.9c47.2-18 93-37.2 142.7-52.7 -18.4 10.2-32.4 24.9-44.6 41.4 37.7-16.7 87.2-42.9 148.4-44.6 23.7-0.7 62.9-0.6 55.9 26.8 18.9-9.8 37.3-37.7 25.9-68.1 -10.4-28-47.1-43.8-68.1-64.9 -8.6-8.6-16.9-18.5-26.8-23.5 -14.1-7.2-33-11.5-50.3-17 -48.8-15.6-107.6-32.3-154.1-47 -0.8-2.3 3.1-6.6 5.7-9.7C84.3 42.4 143.6 5.7 226.4 0.4c55.3-3.5 106.2 14.3 141.1 34.9 37.7 22.2 66.7 51.1 87.6 86 21.5 35.8 36.5 85.1 34.9 138.7 -1.7 53-18.9 95.8-43 130.5 -46.6 67.2-130.1 119.1-237.6 107 -50.7-5.7-90.6-25.3-123.2-50.3C53.3 422.1 27.5 392.3 9.9 349.9zM194.8 439.9c43.6 10.1 89.3 3.6 124.9-12.2 62.9-27.9 117.3-90.1 116.8-179.2 -0.3-54.7-23-100.4-54.3-133.8C351.8 82.5 308.1 57 254 54c-47-2.6-80.3 7.5-108.7 24.3 42.4 15.4 90 22 126.5 43 17 9.8 30.4 27.2 46.2 38.9 36.5 27 79.6 54.4 74.6 119.2 -2.7 35.5-25.1 63.1-48.7 81.1 -25.5 19.4-56.8 31-95.7 34.9 5.9-10.6 14.6-18.4 13.8-35.7 -20.5-16.6-62.8-9.5-87.6-2.4 -27.2 7.8-52.5 20-74.6 30C124.5 413.3 155 430.7 194.8 439.9z"/>
      <path class="primary" d="M234.5 186.1c3 48.3-84.5 39.7-69.7-10.5 -1.7-3.9-10.2-3.8-14.6-2.4C174.2 150.1 204.3 186.5 234.5 186.1z"/>
</svg>

