<svg xmlns="http://www.w3.org/2000/svg" width="500" height="500" viewBox="0 0 500 500">
      <path class="primary" d="M234.1 1.1c80.9-5.6 142.2 28.1 183.3 65.2 40.2 36.4 77.4 94.7 80.6 167.9 3.6 81.2-25 139.5-63.8 183.3 -39 44-93.3 75.2-167.9 80.6 -76.5 5.6-141.4-25.4-183.3-63.8C39.3 394.2 8.3 340.8 2.5 266.5 -3.9 185.1 27.4 124.8 65.5 82.5c28.4-31.6 65.8-58 114.4-72.6C196.4 4.9 216.1 2.4 234.1 1.1zM457 188c4.4-47.4-22.8-77-45.4-99.7 -38.7-38.7-106.1-75.2-181.8-66.7 -1-0.1-2.8 0.2-1.5 0.7 1 0 2 0 2.9 0 59.5 6.6 102.8 34.8 134.9 69.6 32.3 35 59.9 77.9 74.8 129.7C449.7 214.9 455.7 202.1 457 188zM354.4 97.9c-30.6-33.4-80-66-138.5-68.9 -9-0.4-23.5-1.3-30.1 0.7 -49.3 15.1-90.4 44.7-118 81.4 -1.4 1.9-4.1 4.6-3.7 7.3 41-8.8 76.5 10.8 104.1 24.9 -0.5 4.7 1 11.2-0.7 14.7 -31.5-14.7-64.7-31.5-112.9-27.1 -20.1 34.7-34.7 74.8-32.3 131.9 30.8 42 88.6 57.1 145.9 72.6 -0.5 6.1 1 14.2-0.7 19.1 -62.4-13.1-115.9-35.1-144.4-82.1 6.4 53.4 25.8 93.6 54.2 126.8 27.9 32.6 64.8 59.8 122.4 59.4 35.2-0.3 61.6-13.2 87.2-23.5 7.1-2.8 13.9-4.2 19.8-7.3 5.8-3.1 10.1-7.9 16.1-11.7 11.3-7.2 24.2-12.7 35.9-19.1 24.3-13.2 48.2-26.5 71.1-39.6 2.9-13.2 5.1-27.2 6.6-41.8 -27.4 12-59.3 23.3-90.9 28.6 0.4-4.7-0.9-11.1 0.7-14.7 32.7-7.4 62.5-17.7 90.2-30.1 0.1-18-1.4-34.3-4.4-49.1 -25 15.3-69.4 5.4-95.3-2.2 -3.3-7.9-15.7-13.6-7.3-22.7 24.8 10.2 71.8 22.3 99 5.9C416.2 179.3 388.8 135.5 354.4 97.9zM446 240.1c2.7 15.6 5.7 30.9 5.1 49.8 10.9-7.2 24.6-22 27.1-40.3 2.8-20.3-4.9-40.9-8.1-58.6C468.5 213.8 454.9 227.8 446 240.1zM476 280.4c0.4-3.2 1.8-10.1 0.7-8.1 -5.7 14.6-13.3 27.3-26.4 34.5 -0.7 16.7-4 30.7-8.1 44 4.6-0.9 9.1-2.2 13.2 0C464.6 330.9 472.7 306.3 476 280.4zM437.9 363.2c-4.2 16.5-14.9 30.5-20.5 43.2 11.4-14.8 26-30.2 32.3-47.6C445.2 357 441.8 362.1 437.9 363.2zM369 408.7c-51.9 32.4-112.6 68.2-195 57.2 68.6 25.8 157.8 8.9 204.5-26.4 20.6-15.6 34.3-39.8 45.4-63.8 0-0.5 0-1 0-1.5 0-0.4-0.1-0.9-0.7-0.7C408.1 386.8 387.8 397 369 408.7z"/>
      <path class="primary" d="M296.4 237.1c31 10.3 30.1 47 30.1 90.9 0 24.2-0.2 47.4-6.6 60.1 -18.5 36.8-76.5 31.8-129 28.6 -5-9.9-2.9-25.7-2.9-39.6 0-82.3 0-166.4 0-252.2 0-11.6-2.3-35.9 4.4-38.1 7.6-2.5 26.1-0.7 38.9-0.7 37.4 0 64.3 0 77 24.2 6.9 13.1 6.6 34.8 6.6 54.2C314.8 196.3 316.7 224.9 296.4 237.1zM225.3 122.8c0 33.2 0 66.5 0 99.7 23.3 0.6 42.7 0 49.8-16.1 5.7-12.8 6.2-68-0.7-78.4 -8.5-12.9-30.8-4.8-48.4-7.3C225.2 120.7 225.3 121.8 225.3 122.8zM225.3 259.1c1.7 40.1-0.4 83.9 1.5 123.9 20.4-0.6 37.4 4.6 51.3-3.7 14.2-8.5 11-36.9 11-60.1 0-19.9 1-40.4-6.6-49.8 -10.6-13.1-33.2-11.7-55-12.5C226.5 257.3 225.8 258.1 225.3 259.1z"/>
</svg>