<?xml version="1.0" encoding="utf-8"?>
<!-- Generator: Adobe Illustrator 15.0.2, SVG Export Plug-In . SVG Version: 6.00 Build 0)  -->
<!DOCTYPE svg PUBLIC "-//W3C//DTD SVG 1.1//EN" "http://www.w3.org/Graphics/SVG/1.1/DTD/svg11.dtd">
<svg version="1.1" id="Layer_1" xmlns="http://www.w3.org/2000/svg" xmlns:xlink="http://www.w3.org/1999/xlink" x="0px" y="0px"
	 width="500px" height="500px" viewBox="0 0 500 500" enable-background="new 0 0 500 500" xml:space="preserve">
<path fill-rule="evenodd" clip-rule="evenodd" fill="#020202" d="M455.814,219.064c-16.089-56.192-45.999-102.659-81.042-140.63
	c-34.807-37.715-81.737-68.277-146.186-75.479c-1.059,0-2.119,0-3.178,0c-1.45-0.617,0.476-0.854,1.589-0.794
	c82.056-9.26,155.055,30.321,197.035,72.301c24.568,24.57,54.051,56.627,49.261,108.054
	C471.872,197.763,465.391,211.638,455.814,219.064z"/>
<path fill-rule="evenodd" clip-rule="evenodd" fill="#020202" d="M442.309,229.392c-29.417,17.83-80.428,4.718-107.261-6.355
	c-9.115,9.875,4.389,16.106,7.945,24.63c28.055,8.283,76.176,18.933,103.288,2.383c3.245,16.083,4.901,33.761,4.766,53.229
	c-29.999,13.433-62.321,24.545-97.727,32.575c-1.715,3.845-0.365,10.757-0.793,15.891c34.238-5.758,68.839-18.024,98.52-30.987
	c-1.636,15.845-3.966,30.993-7.15,45.288c-24.818,14.183-50.734,28.623-77.067,42.903c-12.751,6.913-26.648,12.847-38.932,20.658
	c-6.525,4.148-11.2,9.354-17.479,12.712c-6.425,3.433-13.785,4.877-21.452,7.945c-27.795,11.12-56.35,25.135-94.543,25.425
	c-62.401,0.473-102.406-29.035-132.685-64.356C30.861,375.313,9.89,331.752,2.944,273.882
	c30.847,50.986,88.931,74.739,156.52,88.985c1.846-5.304,0.27-14.03,0.794-20.657c-62.11-16.812-124.7-33.145-158.109-78.657
	c-2.629-61.95,13.199-105.445,34.958-143.009c52.174-4.7,88.211,13.437,122.356,29.397c1.842-3.719,0.273-10.85,0.794-15.89
	c-29.933-15.298-68.345-36.562-112.821-27.014c-0.508-2.954,2.422-5.889,3.973-7.945c29.973-39.761,74.429-71.85,127.917-88.191
	c7.059-2.157,22.782-1.283,32.575-0.794c63.451,3.162,116.971,38.433,150.159,74.685
	C399.439,125.618,429.042,173.046,442.309,229.392z M319.156,157.091c0-21.098,0.276-44.627-7.149-58.794
	c-13.723-26.177-42.893-26.219-83.42-26.219c-13.77,0-33.926-1.862-42.109,0.794c-7.312,2.374-4.767,28.708-4.767,41.315
	c0,92.951,0,184.091,0,273.311c0,15.03-2.198,32.205,3.178,42.903c56.872,3.506,119.772,8.849,139.83-30.986
	c6.911-13.728,7.152-38.975,7.152-65.149c0-47.567,1.039-87.404-32.576-98.517C321.236,222.48,319.156,191.499,319.156,157.091z"/>
<path fill-rule="evenodd" clip-rule="evenodd" fill="#020202" d="M223.025,109.42c19.059,2.694,43.176-6.034,52.434,7.945
	c7.489,11.309,6.93,71.15,0.794,85.014c-7.727,17.455-28.769,18.078-54.022,17.479c0-36.019,0-72.037,0-108.055
	C222.163,110.676,222.099,109.554,223.025,109.42z"/>
<path fill-rule="evenodd" clip-rule="evenodd" fill="#020202" d="M487.594,185.694c3.431,19.244,11.75,41.555,8.741,63.561
	c-2.719,19.864-17.639,35.858-29.397,43.695c0.642-20.505-2.615-37.11-5.562-54.023
	C471.069,225.665,485.832,210.475,487.594,185.694z"/>
<path fill-rule="evenodd" clip-rule="evenodd" fill="#020202" d="M224.614,257.196c23.614,0.815,48.065-0.694,59.584,13.507
	c8.28,10.209,7.15,32.436,7.15,54.027c0,25.207,3.472,55.97-11.917,65.15c-15.062,8.985-33.503,3.35-55.612,3.973
	c-1.99-43.297,0.23-90.806-1.589-134.273C222.675,258.436,223.47,257.642,224.614,257.196z"/>
<path fill-rule="evenodd" clip-rule="evenodd" fill="#020202" d="M436.744,383.525c0.677-0.147,0.751,0.309,0.796,0.794
	c0,0.529,0,1.06,0,1.589c-12.037,25.963-26.955,52.264-49.261,69.124c-50.645,38.28-147.264,56.575-221.665,28.602
	c89.335,11.979,155.062-26.89,211.338-61.973C398.325,408.96,420.262,397.995,436.744,383.525z"/>
<path fill-rule="evenodd" clip-rule="evenodd" fill="#020202" d="M471.703,358.895c-4.427-2.394-9.29-1.02-14.3,0
	c4.429-14.374,8.027-29.578,8.739-47.671c14.206-7.777,22.441-21.521,28.604-37.342c1.1-2.171-0.349,5.236-0.795,8.739
	C490.371,310.666,481.53,337.336,471.703,358.895z"/>
<path fill-rule="evenodd" clip-rule="evenodd" fill="#020202" d="M465.349,367.635c-6.769,18.933-22.638,35.62-34.959,51.644
	c6.058-13.806,17.65-28.96,22.246-46.877C456.837,371.15,460.478,365.627,465.349,367.635z"/>
</svg>
