<svg xmlns="http://www.w3.org/2000/svg" width="500" height="500" viewBox="0 0 500 500">
  <path class="primary" d="M305.8 209.6c46.9-24.9 139.8-45.3 177.6 3.7 23.1 30 21.6 85.8-15 102.8 16.5 47.8-19.5 87.2-54.2 91.6 -73.7 9.4-108.9-69.4-145.8-91.6 0.5 68.1 17.9 119.2 57.9 147.7 -3.6 11.3-7.3 22.6-9.3 35.5 -56.2-32.9-85.4-92.8-84.1-183.2 -25.5 22.6-64.1 88.7-125.2 89.7 -42.6 0.7-92.8-33-69.2-87.9 -14.9-12.2-31.7-23.6-35.5-44.9 -18.1-101.2 120.9-104.6 192.5-71C163 168.6 98.8 66.7 163.7 17c18.8-14.4 63.9-12 80.4 7.5 44-51.8 116.6-11.6 123.4 48.6C374.4 134.3 329.6 178.4 305.8 209.6z" class="undefined"/>
</svg>
