<?xml version="1.0" encoding="utf-8"?>
<!-- Generator: Adobe Illustrator 15.0.2, SVG Export Plug-In . SVG Version: 6.00 Build 0)  -->
<!DOCTYPE svg PUBLIC "-//W3C//DTD SVG 1.1//EN" "http://www.w3.org/Graphics/SVG/1.1/DTD/svg11.dtd">
<svg version="1.1" id="Layer_1" xmlns="http://www.w3.org/2000/svg" xmlns:xlink="http://www.w3.org/1999/xlink" x="0px" y="0px"
	 width="500px" height="500px" viewBox="0 0 500 500" enable-background="new 0 0 500 500" xml:space="preserve">
<path fill-rule="evenodd" clip-rule="evenodd" d="M361.918,235.266c-22.639-1.815-46.051-2.856-68.342-5.016
	c-1.168,4.894-1.17,10.953-2.51,15.675c18.467,2.091,45.273,2.422,62.072-1.254c-8.967,15.486-21.049,27.855-35.736,37.62
	c3.283-7.376,9.984-16.765,11.912-27.587c-3.746,8.232-11.199,6.404-24.453,4.389c-5.91-0.899-11.572-2.513-16.303-2.509
	c-1.982,1.571-2.238,4.867-3.762,6.897c16.516,12.988,33.896,31.018,31.977,60.818c-0.871,13.524-5.301,23.007-10.658,31.349
	c-5.779,8.997-12.781,13.711-21.318,20.69c-12.279,10.042-17.289,29.603-21.316,45.144c-4.66,17.971-8.754,36.734-11.287,55.176
	c-9.366-31.867-9.631-76.119-30.722-97.811c-3.912-4.023-8.833-6.229-12.541-9.405c-10.765-9.228-20.417-23.436-21.944-43.263
	c-2.171-28.19,11.834-48.617,31.35-61.444c-0.824-3.146-2.587-5.354-3.762-8.151c-13.623-0.205-33.735,11.245-39.5-1.88
	c2.481,10.684,6.763,19.57,12.54,26.96c-14.773-6.963-26.986-21.919-36.365-36.366c15.239,2.383,41.292,2.508,60.191,1.254
	c-0.648-5.204-1.651-10.052-1.881-15.674c-14.646,0.624-33.604,1.895-49.532,3.135c-12.096,0.941-20.196,2.995-24.453-5.643
	c2.81,10.357,6.782,19.552,12.54,26.961c-14.434-7.094-27.104-21.383-35.738-36.366c28.82,4.62,63.223,3.656,96.556,3.762
	c4.167-5.029,8.169-10.223,15.048-12.54c-2.137-3.724-8.757-1.397-11.913-1.254c-21.176,0.962-38.194,0.912-58.937,0
	c-49.582-2.179-85.948-10.813-107.215-40.127c-10.038-13.836-16.723-31.469-24.453-48.905c-7.289-16.442-14.546-33.564-20.69-52.667
	c7.455,2.995,13.929,6.971,21.318,10.032C16.744,59.619,11.3,42.073,7.041,23.343c67.639,44.59,132.716,91.75,195.621,141.073
	c-3.178-12.775-1.909-28.648,11.286-28.842c-8.763-11.719-27.183-13.781-30.722-30.723c3.331-0.396,6.326,3.319,9.405,5.643
	c9.303,7.023,20.413,15.162,30.096,21.944c15.309-5.276,38.733-5.682,53.921,0c14.281-8.082,27.061-21.009,40.127-28.214
	c-3.178,17.303-21.137,19.824-30.723,30.723c12.049,1.107,15.137,15.749,11.287,28.841c16.018-11.317,31.572-23.635,47.65-35.738
	c47.311-35.613,97.34-71.212,147.344-104.708c-2.527,17.536-9.242,36.319-14.422,53.294c6.709-1.028,13.898-6.999,21.318-9.405
	c-15.568,38.69-25.619,74.55-45.143,101.573c-21.074,29.167-57.238,37.886-106.59,40.127c-22.887,1.04-46.186,0.259-70.223-0.627
	c5.729,4.512,13.275,7.206,16.303,14.421c33.957-0.108,69.035,0.903,98.436-3.762c-8.709,15.325-20.748,27.32-35.111,36.992
	c2.621-7.622,9.938-15.977,11.287-26.96C368.49,226.495,364.348,234.38,361.918,235.266z"/>
</svg>
