<?xml version="1.0" encoding="utf-8"?>
<!-- Generator: Adobe Illustrator 15.0.2, SVG Export Plug-In . SVG Version: 6.00 Build 0)  -->
<!DOCTYPE svg PUBLIC "-//W3C//DTD SVG 1.1//EN" "http://www.w3.org/Graphics/SVG/1.1/DTD/svg11.dtd">
<svg version="1.1" id="Layer_1" xmlns="http://www.w3.org/2000/svg" xmlns:xlink="http://www.w3.org/1999/xlink" x="0px" y="0px"
	 width="500px" height="500px" viewBox="0 0 500 500" enable-background="new 0 0 500 500" xml:space="preserve">
<path fill-rule="evenodd" clip-rule="evenodd" d="M466.244,22.319c-0.027-0.302-0.072-0.587-0.494-0.496
	c1.777,28.375,2.186,56.78-4.459,78.784c-6.451,21.358-21.843,34.622-46.577,38.649c-25.124,4.091-53.368-0.332-80.766-1.486
	c-55.497-2.339-111.597-2.814-165.001,1.486c-25.972,2.092-54.712,6.993-80.27,3.964c-25.873-3.066-42.389-15.681-49.55-35.676
	c-7.508-20.963-5.115-51.159-4.956-79.279c-8.268,11.197-14.568,25.838-19.819,41.126c-5.233,15.234-9.9,32.957-10.901,51.036
	c-3.671,66.286,42.69,90.563,105.541,93.153c-28.784,5.901-57.686,11.684-80.766,23.289c9.887,16.099,30.855,30.15,57.478,28.244
	c13.336-0.955,24.547-5.346,35.18-9.91c7.23,25.122,17.087,46.207,27.748,69.368c7.32,15.907,15.296,33.33,24.279,48.56
	c2.606,4.419,8.722,12.394,8.424,15.36c-0.801,8.001-8.284,7.068-9.414,13.378c-0.933,5.207,0.811,14.294,1.981,20.316
	c1.268,6.523,3.123,12.901,4.955,17.837c3.707,9.985,9.341,22.436,17.838,27.749c11.522,7.203,33.847,10.705,53.515,10.404
	c18.202-0.278,42.815-2.712,54.01-9.91c7.82-5.028,13.022-17.581,17.34-27.746c2.064-4.858,4.269-10.626,5.947-16.849
	c1.401-5.192,4.204-14.692,2.974-19.819c-1.164-4.842-9.782-7.738-9.415-15.36c0.178-3.693,5.713-11.596,7.928-16.352
	c18.449-39.595,35.508-78.753,51.533-118.424c3.536,1.593,7.021,3.457,10.404,4.46c34.402,10.195,68.092-1.207,79.774-25.271
	c-22.27-9.112-48.325-14.436-73.333-20.811c48.409-10.603,95.805-25.418,99.1-79.775C499.287,85.863,480.391,54.604,466.244,22.319z
	"/>
</svg>
