<?xml version="1.0" encoding="utf-8"?>
<!-- Generator: Adobe Illustrator 15.0.2, SVG Export Plug-In . SVG Version: 6.00 Build 0)  -->
<!DOCTYPE svg PUBLIC "-//W3C//DTD SVG 1.1//EN" "http://www.w3.org/Graphics/SVG/1.1/DTD/svg11.dtd">
<svg version="1.1" id="Layer_1" xmlns="http://www.w3.org/2000/svg" xmlns:xlink="http://www.w3.org/1999/xlink" x="0px" y="0px"
	 width="500px" height="500px" viewBox="0 0 500 500" enable-background="new 0 0 500 500" xml:space="preserve">
<path fill-rule="evenodd" clip-rule="evenodd" d="M464.66,22.976c0.42-0.09,0.465,0.192,0.493,0.493
	c14.072,32.123,32.875,63.223,30.072,109.445c-3.278,54.083-50.434,68.824-98.6,79.372c24.881,6.342,50.808,11.639,72.964,20.706
	c-11.624,23.942-45.143,35.287-79.372,25.143c-3.366-0.998-6.833-2.853-10.353-4.436c-15.943,39.47-32.915,78.43-51.271,117.824
	c-2.206,4.733-7.711,12.594-7.888,16.27c-0.364,7.583,8.209,10.465,9.367,15.282c1.224,5.101-1.564,14.552-2.959,19.721
	c-1.671,6.19-3.863,11.93-5.916,16.761c-4.296,10.114-9.473,22.604-17.254,27.608c-11.137,7.16-35.627,9.583-53.737,9.859
	c-19.567,0.3-41.78-3.187-53.244-10.353c-8.454-5.285-14.06-17.674-17.748-27.608c-1.823-4.911-3.668-11.258-4.93-17.747
	c-1.165-5.99-2.899-15.033-1.972-20.212c1.125-6.28,8.569-5.352,9.367-13.312c0.295-2.952-5.789-10.888-8.381-15.283
	c-8.938-15.153-16.873-32.488-24.157-48.313c-10.606-23.045-20.414-44.023-27.607-69.019c-10.579,4.54-21.733,8.908-35.002,9.859
	c-26.488,1.897-47.35-12.085-57.188-28.101c22.963-11.547,51.72-17.299,80.358-23.17c-62.534-2.577-108.66-26.732-105.008-92.683
	c0.996-17.988,5.639-35.622,10.846-50.779c5.226-15.21,11.494-29.778,19.72-40.918c-0.159,27.979-2.54,58.021,4.93,78.879
	c7.125,19.895,23.557,32.445,49.299,35.496c25.43,3.014,54.024-1.863,79.865-3.943c53.136-4.279,108.951-3.806,164.166-1.479
	c27.262,1.149,55.362,5.55,80.359,1.479c24.609-4.008,39.924-17.205,46.341-38.454C466.835,79.47,466.431,51.208,464.66,22.976z
	 M45.615,126.012c-3.666-5.201-5.099-11.137-8.874-16.269c-3.387-4.606-9.203-7.276-13.311-11.832
	c-3.837,3.968-11.809,8.953-13.804,15.283c-3.852,12.223-0.308,28.282,2.465,38.454c12.455,45.679,61.214,60.569,116.84,56.694
	c3.311-22.16,7.796-43.146,14.296-62.117C100.939,150.322,63.837,151.864,45.615,126.012z M464.167,107.771
	c-3.297,3.064-4.731,7.662-6.902,10.846c-18.34,26.897-51.282,28.36-99.092,25.143c5.463,20.502,8.688,43.241,11.831,66.062
	c70.078-3.908,128.8-24.309,120.785-103.036c-3.753-2.82-7.354-5.793-11.831-7.887C475.308,102.217,467.902,104.301,464.167,107.771
	z M360.638,251.726c-0.108-0.385-0.413-0.574-0.986-0.493c-0.648,0.994-1.617,1.668-2.957,1.973
	c-0.38,15.776-8.318,26.449-24.156,25.143c0,1.314,0,2.628,0,3.942C353.45,283.647,359.754,270.396,360.638,251.726z
	 M138.298,253.205c0,0.493,0,0.985,0,1.479c-0.273,13.515,7.406,22.246,18.241,25.142c2.619,0.701,10.928,4.3,11.339-1.971
	c-15.613-0.984-24.46-8.736-25.143-24.649C141.255,253.205,139.777,253.205,138.298,253.205z"/>
</svg>
