<?xml version="1.0" encoding="utf-8"?>
<!-- Generator: Adobe Illustrator 15.0.2, SVG Export Plug-In . SVG Version: 6.00 Build 0)  -->
<!DOCTYPE svg PUBLIC "-//W3C//DTD SVG 1.1//EN" "http://www.w3.org/Graphics/SVG/1.1/DTD/svg11.dtd">
<svg version="1.1" id="Layer_1" xmlns="http://www.w3.org/2000/svg" xmlns:xlink="http://www.w3.org/1999/xlink" x="0px" y="0px"
	 width="500px" height="500px" viewBox="0 0 500 500" enable-background="new 0 0 500 500" xml:space="preserve">
<path fill-rule="evenodd" clip-rule="evenodd" d="M498.062,91.358c-30.691,18.741-62.563,36.93-93.532,56.457
	c-9.983,6.294-19.215,14.153-30.335,17.695c2.621-12.05,15.652-26.826,17.696-42.975c3.111-24.606-8.34-33.394-33.706-30.335
	c-32.755,3.951-66.549,21.914-91.848,38.761c-53.178,35.413-95.289,75.841-133.98,127.238
	c-17.382,23.092-40.401,54.134-42.132,88.478c-1.936,38.403,25.917,47.864,64.883,45.501c25.598-1.55,52.717-8.292,76.68-15.167
	c68.753-19.724,142.05-47.84,198.863-73.309c-10.241,13.598-25.022,23.489-38.761,33.705
	c-67.873,50.47-146.029,95.209-251.95,110.386c-46.264,6.628-91.346,5.384-116.284-21.066
	c-14.194-15.054-25.989-46.42-20.223-74.152c7.097-34.137,27.273-65,45.502-91.847c18.992-27.969,41.69-52.421,63.198-74.152
	c-22.877,4.087-44.468,9.46-68.253,12.639c1.643-6.515,9.303-9.908,14.325-13.482c38.22-27.2,80.533-53.282,124.71-76.68
	c51.139-27.086,107.294-53.002,171.898-58.985C410.465,44.917,474.981,55.259,498.062,91.358z"/>
</svg>
