<?xml version="1.0" encoding="utf-8"?>
<!-- Generator: Adobe Illustrator 15.0.2, SVG Export Plug-In . SVG Version: 6.00 Build 0)  -->
<!DOCTYPE svg PUBLIC "-//W3C//DTD SVG 1.1//EN" "http://www.w3.org/Graphics/SVG/1.1/DTD/svg11.dtd">
<svg version="1.1" id="Layer_1" xmlns="http://www.w3.org/2000/svg" xmlns:xlink="http://www.w3.org/1999/xlink" x="0px" y="0px"
	 width="500px" height="500px" viewBox="0 0 500 500" enable-background="new 0 0 500 500" xml:space="preserve">
<g>
	<g>
		<path fill-rule="evenodd" clip-rule="evenodd" d="M234.009,6.907c0.83,4.678-7.953,10.565-10.122,16.449
			c51.645-4.178,101.624,3.082,132.228,24.042c4.405-0.399,6.428,1.583,10.122,1.898c16.152,9.365,31.814,19.221,45.553,31
			c12.826,12.691,27.79,23.244,35.428,41.124c2.465,2.809,6.157,4.387,8.225,7.592c19.449,31.903,38.593,71.91,38.593,124.002
			c0,52.011-14.216,95.026-34.797,127.798c-2.044,2.595-4.648,4.631-7.592,6.326c-0.398,3.187-1.255,5.915-2.53,8.227
			c-46.312,60.872-125.723,111.674-239.78,94.266C114.273,470.812,54.926,416.28,23.332,333.994
			c-8.786-14.457-15.781-31.561-17.082-52.512c-2.264-36.432,9.487-67.224,18.347-93.633c2.048-25.79,11.499-44.177,23.409-60.104
			c15.354-12.482,28.19-27.484,38.593-44.919c16.608-16.079,39.624-25.751,60.735-37.327c19.134-17.982,40.678-33.555,73.389-37.96
			c1.022,0.178,1.09-0.598,1.898-0.633C226.417,6.907,230.214,6.907,234.009,6.907z M87.231,259.34
			C87.836,256.712,85.336,259.211,87.231,259.34c10.268,37.813,36.412,63.126,56.307,89.206c-12.194-0.882-22.771-3.38-32.898-6.327
			c-8.688-2.054-19.352-9.898-24.674-12.021c36.279,63.89,85.682,114.663,184.738,115.777c18.524-1.721,36.568-3.922,51.246-9.49
			c-67.564,3.334-125.062-11.93-148.677-52.512c28.331,7.445,56.966-3.287,69.594-19.611c-2.756-20.866-4.32-42.921-7.593-63.267
			c-2.918,6.993-5.035,14.787-8.857,20.878c-9.067-44.92-17.665-90.31-27.204-134.758c10.889,8.301,20.189,18.191,33.53,24.042
			c0.39,0.919,0.765-0.065,0,0c0-0.21,0-0.422,0-0.633c-23.89-23.854-49.023-52.933-45.551-99.961
			c7.566,13.522,15.516,26.662,30.368,32.899c-6.68-24.145-14.51-51.81-21.511-79.083c0.105-11.704,3.528-20.092,7.592-27.837
			c2.649-7.29,11.526-15.008,12.652-19.613c-25.904,6.783-44.966,20.409-59.47,38.593c-1.597,6.838-2.593,14.278-3.163,22.144
			c-22.972,25.532-44.035,52.973-49.348,96.164c-2.585,38.647,15.231,60.266,30.367,79.083c-9.759-0.784-17.063-4.025-24.041-7.591
			c-5.575-2.241-13.011-11.319-16.449-12.653c4.101,17.62,11.694,35.122,17.714,48.714C100.905,276.876,93.77,268.406,87.231,259.34
			z M285.255,72.071c1.578,4.959,3.517,9.559,5.694,13.919c6.335-9.692,17.243-14.812,31.634-16.45
			C310.817,66.117,294.746,67.778,285.255,72.071z M268.173,199.87C266.278,199.998,268.777,202.497,268.173,199.87
			c11.801-26.632,18.816-71.94,9.49-106.289c-1.854,14.172-5.551,26.504-13.286,34.797c-12.572-23.489-30.11-42.014-52.512-55.675
			c17.051,38.414,31.468,79.46,39.858,126.534c-0.307-34.913-7.088-63.35-13.286-92.37c13.192,9.795,19.146,26.829,24.675,44.287
			c7.734-7.872,9.234-21.978,14.551-32.266C279.851,148.708,272.716,174.673,268.173,199.87z M135.313,74.602
			c-15.392,7.385-25.512,23.413-36.694,32.899c-0.32-6.858,2.772-10.302,3.796-15.817c0.92-0.389-0.064-0.765,0,0
			c-8.726,8.779-14.32,20.687-18.348,34.164c-15.684,16.792-26.514,38.439-34.796,62.633c-1.89-15.403,4.119-28.344,7.592-40.49
			c0.919-0.389-0.064-0.765,0,0c-35.158,34.29-15.882,116.936-6.959,163.859c-11.747-14.826-16.838-36.306-22.144-57.572
			c-0.906,53.416,20.428,84.595,39.857,117.675c19.219,33.082,47.1,57.503,81.614,75.287c33.495,18.075,74.09,32.043,127.165,28.471
			c46.892-5.409,83.8-20.801,113.248-43.654c0.734,0.103,1.125-0.139,1.264-0.633c0.54,0.116,0.598-0.246,0.633-0.633
			c0.921-0.388-0.063-0.765,0,0c-0.538-0.115-0.596,0.248-0.633,0.633c-0.735-0.104-1.125,0.14-1.264,0.633
			c-30.176,16.221-62.938,29.854-105.655,33.531c-46.612,3.062-85.257-7.036-114.513-23.409
			C111.781,407.927,65.417,358.97,57.496,277.054c11.175,17.295,23.254,37.06,44.286,42.389
			c-22.065-29.392-43.229-59.685-43.021-111.348c2.202-19.943,7.39-40.272,18.348-49.349c-4.863,23.304-4.938,57.746,4.429,75.92
			C75.17,161.83,101.673,111.578,135.313,74.602C136.233,74.213,135.25,73.837,135.313,74.602z M280.194,216.952
			c15.904-7.724,22.982-37.955,13.918-58.838C293.724,181.556,287.973,203.009,280.194,216.952z M266.908,203.033
			C267.322,203.446,266.644,202.768,266.908,203.033L266.908,203.033z M279.562,242.89
			C279.976,243.305,279.297,242.626,279.562,242.89L279.562,242.89z M278.929,248.584c-0.21,0-0.422,0-0.633,0
			c-3.203,21.47-8.288,41.058-11.388,62.633c5.67,21.746,11.632,43.197,17.714,64.531c-7.947,8.713-16.685,16.635-24.041,25.939
			c-0.538-0.115-0.598,0.246-0.633,0.633c-0.538-0.117-0.596,0.246-0.633,0.633c-0.919,0.389,0.065,0.766,0,0
			c0.539,0.116,0.597-0.247,0.633-0.633c0.538,0.116,0.598-0.246,0.633-0.633c10.475-7.661,21.565-14.707,30.368-24.04
			c-6.324-20.881-12.436-41.974-18.348-63.267C274.18,291.918,277.551,271.246,278.929,248.584
			C280.864,246.545,278.172,243.851,278.929,248.584z"/>
		<path fill-rule="evenodd" clip-rule="evenodd" d="M199.846,28.417c1.075-0.233,1.193,0.494,1.265,1.265
			c-7.004,7.969-12.505,17.44-14.551,30.368c-9.174-1.972-12.137,7.089-17.082,11.388C173.652,51.151,183.148,36.183,199.846,28.417
			z"/>
		<path fill-rule="evenodd" clip-rule="evenodd" d="M151.13,120.154C150.865,119.889,151.545,120.568,151.13,120.154L151.13,120.154
			z"/>
		<path fill-rule="evenodd" clip-rule="evenodd" d="M151.13,120.786c-5.06,32.434,5.831,63.191,32.267,70.227
			c1.518,8.183,4.016,15.385,5.061,24.041c-25.08-12.668-45.969-29.53-44.919-68.328C145.028,137.039,146.847,127.68,151.13,120.786
			z"/>
		<path fill-rule="evenodd" clip-rule="evenodd" d="M172.641,127.746c2.367,17.246,7.5,31.725,14.552,44.286
			C162.742,172.913,156.826,139.776,172.641,127.746z"/>
		<path fill-rule="evenodd" clip-rule="evenodd" d="M123.293,265.666C122.528,265.729,122.904,264.747,123.293,265.666
			L123.293,265.666z"/>
		<path fill-rule="evenodd" clip-rule="evenodd" d="M123.293,265.666c6.132,2.617,13.636,6.892,22.775,4.429
			c12.447,27.411,24.556,55.16,37.96,81.614C159.8,329.54,136.938,300.526,123.293,265.666z"/>
		<path fill-rule="evenodd" clip-rule="evenodd" d="M225.151,368.158c-4.038-7.983-5.19-18.851-12.652-23.41
			c-5.356,1.816-5.714,8.628-6.327,15.186c-3.867-3.725-5.247-9.937-7.592-15.186c3.132-6.989,4.588-15.655,14.552-15.815
			C221.781,337.364,224.128,352.1,225.151,368.158z"/>
	</g>
</g>
</svg>
