<?xml version="1.0" encoding="utf-8"?>
<!-- Generator: Adobe Illustrator 15.0.2, SVG Export Plug-In . SVG Version: 6.00 Build 0)  -->
<!DOCTYPE svg PUBLIC "-//W3C//DTD SVG 1.1//EN" "http://www.w3.org/Graphics/SVG/1.1/DTD/svg11.dtd">
<svg version="1.1" id="Layer_1" xmlns="http://www.w3.org/2000/svg" xmlns:xlink="http://www.w3.org/1999/xlink" x="0px" y="0px"
	 width="500px" height="500px" viewBox="0 0 500 500" enable-background="new 0 0 500 500" xml:space="preserve">
<g>
	<path fill-rule="evenodd" clip-rule="evenodd" d="M241.294,2.42c76.393-3.638,141.695,29.376,180.343,68.023
		c41.054,41.056,72.224,93.173,75.933,171.642c3.657,77.425-28.294,138.238-68.024,177.969
		c-42.164,42.163-95.267,73.979-170.059,77.514c-78.546,3.713-139.999-29.263-179.55-68.814
		c-42.035-42.035-74.029-95.14-77.515-170.059C-1.255,179.67,32.363,118.05,70.445,79.145
		C111.178,37.531,162.265,6.184,241.294,2.42z M209.656,30.896c-0.528,0-1.055,0-1.582,0c-27.654,4.554-53.232,17.154-75.934,33.221
		c-46.525,32.928-76.792,70.209-94.125,130.51c-9.63,33.504-16.325,78.731-3.165,111.528c-0.031-28.963,7.318-53.526,15.029-75.934
		c7.767-22.571,15.958-44.499,28.476-63.278c9.973,5.056,18.711,11.346,29.266,15.82c6.442-12.015,14.231-22.681,21.356-34.012
		c-8.272-7.547-18.8-12.839-26.893-20.565C131.995,89.809,165.634,55.161,209.656,30.896z M401.07,128.976
		c-9.747,6.336-19.621,12.545-27.684,20.565c8.065,10.127,14.946,21.438,21.355,33.221c11.185-4.636,20.347-11.293,30.848-16.61
		c19.779,41.127,38.552,83.259,43.504,139.21c14.637-56.433-1.84-127.376-26.893-165.313c-7.018-10.625-13.19-22.416-20.564-30.848
		c-32.933-37.649-74.459-67.238-128.138-78.306c-0.483,0.045-0.937,0.119-0.791,0.791C338.134,54.812,370.788,90.707,401.07,128.976
		z M160.615,141.632c13.271-2.812,25.739-6.428,38.758-9.492c17.328,20.111,33.783,41.095,49.832,62.486
		c18.841-19.389,33.404-43.056,51.413-63.277c15.478,5.351,33.253,8.405,49.04,13.446c-23.907-31.46-49.108-61.627-74.352-91.752
		c-3.234,4.675-6.777,9.042-10.283,13.447c-5.153-11.456-9.453-23.768-15.027-34.803
		C220.471,68.604,189.644,104.219,160.615,141.632z M138.468,162.196c-4.217,8.967-10.618,15.749-15.029,24.521
		c34.284,21.611,68.867,42.924,102.826,64.86c-44.146,28.644-89.604,57.677-133.673,86.216c-6.602,4.274-12.588,9.978-18.984,12.655
		c-7.236,3.03-15.292,2.212-21.356,7.118c-0.166,13.645,8.121,25.604,19.774,30.058c12.897-18.504,32.511-28.011,52.204-40.34
		c85.002-53.22,170.986-108.142,254.692-160.567c-4.646-8.799-10.179-16.714-15.819-24.521
		c-37.217,24.479-74.384,49.008-112.318,72.77C213.527,210.527,176.343,186.018,138.468,162.196z M262.65,274.514
		c51.688,31.365,101.519,64.586,153.447,95.709c4.477,6.335,8.655,12.966,15.029,17.401c11.325-5.812,19.023-15.253,19.773-31.639
		c-25.124-3.689-38.842-16.668-56.948-28.476c-35.012-22.832-71.727-46.922-106.782-68.023
		C278.823,264.322,270.172,268.853,262.65,274.514z M223.102,323.555c-29.285,10.616-55.279,41.908-51.413,83.053
		c3.384,36.016,31.249,67.539,70.396,71.188c43.651,4.066,84.299-24.366,88.587-70.397c2.798-30.032-10.043-52.756-22.937-65.65
		c-13.243-13.242-37.1-24.712-63.278-22.147C235.882,320.44,228.339,321.657,223.102,323.555z"/>
	<path fill-rule="evenodd" clip-rule="evenodd" d="M244.458,333.047c0,8.173,0,16.347,0,24.52
		c-13.451-1.315-23.22-6.31-30.057-14.237C223.375,338.855,231.851,333.885,244.458,333.047z"/>
	<path fill-rule="evenodd" clip-rule="evenodd" d="M257.904,333.047c12.608,0.838,21.084,5.809,30.058,10.282
		c-6.457,8.309-16.829,12.7-30.058,14.237C257.904,349.394,257.904,341.22,257.904,333.047z"/>
	<path fill-rule="evenodd" clip-rule="evenodd" d="M244.458,371.805c0,6.327,0,12.655,0,18.983c-19.51,0-39.021,0-58.532,0
		c1.825-16.631,9.138-27.774,17.401-37.967C214.092,362.095,226.846,369.379,244.458,371.805z"/>
	<path fill-rule="evenodd" clip-rule="evenodd" d="M316.436,390.788c-19.51,0-39.021,0-58.531,0c0-6.328,0-12.656,0-18.983
		c17.15-2.624,30.694-8.855,40.341-18.983C307.716,362.069,314.708,373.796,316.436,390.788z"/>
	<path fill-rule="evenodd" clip-rule="evenodd" d="M185.927,404.233c19.51,0,39.021,0,58.532,0c0,7.119,0,14.237,0,21.357
		c-18.543,1.23-29.689,9.859-41.13,18.191C194.408,433.718,187.222,421.921,185.927,404.233z"/>
	<path fill-rule="evenodd" clip-rule="evenodd" d="M257.904,404.233c19.511,0,39.021,0,58.531,0
		c-0.829,18.154-8.473,29.493-17.4,39.549c-11.372-8.402-22.576-16.972-41.131-18.191
		C257.904,418.471,257.904,411.353,257.904,404.233z"/>
	<path fill-rule="evenodd" clip-rule="evenodd" d="M244.458,439.036c0,8.174,0,16.349,0,24.521
		c-12.988-0.457-21.48-5.413-30.057-10.283C221.421,445.53,231.593,440.937,244.458,439.036z"/>
	<path fill-rule="evenodd" clip-rule="evenodd" d="M257.904,439.036c12.904,1.598,22.202,6.802,30.058,13.447
		c-7.004,6.706-18.077,9.343-29.267,11.864C256.855,457.487,258.429,447.214,257.904,439.036z"/>
</g>
</svg>
