<?xml version="1.0" encoding="utf-8"?>
<!-- Generator: Adobe Illustrator 15.0.2, SVG Export Plug-In . SVG Version: 6.00 Build 0)  -->
<!DOCTYPE svg PUBLIC "-//W3C//DTD SVG 1.1//EN" "http://www.w3.org/Graphics/SVG/1.1/DTD/svg11.dtd">
<svg version="1.1" id="Layer_1" xmlns="http://www.w3.org/2000/svg" xmlns:xlink="http://www.w3.org/1999/xlink" x="0px" y="0px"
	 width="500px" height="500px" viewBox="0 0 500 500" enable-background="new 0 0 500 500" xml:space="preserve">
<g>
	<path fill-rule="evenodd" clip-rule="evenodd" fill="#020202" d="M387.856,2.498c45.788,0.546,43.186,49.481,45.403,93.599
		c0.149,1.014-0.305,2.633,0.231,3.26c0,2.794,0,5.588,0,8.381c0.155,2.098-0.308,4.811,0.234,6.52c0,5.977,0,11.952,0,17.928
		c0,4.424,0,8.848,0,13.271c0,0.388,0,0.777,0,1.165c-0.384,0.858-0.294,2.189-0.466,3.259c-0.222,1.253-0.289,2.661-0.232,4.191
		c-0.012,1.175,0.091,2.238,0.464,3.026c0.711,22.755-4.775,41.324-13.503,55.415c-0.438,0.571-0.963,1.054-1.165,1.863
		c-0.143,0.632-0.461,1.09-0.932,1.396c-4.432,6.202-9.438,11.827-15.134,16.765c-8.21,7.239-17.858,12.282-28.638,16.531
		c-10.986,4.332-22.824,6.697-35.391,9.547c-24.311,5.512-49.706,11.218-73.344,16.765c-5.604,0.915-10.471,2.566-16.065,3.492
		c-0.013,0.297-0.298,0.321-0.232,0.697c0,63.256,0,126.505,0,189.76c-1.908-0.045-2.75,0.977-4.657,0.932
		c-3.304,0.5-6.382,1.225-9.313,2.097c-32.945,8.111-65.337,16.774-98.023,25.145c-0.078,0-0.155,0-0.232,0
		c0-116.644,0-235.481,0-353.208c0-7.788,0.19-17.539-0.233-23.517c-0.078,0-0.154,0-0.232,0
		c-7.854,2.314-15.932,4.402-25.612,4.889c-0.784,0.147-2.162-0.299-2.561,0.233c-1.553,0-3.105,0-4.657,0
		c-0.475-0.534-1.934-0.085-2.794-0.233c-22.098-1.805-33.224-14.584-34.459-37.253c0-1.785,0-3.57,0-5.355
		c-0.167-1.953,0.252-3.318,0.232-5.122c86.735-24.662,174.445-47.887,265.896-67.755c13.09-2.844,26.115-6.828,40.047-7.451
		c0.709-0.146,2.007,0.298,2.328-0.233c0.622,0,1.242,0,1.863,0C380.406,2.498,384.132,2.498,387.856,2.498z M335.469,62.337
		c-8.8-6.989-25.448-2.18-36.088,0.232c-32.04,7.264-64.3,14.833-93.134,23.517c-0.06,4.339-1.093,8.18-0.698,11.874
		c0.988,9.247,8.096,15.53,17.695,16.065c0.938,0.388,3.486,0.388,4.424,0c0.465,0,0.931,0,1.397,0
		c0.368,0.022,0.442,0.077,0.466,0.466c0.615,10.283,0,21.354,0,32.83c0,29.918,0,60.134,0,90.106c0,3.021-0.442,8.411,0.699,7.684
		c22.042-5.887,46.653-12.985,69.152-17.695c6.585-1.379,12.28-2.304,17.461-4.425c15.356-6.286,25.521-18.504,26.776-39.349
		c0.389-28.561,0.389-58.752,0-87.312c0-1.241,0-2.484,0-3.726c-0.151-1.399,0.307-3.411-0.233-4.424
		c-0.188-9.513-1.401-18-5.587-23.517C337.118,63.791,336.343,63.015,335.469,62.337z"/>
	<path fill-rule="evenodd" clip-rule="evenodd" fill="#020202" d="M274.001,126.132c0-9.701,0-19.402,0-29.104
		c7.917-1.466,24.377-9.956,24.215,4.191c0.152,1.323-0.307,3.255,0.233,4.191c0,1.164,0,2.327,0,3.492
		c0.148,0.938-0.303,2.476,0.232,3.026c0,1.397,0,2.794,0,4.191c0,1.474,0,2.949,0,4.424c0.154,4.269-0.31,9.157,0.232,13.039
		c0,10.4,0,20.799,0,31.199c-0.542,4.813-0.077,10.632-0.232,15.833c0,2.407,0,4.812,0,7.218c0,3.648,0,7.296,0,10.942
		c-8.189,1.745-15.993,3.875-23.982,5.821c0-5.432,0-10.865,0-16.297c-0.154-4.27,0.311-9.158-0.232-13.039c0-2.872,0-5.743,0-8.615
		c0-2.173,0-4.346,0-6.519c-0.154-3.105,0.311-6.829-0.232-9.546c0-3.182,0-6.364,0-9.546c0-2.018,0-4.036,0-6.053
		C274.08,132.107,274.544,128.618,274.001,126.132z"/>
</g>
</svg>
