<?xml version="1.0" encoding="utf-8"?>
<!-- Generator: Adobe Illustrator 15.0.2, SVG Export Plug-In . SVG Version: 6.00 Build 0)  -->
<!DOCTYPE svg PUBLIC "-//W3C//DTD SVG 1.1//EN" "http://www.w3.org/Graphics/SVG/1.1/DTD/svg11.dtd">
<svg version="1.1" id="Layer_1" xmlns="http://www.w3.org/2000/svg" xmlns:xlink="http://www.w3.org/1999/xlink" x="0px" y="0px"
	 width="500px" height="500px" viewBox="0 0 500 500" enable-background="new 0 0 500 500" xml:space="preserve">
<path fill-rule="evenodd" clip-rule="evenodd" d="M235.343,2.457c79.367-5.11,142.131,26.936,182.997,65.26
	c40.296,37.791,76.36,93.146,79.388,168.195c3.274,81.159-26.393,136.736-64.586,181.652
	c-18.477,21.728-43.374,39.417-70.643,53.148c-27.592,13.894-60.192,24.756-96.881,26.913
	c-78.031,4.583-141.208-26.072-182.996-65.261c-42.951-40.28-75.138-91.063-80.061-167.523
	c-5.074-78.793,26.645-141.94,63.915-182.323c28.595-30.985,66.192-56.928,114.373-71.315C197.601,6.2,217.715,3.593,235.343,2.457z
	 M481.58,230.53c-3.938-45.783-20.267-83.467-39.693-111.683c-20.35-29.556-46.443-54.953-78.716-72.66
	c-30.304-16.626-78.992-31.175-125.137-28.257c-73.923,4.676-126.538,36.462-163.486,79.389
	C37.142,140.78,10.788,200.748,20.054,282.334c24.264-23.676,45.459-55.283,63.241-88.807c4.793-9.037,14.602-25.732,16.146-34.985
	c1.789-10.712-0.259-21.348,0.673-31.62c0.866-1.825,3.343-2.039,6.054-2.019c0.36-2.332-0.999-6.381,1.346-6.728
	c2.916,0,5.831,0,8.746,0c0.402,8.119-1.466,18.51,4.037,21.528c-2.665-11.913,5.904-18.947,13.455-12.782
	c1.292,9.248,0.439,20.641,1.346,30.275c83.233,90.118,182.008,164.698,321.589,198.471
	C475.318,320.234,485.491,275.997,481.58,230.53z M116.934,142.396c-0.98,60.732,3.364,122.114,3.364,182.324
	c0,15.129-0.461,35.657,2.019,51.805c0.881,5.74-1.059,4.974,2.69,5.382c3.755,0.408,2.1-9.383,2.019-12.109
	c-2.249-75.984-4.407-155.571-8.074-228.074c-0.959-0.161-1.134-1.108-2.018-1.345C116.934,141.05,116.934,141.723,116.934,142.396z
	 M137.118,213.71c2.743,13.671,8.718,27.232,12.783,40.368c12.785,41.322,24.916,80.205,37.676,121.772
	c5.083-0.522,9.981-1.231,15.474-1.344c-22.496-71.697-44.261-144.118-67.951-214.619
	C137.59,178.432,133.578,196.074,137.118,213.71z M208.432,373.833c5.354,0.42,8.698-1.17,14.129-0.672
	c-19.128-61.158-39.227-121.345-57.859-182.998c-7.453-6.003-12.945-13.966-20.183-20.184
	C165.823,237.932,187.009,306,208.432,373.833z M79.931,208.328c-7.336,41.222-17.144,97.291-24.893,140.612
	c-1.29,7.205-3.94,16.672-3.364,20.856c0.524,3.81,8.156,13.762,9.419,12.783c12.415-70.113,26.292-142.354,37.003-211.928
	C96.346,182.393,82.061,196.357,79.931,208.328z M205.741,256.769c-3.538-11.224-6.43-28.895-12.11-38.349
	c-4.451-7.407-14.597-12.032-19.511-18.838c-0.037-0.708-0.862-0.529-0.673,0.673c17.96,57.391,36.524,114.181,53.823,172.231
	c5.39,0.231,9.122-1.194,14.801-0.672C231.559,335.413,217.518,294.138,205.741,256.769z M65.129,389.308
	c5.194,0.259,8.395-1.473,13.456-1.346c2.683-17.192,6.2-34.618,9.419-52.477c3.135-17.39,7.743-35.615,9.419-53.151
	c2.49-26.057,0.088-52.574,0.673-80.062C87.601,265.11,76.178,327.023,65.129,389.308z M57.057,247.35
	c-2.491,7.126-2.522,16.896-4.037,25.565c-4.359,24.95-9.463,51.339-13.456,75.354c2.847,5.225,5.086,11.059,8.746,15.473
	c6.891-47.829,17.779-95.249,23.548-141.957C69.708,230.87,60.285,238.113,57.057,247.35z M247.453,371.143
	c5.086-0.074,10.017-0.301,14.129-1.346c-11.245-34.305-24.558-75.439-35.658-110.337c-1.804-5.671-2.454-12.974-4.709-16.819
	c-4.127-7.038-14.958-10.545-19.511-16.82C216.875,274.342,232.374,322.532,247.453,371.143z M139.808,283.681
	c1.331,7.513,5.056,15.581,7.401,22.874c7.788,24.221,14.473,46.958,22.202,70.642c4.759,0.273,7.773-1.196,12.783-0.672
	c-14.267-47.854-29.297-94.942-44.403-141.958C140.064,252.4,137.03,267.988,139.808,283.681z M266.291,369.797
	c5.377-0.007,11.012,0.246,15.475-0.674c-6.683-24.01-16.483-52.101-24.221-76.697c-2.74-8.711-4.163-19.276-8.073-25.565
	c-5.094-8.193-15.771-11.3-21.529-18.165C240.602,289.187,253.88,329.059,266.291,369.797z M34.182,299.154
	c-3.914,17.148-6.699,28.371,2.019,40.366c4.423-26.3,10.714-54.32,13.456-80.061C41.105,268.613,37.914,282.799,34.182,299.154z
	 M287.148,369.123c5.43,0.497,8.773-1.093,14.128-0.672c-7.794-28.09-17.488-54.276-25.565-82.08
	c-6.405-4.584-12.351-9.628-18.839-14.128C266.884,304.617,277.539,336.346,287.148,369.123z M26.108,308.573
	c0.495-7.135,4.79-14.043,4.037-20.184C26.812,294.103,20.079,300.941,26.108,308.573z M306.658,368.451
	c5.39,0.231,9.122-1.194,14.802-0.675c-5.983-21.601-13.306-41.863-19.511-63.24c-6.778-3.762-12.392-8.69-18.838-12.782
	C290.582,317.699,299.432,342.263,306.658,368.451z M145.19,379.889c6.014-0.938,12.608-1.297,18.838-2.018
	c-7.339-24.283-14.916-48.327-22.874-71.989C141.859,331.19,143.64,355.424,145.19,379.889z M326.841,367.776
	c5.845,0.463,10.106-0.656,15.476-0.671c-4.12-15.392-9.519-29.503-13.457-45.076c-7.007-3.982-13.608-8.37-20.183-12.783
	C314.383,329.105,321.153,347.9,326.841,367.776z M84.64,387.288c3.273-1.436,8.357-1.061,12.11-2.019
	c-0.652-24.425,1.003-50.128,0-72.659C93.404,337.744,86.75,363.159,84.64,387.288z M347.698,367.105
	c4.715-0.443,11.203,0.888,14.801-0.672c-3.555-9.679-6.777-19.688-9.419-30.277c-6.208-2.542-12.63-8.444-18.165-9.417
	C339.741,339.627,343.523,353.562,347.698,367.105z M367.881,367.105c4.934,0,9.867,0,14.802,0
	c-1.702-6.148-3.949-11.751-5.382-18.165c-6.285-2.911-12.04-6.35-18.165-9.42C361.989,348.775,364.654,358.223,367.881,367.105z
	 M388.063,367.105c10.542-0.448,22.875,0.896,32.295-0.672c-13.55-3.72-25.129-9.407-37.002-14.802
	C384.382,357.332,386.758,361.684,388.063,367.105z M221.888,406.127c-5.158,0-10.316,0-15.474,0c-3.842-0.473-3.842,1.145,0,0.672
	c2.691,0,5.383,0,8.074,0c60.661-0.94,129.491-1.323,188.378,2.692c9.232,0.629,19.051,2.923,18.167-4.038
	C356.225,403.248,286.001,403.597,221.888,406.127z M147.882,415.547c0.715,15.431,3.027,29.264,4.037,44.403
	c36.868,19.869,92.767,26.925,142.63,17.49c40.856-7.729,75.253-25.79,101.589-47.093c3.239-2.622,10.35-7.808,9.419-9.42
	C325.18,413.33,234.041,413.469,147.882,415.547z M131.062,447.839c-1.338-9.875-1.572-20.854-2.019-31.62c-1.794,0-3.588,0-5.382,0
	C126.545,425.895,120.946,447.637,131.062,447.839z M97.423,424.292c0.379-3.07-1.192-4.189-0.673-7.402
	c-2.265,0.429-6.249-0.865-7.4,0.675C92.263,419.585,94.095,422.685,97.423,424.292z"/>
</svg>
