<?xml version="1.0" encoding="utf-8"?>
<!-- Generator: Adobe Illustrator 15.0.2, SVG Export Plug-In . SVG Version: 6.00 Build 0)  -->
<!DOCTYPE svg PUBLIC "-//W3C//DTD SVG 1.1//EN" "http://www.w3.org/Graphics/SVG/1.1/DTD/svg11.dtd">
<svg version="1.1" id="Layer_1" xmlns="http://www.w3.org/2000/svg" xmlns:xlink="http://www.w3.org/1999/xlink" x="0px" y="0px"
	 width="500px" height="500px" viewBox="0 0 500 500" enable-background="new 0 0 500 500" xml:space="preserve">
<path fill-rule="evenodd" clip-rule="evenodd" d="M203.131,1.474c8.462,18.37,11.124,42.54,16.303,64.193
	c39.901-4.711,88.929-1.848,102.913,25.474c1.462,2.853,2.638,6.543,3.057,9.68c5.372,40.153-27.432,57.179-59.607,64.703
	c21.465-0.606,45.512,0.771,48.398,19.869c2.151,14.22,0,33.822,0,51.966c0,18.066-1.253,35.794-1.018,50.437
	c25.67-3.037,50.58-5.457,72.345-14.264c5.069-2.053,15.523-6.348,15.284-13.246c-0.229-6.596-11.55-10.16-16.303-11.719
	c-21.56-7.071-45.623-9.339-69.289-13.246c37.908-1.639,75.002,0.707,103.423,12.227c6.683,2.708,20.482,8.847,20.38,18.341
	c-0.108,9.775-15.267,15.836-22.418,18.85c-29.698,12.516-65.99,16.574-103.422,20.379c-2.567,47.391-0.814,96.459-3.057,144.691
	c-0.746,16.029,0.529,32.379-1.02,47.889c-0.088,0.889-0.303,1.064-0.509,0.512c-1.192-29.148-1.123-60.576-2.549-91.197
	c-0.379-8.148,1.961-26.564-4.075-27.002c-5.451-0.393-4.825,14.229-5.094,19.869c-1.15,24.158-0.705,48.658-2.038,71.836
	c0.144,0.91-0.482,1.045-0.511,0.51c-0.933-26.256-1.976-53.971-3.056-81.006c-0.347-8.674,0.445-17.834-3.058-24.965
	c-5.841,2.195-4.896,10.08-5.094,15.795c-0.637,18.395-1.431,45.75-2.548,60.627c-1.491-45.211-2.946-90.459-4.076-136.029
	c-17.018,1.521-38.521,1.557-55.533,0c-2.415,42.758-2.657,87.689-4.585,130.934c0.354,3.975-0.862,3.975-0.509,0
	c-0.105-22.764-1.911-47.035-2.038-70.816c-0.039-7.42,0.621-15.363-2.547-21.398c-5.286,3.443-3.59,11.631-4.075,17.832
	c-1.499,19.152-3.593,40.393-4.585,59.609c-2.215-21.811-1.407-47.365-2.548-71.326c-0.356-7.486,1.107-16.076-3.566-20.889
	c-3.908,3.805-3.099,10.59-3.566,16.303c-1.41,17.252-2.841,37.238-4.584,54.514c-1.537-31.58-1.85-64.383-3.057-96.291
	c-36.883-3.85-72.538-7.531-102.404-20.379c-7.125-3.064-21.573-9.314-21.907-18.85c-0.354-10.1,13.191-15.573,20.379-18.341
	c28.503-10.979,64.482-12.633,102.914-12.737c-22.386,5.027-47.229,6.481-69.289,13.755c-4.944,1.63-15.815,4.797-16.304,11.209
	c-0.528,6.951,10.027,11.713,14.775,13.756c20.163,8.674,45.018,11.08,69.798,14.264c6.329-65.592-3.389-138.511,2.038-203.279
	c-20.241-2.513-44.544-0.438-64.703,0.51c20.768-6.404,43.133-11.211,66.231-15.284C190.172,44.896,197.051,23.585,203.131,1.474z
	 M277.004,145.655c6.453-7.891,11.951-23.603,6.624-36.682c-7.351-18.047-42.287-20.85-63.174-23.946
	c2.797,26.243,2.802,55.278,3.057,84.063C244.201,165.281,265.683,159.501,277.004,145.655z M223.511,175.204
	c-0.617,38.03-2.839,75.677-1.529,114.122c15.938,2.346,38.552,2.23,54.514,0c0-23.305,0-49.133,0-72.855
	c0-7.753,1.118-17.446-1.019-23.436c-5.276-14.783-34.067-17.855-51.457-19.36C223.426,173.761,223.467,174.481,223.511,175.204z"/>
</svg>
