<?xml version="1.0" encoding="utf-8"?>
<!-- Generator: Adobe Illustrator 15.0.2, SVG Export Plug-In . SVG Version: 6.00 Build 0)  -->
<!DOCTYPE svg PUBLIC "-//W3C//DTD SVG 1.1//EN" "http://www.w3.org/Graphics/SVG/1.1/DTD/svg11.dtd">
<svg version="1.1" id="Layer_1" xmlns="http://www.w3.org/2000/svg" xmlns:xlink="http://www.w3.org/1999/xlink" x="0px" y="0px"
	 width="500px" height="500px" viewBox="0 0 500 500" enable-background="new 0 0 500 500" xml:space="preserve">
<g>
	<path fill-rule="evenodd" clip-rule="evenodd" fill="#020202" d="M355.627,88.586c37.062,3.599,71.808,21.854,94.913,44.959
		c7.744,7.742,17.452,17.545,18.109,27.475c0.657,9.971-4.5,17.82-9.991,24.977c-3.615,4.712-12.538,16.562-19.981,14.362
		c-3.626-1.071-6.108-13.197-7.493-16.859c-13.148-34.71-35.727-61.117-61.819-82.424C364.345,96.976,357.428,92.657,355.627,88.586
		z"/>
	<path fill-rule="evenodd" clip-rule="evenodd" fill="#020202" d="M422.441,205.354c-27.451,1.598-41.065-15.452-59.321-26.851
		c-37.984-23.714-82.104-37.187-145.491-38.089c3.378-8.158,11.389-12.89,18.108-18.108c18.062-14.03,45.513-30.094,73.682-33.095
		c21.081-2.245,36.851,9.667,49.954,19.357c20.123,14.881,37.469,35.049,49.954,57.447
		C415.904,177.809,422.528,191.482,422.441,205.354z"/>
	<path fill-rule="evenodd" clip-rule="evenodd" fill="#020202" d="M497.996,242.818c-15.222,2.139-38.444,1.944-53.7,0
		c-0.181-8.703-5.75-20.027-2.498-26.85c0.866-1.818,8.124-5.455,11.239-7.493c3.901-2.55,8.315-5.192,10.617-7.493
		c7.676-7.676,11.216-16.424,15.609-21.855c0.07-0.496,2.062-1.892,1.874-0.625C493.252,193.034,498.569,217.68,497.996,242.818z"/>
	<path fill-rule="evenodd" clip-rule="evenodd" fill="#020202" d="M446.17,255.307c16.863,0.412,35.377-0.824,51.203,0.626
		c2.794,12.895-0.519,26.119-3.746,37.466c-3.202,11.239-6.857,22.772-13.114,30.596c-4.752-2.367-5.695-8.017-8.116-11.863
		c-7.562-12.008-19.403-20.058-31.222-28.724C442.434,273.636,441.086,261.257,446.17,255.307z"/>
	<path fill-rule="evenodd" clip-rule="evenodd" fill="#020202" d="M437.428,300.266c15.979,3.963,31.968,22.071,29.973,46.208
		c-11.836,18.021-28.685,31.853-47.456,43.085c-18.442,11.033-40.095,21.662-66.815,21.855c2.199-6.045,8.82-8.266,13.114-11.239
		c22.356-15.479,41.854-39.53,55.573-64.316C427.809,325.033,431.679,312.254,437.428,300.266z"/>
	<path fill-rule="evenodd" clip-rule="evenodd" d="M173.294,280.284c7.944,10.758,9.14,30.821,16.235,42.461
		c23.115,37.927,100.355,20.736,134.876,4.995c12.451-5.676,24.336-12.298,35.594-19.355c19.176-12.023,35.418-27.901,66.812-26.852
		c2.744-6.83,2.995-16.152,3.123-25.601c-133.348-1.531-269.877,0.128-403.38-1.249l-2.498,13.738
		c30.411,0.144,66.857,0.623,100.532,0.623C146.676,269.045,164.113,267.854,173.294,280.284z"/>
	<path fill-rule="evenodd" clip-rule="evenodd" d="M183.285,182.874c2.024,8.775-2.741,16.643-4.996,24.977
		c-2.181,8.063-5.9,18.704-3.122,26.851c4.482,13.139,38.414,8.742,57.447,8.742c66.845,0,132.639,1.24,196.695-0.626
		c2.107-5.542,0.262-16.538-1.249-22.479c-44.967-2.334-63.155-30.277-97.412-45.583c-23.108-10.325-49.047-17.792-81.174-19.356
		c-62.973-3.069-130.833,0.996-200.441-0.625l-3.122,12.488c24.056,0,49.663,0,76.804,0
		C147.891,167.264,178.723,163.093,183.285,182.874z"/>
	<path fill-rule="evenodd" clip-rule="evenodd" d="M260.089,394.555c11.722,6.162,32.199,16.376,49.954,15.61
		c31.375-1.353,55.926-23.706,72.436-41.837c9.524-10.46,18.157-20.81,24.977-32.47c6.834-11.688,13.536-24.768,15.61-39.962
		c-9.941-3.078-17.77,0.377-24.978,3.746c-24.81,11.596-44.302,30.896-71.81,41.211c-82.699,31.014-209.226,11.203-322.204,16.859
		l-2.498,11.864c55.895,0,110.507,0,168.595,0c17.628,0,41.354-2.741,54.325,2.498C237.948,377.509,247.877,388.134,260.089,394.555
		z"/>
</g>
</svg>
