<?xml version="1.0" encoding="utf-8"?>
<!-- Generator: Adobe Illustrator 15.0.2, SVG Export Plug-In . SVG Version: 6.00 Build 0)  -->
<!DOCTYPE svg PUBLIC "-//W3C//DTD SVG 1.1//EN" "http://www.w3.org/Graphics/SVG/1.1/DTD/svg11.dtd">
<svg version="1.1" id="Layer_1" xmlns="http://www.w3.org/2000/svg" xmlns:xlink="http://www.w3.org/1999/xlink" x="0px" y="0px"
	 width="500px" height="500px" viewBox="0 0 500 500" enable-background="new 0 0 500 500" xml:space="preserve">
<g>
	<path fill-rule="evenodd" clip-rule="evenodd" d="M417.924,186.828c-18.065,0-36.13,0-54.197,0c0-46.293,0-92.586,0-138.878
		c-75.647,0-151.3,0-226.947,0c-1.581,132.552-0.226,268.052-0.677,401.729c74.292,1.582,151.525,0.228,226.947,0.679
		c1.581-44.938,0.226-92.811,0.677-138.877c18.067,0,36.132,0,54.197,0c0,42.302,0,86.918,0,132.779
		c0,19.626,1.532,37.853-8.129,46.745c-7.529,6.931-19.195,6.776-34.551,6.776c-83.045,0-161.764,0-246.593,0
		c-13.903,0-27.886,0.724-35.906-4.744c-8.669-5.912-10.162-14.862-10.162-31.162c0-133.311,0-261.5,0-394.279
		c0-20.152-2.893-44.796,4.064-56.229c0.294-0.482,0.979-0.744,1.355-1.355c8.235-13.382,35.331-9.484,57.584-9.484
		c74.53,0,152.92,0,228.98,0c12.55,0,21.939-0.783,29.807,3.387c3.918,2.077,7.076,4.773,9.484,9.485
		c4.163,8.138,4.065,22.712,4.065,35.905C417.924,96.156,417.924,139.537,417.924,186.828z"/>
	<path fill-rule="evenodd" clip-rule="evenodd" d="M151.006,61.499c17.614,0,35.228,0,52.841,0c0,107.262,0,214.53,0,321.791
		c47.423,1.581,97.78,0.226,146.33,0.677c0,16.937,0,33.875,0,50.812c-65.261,1.578-133.457,0.224-199.849,0.675
		c0-123.975,0-247.945,0-371.922C150.271,62.57,150.217,61.613,151.006,61.499z"/>
	<path fill-rule="evenodd" clip-rule="evenodd" d="M220.785,61.499c42.906,0.451,87.615-0.902,129.393,0.677
		c0,102.296,0,204.589,0,306.888c-16.048,1.125-36.792,1.125-52.841,0c-0.286-32.128,1.203-62.479,0.677-94.845
		c-7.453-1.578-17.836-0.228-26.42-0.678c0.323,32.616-0.333,64.251-0.677,96.199c-17.171-0.444-36.123,0.894-52.165-0.677
		c0.507-101.79,0.743-203.849,1.356-305.534C220.048,62.57,219.996,61.613,220.785,61.499z M271.594,222.056
		c8.58,0,17.163,0,25.743,0c0-36.357,0-72.714,0-109.071c-8.354,0-16.711,0-25.066,0
		C270.691,147.987,272.045,185.924,271.594,222.056z"/>
</g>
</svg>
