<?xml version="1.0" encoding="utf-8"?>
<!-- Generator: Adobe Illustrator 15.0.2, SVG Export Plug-In . SVG Version: 6.00 Build 0)  -->
<!DOCTYPE svg PUBLIC "-//W3C//DTD SVG 1.1//EN" "http://www.w3.org/Graphics/SVG/1.1/DTD/svg11.dtd">
<svg version="1.1" id="Layer_1" xmlns="http://www.w3.org/2000/svg" xmlns:xlink="http://www.w3.org/1999/xlink" x="0px" y="0px"
	 width="500px" height="500px" viewBox="0 0 500 500" enable-background="new 0 0 500 500" xml:space="preserve">
<g id="RVL5Fp_1_">
	<g>
		<g>
			<path fill-rule="evenodd" clip-rule="evenodd" d="M379.122,127.847c3.31,4.565,8.047,8.494,12.501,13.365
				c12.458,13.625,22.823,30.138,29.314,50.439c8.498,26.568,8.758,65.467-1.724,91.394c4.829-4.705,7.882-10.533,14.656-13.365
				c4.793-2.003,14.826-2.111,24.144-2.586c10.742-0.546,21.977-2.317,29.314,1.293c5.705,2.809,14.846,13.388,10.776,26.298
				c-2.043,6.487-8.19,13.433-12.502,20.261c-24.811,39.294-49.988,78.673-75.873,118.984c-6.971,10.854-8.886,18.823-19.399,21.986
				c-10.698,3.22-30.68,0.861-46.128,0.861c-92.248,0-187.789,0-281.076,0c-14.339,0-32.708,2.256-45.697-0.861
				c-10.782-2.587-18.85-11.657-15.95-25.866c1.621-7.95,7.816-14.312,12.07-20.693c4.938-7.404,8.201-13.627,12.933-19.399
				c2.073-2.527,6.079-5.677,9.484-6.898c14.683-5.257,35.686,2.94,50.007-2.586c6.63-2.557,10.171-8.5,14.226-15.088
				c11.242-18.261,22.134-36.506,33.195-54.319c-8.071-19.759-11.512-44.347-9.053-68.545c2.348-23.101,10.6-43.638,19.4-59.49
				c18.878-34.01,47.572-59.363,84.064-74.15c-8.201-5.371-15.24-11.36-13.363-24.141c0.928-6.332,5.966-12.717,10.347-19.831
				c5.966-9.695,9.932-20.316,21.554-21.986c8.305-1.194,18.042,0,26.727,0c52.731,0,106.01,0,160.37,0
				c9.331,0,18.776-1.083,25.866,0.861c10.858,2.979,17.627,13.033,14.656,25.436c-1.407,5.879-5.803,11.904-9.915,18.538
				c-5.243,8.458-9.081,18.007-18.968,21.123c-15.333,4.833-37.861-2.607-51.302,2.157
				C386.087,113.761,383.913,121.055,379.122,127.847z M385.156,101.982c7.579-4.445,17.972-4.312,29.746-4.312
				c8.38,0,20.4,1.982,27.16-0.432c2.421-0.864,5.076-4.708,6.466-6.896c4.211-6.632,6.676-11.265,10.347-17.245
				c1.638-2.667,4.163-6.327,3.88-9.916c-0.603-7.633-8.429-8.622-18.968-8.622c-56.154,0-111.152,0-165.543,0
				c-9.283,0-19.339-1.044-28.021,0c-7.781,0.935-11.309,10.137-15.09,16.381c-3.606,5.958-9.474,11.679-9.051,18.107
				c0.713,10.896,15.084,8.622,27.157,8.622c8.897,0,16.128-0.485,23.279,0.862c-2.52,4.665-4.926,9.445-8.189,13.365
				c-29.418,4.095-54.29,15.807-72.855,30.607c-1.188,0.947-3.458,2.475-2.586,3.019c48.844,0.078,102.661,0.7,149.161,0.43
				c-4.875,8.779-9.985,17.321-15.52,25.436c-25.438-0.291-55.755,0.577-81.91-0.432c1.56-2.849,3.214-6.377,5.173-9.485
				c1.879-2.979,5.093-6.084,4.741-8.621c-17.405,0-35.413,0-52.593,0c-5.529,0-13.07-1.263-17.675,0
				c-3.739,1.025-9.228,9.095-11.64,12.071c-3.657,4.513-7.427,8.58-9.916,13.794c53.171,0,106.336,0,159.507,0
				c-5.261,8.534-9.873,17.717-15.952,25.435c-27.302,0-54.605,0-81.907,0c3.25-6.52,7.581-11.961,10.776-18.536
				c-25.577,0-51.156,0-76.735,0c-5.085,7.703-9.153,16.425-12.071,26.296c49.874-0.004,105.755,0.004,155.627,0
				c-5.767,9.61-11.065,19.689-17.677,28.453c-27.302,0-54.605,0-81.907,0c3.669-7.682,8.886-13.819,12.501-21.554
				c-23.71,0-47.421,0-71.131,0c-2.002,9.207-4.327,18.091-4.743,28.882c46.989,0,93.979,0,140.97,0
				c-25.407,43.549-52.477,86.087-78.459,129.763c-2.805,4.715-10.176,15.244-7.761,21.123c2.981,7.257,30.401,5.173,40.523,5.173
				c17.161,0,32.199,1.025,46.126,0c27.401-2.015,48.844-15.003,66.391-25.864c38.642-23.923,68.051-54.743,96.135-87.944
				c10.967-0.818,22.406-1.162,33.626-1.726c-31.045,48.997-61.786,98.295-93.548,146.573c-119.852,0-239.688,0-359.538,0
				c3.378-5.345,5.852-10.006,9.916-15.949c1.847-2.703,8.382-14.13,11.209-15.09c4.824-1.64,13.828,0,19.399,0
				c6.789,0,13.97,0.53,19.398,0c23.077-2.252,30.779-19.562,40.955-36.211c23.726-38.82,46.472-75.12,68.545-112.518
				c-18.107,0-36.212,0-54.319,0c0.015,21.107,4.712,37.537,10.777,52.594c-11.469,19.841-22.4,36.524-33.626,55.181
				c-7.568,12.579-15.058,29.284-33.194,31.039c-6.056,0.586-13.769,0-21.124,0c-6.639,0-15.186-1.506-21.125,0.432
				c-5.607,1.83-12.38,16.007-15.52,20.693c-3.297,4.924-13.721,14.694-11.639,23.279c2.313,9.538,27.593,6.467,40.954,6.467
				c105.385-0.002,205.032,0,309.097,0c8.582,0,18.58,1.221,23.712-0.432c5.648-1.82,10.03-12.5,13.795-18.538
				c25.312-40.601,49.929-78.654,75.443-118.553c3.471-5.428,12.298-14.43,10.776-21.986c-1.885-9.364-15.451-6.512-25.866-6.034
				c-8.41,0.386-17.195-0.236-21.986,1.293c-2.581,0.823-6.156,5.192-8.622,8.191c-28.899,35.151-59.342,65.327-100.014,87.513
				c-14.774,8.059-31.452,16.374-50.871,17.675c-23.92,1.604-50.339-0.504-75.011-0.861c3.427-7.928,7.716-14.989,12.503-21.555
				c29.188,13.401,76.965,10.474,103.462-2.156c0.133-0.063,0.586-0.274,0.863-0.43c6.853-3.911,13.363-11.641,19.83-18.106
				c16.295-16.296,29.734-33.908,39.66-55.183c2.121-4.542,5.038-8.777,4.743-12.933c-15.711,2.937-26.435,14.768-37.506,23.711
				c-11.337,9.157-22.754,18.354-34.919,26.728c-24.181,16.649-50.637,32.062-91.824,30.609c1.706-2.176,2.522-5.238,4.744-6.898
				c38.708-0.367,61.749-14.446,85.356-31.039c10.566-7.427,22.105-16.13,33.196-25.005c13.035-10.432,23.435-25.101,44.401-25.002
				c1.479-6.427,3.721-12.087,4.312-19.399c-35.496,0-70.989,0-106.483,0c1.503-2.378,2.32-5.442,4.743-6.899
				c34.488,0.002,69.128,0.152,103.033-0.432c1.096-7.237,0.865-15.803,0.861-24.141c-24.732-0.468-41.519-10.727-55.612-21.555
				c-4.823-3.705-10.502-6.801-13.794-12.071c1.359-1.369,2.373-3.085,3.018-5.173c18.279,13.78,35.408,30.961,65.527,31.471
				c-4.289-34.655-18.488-59.397-34.058-82.771C370.389,122.527,371.72,109.86,385.156,101.982z M401.97,216.223
				c2.457-1.89,7.499-2.761,8.191-6.035c0.859-4.068-3.049-12.823-4.743-17.676c-5.797-16.611-15.67-32.671-26.728-42.679
				C389.421,168.995,397.996,190.306,401.97,216.223z M402.401,223.122c0.504,9.03,0.036,16.912-0.432,25.864
				c3.306,0,6.611,0,9.915,0c1.241-9.365,1.211-21.286-0.431-30.176C408.758,220.567,406.185,222.45,402.401,223.122z
				 M395.935,277.438c2.693,2.051,5.24,4.245,7.76,6.467c2.932-8.707,5.658-17.619,7.328-27.589c-3.448,0-6.898,0-10.346,0
				C399.64,263.901,397.645,270.527,395.935,277.438z M390.762,310.203c2.06-3.268,9.291-14.267,9.053-18.106
				c-0.195-3.146-3.712-5.738-6.466-7.328c-8.913,22.589-21.603,43.552-36.213,59.922c-1.969,2.204-5.853,4.524-5.173,6.898
				C365.474,341.258,380.548,326.401,390.762,310.203z"/>
			<path fill-rule="evenodd" clip-rule="evenodd" d="M251.517,64.476c66.819,0,133.64,0,200.46,0
				c-4.197,8.303-9.125,15.878-14.227,23.281c-28.542-0.713-52.215-1.746-65.956,12.069c-10.78,10.837-15.144,25.912-25.005,38.368
				c-27.159,0-54.318,0-81.479,0c-0.183-3.11,2.996-6.328,5.174-9.915c1.97-3.247,3.852-6.853,6.034-10.346
				c3.765-6.02,11.637-15.004,10.347-22.848c-1.166-7.106-12.931-7.283-21.555-7.328c-10.273-0.055-19.287,0.042-28.452,0
				C241.465,79.717,245.841,71.447,251.517,64.476z"/>
		</g>
	</g>
</g>
</svg>
