<?xml version="1.0" encoding="utf-8"?>
<!-- Generator: Adobe Illustrator 15.0.2, SVG Export Plug-In . SVG Version: 6.00 Build 0)  -->
<!DOCTYPE svg PUBLIC "-//W3C//DTD SVG 1.1//EN" "http://www.w3.org/Graphics/SVG/1.1/DTD/svg11.dtd">
<svg version="1.1" id="Layer_1" xmlns="http://www.w3.org/2000/svg" xmlns:xlink="http://www.w3.org/1999/xlink" x="0px" y="0px"
	 width="500px" height="500px" viewBox="0 0 500 500" enable-background="new 0 0 500 500" xml:space="preserve">
<g id="UWs7Sz_1_">
	<g>
		<g>
			<path fill-rule="evenodd" clip-rule="evenodd" d="M106.198,76.713c-5.599-6.801-15.597-9.201-27.218-9.979
				c15.736-17.891,43.218-0.945,52.62,11.794c-22.432,7.81-38.928,21.557-55.342,35.383c0.231-12.771,7.099-18.908,14.516-24.496
				c-2.117-5.792-13.245-3.479-18.146-1.814C76.479,76.258,93.297,71.026,106.198,76.713z"/>
			<path fill-rule="evenodd" clip-rule="evenodd" d="M96.218,19.556c2.42,0,4.839,0,7.259,0
				c24.194,2.115,37.136,15.484,49.899,29.032c22.256-3.917,43.215-2.728,65.322,1.814c11.212,2.304,23.744,9.992,32.661,9.979
				c8.916-0.012,21.668-7.677,32.664-9.979c22.19-4.646,42.574-5.55,67.137-1.814c9.74-15.059,23.636-25.961,45.363-29.032
				c3.931,0,7.863,0,11.795,0c36.452,3.604,73.368,38.361,60.786,82.561c-1.978,6.948-6.34,12.04-9.073,20.867
				c17.667,25.579,32.521,53.971,37.198,92.54c0,7.562,0,15.121,0,22.682c-3.232,23.683-9.095,44.737-21.774,58.972
				c-1.237-3.226-5.026-12.806-6.351-9.978c-10.58,55.347-41.133,95.561-84.375,115.221c0-5.443,0-10.887,0-16.33
				c-30.676,41.06-96.667,54.577-132.463,94.354c-0.303,0-0.604,0-0.907,0c-33.331-40.459-94.05-53.53-128.831-92.541
				c-1.031,4.716-0.334,11.16-3.629,13.61c-40.523-26.614-72.985-61.289-88.004-113.408c-4.554,2.099-6.634,6.673-10.888,9.071
				c-9.349-16.051-15.282-35.522-17.237-58.972c0-3.932,0-7.862,0-11.794c3.581-45.107,20.704-76.676,40.826-105.242
				C13.215,79.882,48.098,21.285,96.218,19.556z M304.891,181.955c21.607-16.134,50.929-24.368,86.189-14.516
				c0.754-2.244-3.208-3.405-5.443-4.537c-21.988-11.123-54.228-12.792-77.118-0.907c4.305-16.043,8.81-35.687,20.867-45.362
				c12.514-10.041,29.177-13.624,37.197-26.311c2.663-4.211,3.133-9.6,5.444-13.609c10.457-18.144,33.168-28.326,58.064-26.311
				c-30.002-14.801-60.785,3.563-70.766,25.403c-22.071-10.258-56.712-7.859-79.84-1.814c-10.103,2.641-20.353,8.941-28.127,9.072
				c-8.903,0.15-20.809-5.995-31.754-8.165c-22.925-4.544-52.75-6.686-74.396-0.907C132.81,49.712,94.423,29.346,69,53.124
				c-17.41,16.285-12.232,48.917-0.907,68.952c-28.125,30.881-54.171,81.708-39.919,140.625c5.569,0.892,8.988-12.676,13.608-12.701
				c12.989,45.681,27.999,89.341,64.416,111.594c0.811-6.75,1.206-13.915,2.722-19.96c19.801,20.611,40.615,42.223,65.322,59.88
				c21.245,15.18,49.074,25.017,68.952,39.919c3.201,2.399,7.301,5.823,8.165,4.535c0-12.095,0-24.192,0-36.29
				c-18.295-0.016-38.567-1.563-48.085-11.795c-7.713-8.289-12.905-25.05-18.145-38.104
				c-15.294-38.101-28.828-97.191-14.517-144.255c-15.666-6.41-23.836-20.317-25.403-40.826c-9.625-4.589-22.732-5.694-35.383-7.258
				c36.689-8.729,68.337-2.584,89.818,13.608c13.674,10.308,28.054,33.442,45.363,20.867c2.354-30.913,3.568-62.963,7.258-92.541
				c2.521,30.444,4.459,61.47,6.351,92.541C275.388,213.404,291.873,191.675,304.891,181.955z M199.646,213.709
				c-20.369,47.495-13.336,124.288,6.351,166.938c13.793-3.446,28.028-6.449,45.363-6.352c3.693-16.542-4.002-25.697-9.979-32.661
				c-9.977-11.622-14.474-14.438-20.867,0c-5.75-6.585-12.662-15.066-9.98-25.403c3.644-14.039,28.561-11.681,40.827-14.517
				c-2.116-24.799-0.303-53.528-0.907-79.84c-43.043-0.807-50.377-37.324-88.911-42.641
				C165.535,199.433,174.659,214.503,199.646,213.709z M303.075,377.017c26.838-37.631,26.184-119.355,8.166-163.308
				c20.089-1.987,28.562-15.59,32.66-33.568c-28.145,3.004-40.648,21.65-58.971,34.476c4.536,0,9.072,0,13.608,0
				C321.791,255.286,319.51,333.689,303.075,377.017z M287.652,336.19c20.539-17.222-2.225-36.567-23.589-31.755
				C285.786,301.955,297.997,323.63,287.652,336.19z M209.626,388.812c1.783,7.727,14.129,9.286,24.496,9.98
				c20.826,1.396,52.257,2.585,58.974-9.98C270.598,383.351,232.134,383.413,209.626,388.812z"/>
		</g>
	</g>
</g>
</svg>
