<?xml version="1.0" encoding="utf-8"?>
<!-- Generator: Adobe Illustrator 15.0.2, SVG Export Plug-In . SVG Version: 6.00 Build 0)  -->
<!DOCTYPE svg PUBLIC "-//W3C//DTD SVG 1.1//EN" "http://www.w3.org/Graphics/SVG/1.1/DTD/svg11.dtd">
<svg version="1.1" id="Layer_1" xmlns="http://www.w3.org/2000/svg" xmlns:xlink="http://www.w3.org/1999/xlink" x="0px" y="0px"
	 width="500px" height="500px" viewBox="0 0 500 500" enable-background="new 0 0 500 500" xml:space="preserve">
<g>
	<path fill-rule="evenodd" clip-rule="evenodd" d="M376.346,0.984c1.452,5.061-5.362,11.603-6.32,18.957
		c-2.09,16.056,6.214,29.583,1.807,46.038c-6.707,25.042-39.219,33.594-51.454,54.163c-7.297,12.265-11.257,27.204-12.639,45.136
		c-1.284,16.671,2.369,37.02-0.902,59.579c-2.154,14.848-8.1,23.368-12.639,39.721c-21.978,38.202-65.215,55.146-99.298,81.243
		c-10.864,12.166-23.573,30.124-24.374,52.357c-0.574,15.936,5.793,30.28,9.93,44.232c-7.522,0-15.044,0-22.568,0
		c-20.551-36.776-25.967-84.038-18.054-123.672c5.674-28.413,25.875-50.117,46.941-64.995c20.125-14.212,68.481-15.611,73.12-43.331
		c3.558-21.258-15.377-29.896-12.638-46.94c1.582-9.841,12.935-16.687,22.568-20.763c-1.52,6.348-4.286,26.609,13.541,26.179
		c9.754-0.235,12.043-7.08,12.638-12.638c2.026-18.963-12.103-22.925-9.93-46.038c0.427-4.537,2.313-12.144,4.514-17.152
		c7.233-16.473,24.703-30.54,41.524-34.303c14.198-3.176,29.874-2.472,31.595-17.151c1.21-10.323-7.954-16.577-4.514-27.984
		C360.971,7.734,369.75,2.009,376.346,0.984z"/>
	<path fill-rule="evenodd" clip-rule="evenodd" d="M421.481,56.952c7.655,3.779,9.959,12.909,9.027,25.276
		c-4.845,6.29-15.1,7.167-21.666,11.736c-11.173,14.215-12.423,39.06-9.027,63.189c-11.372,4.847-31.825,8.071-33.399,21.666
		c-0.55,4.743,1.139,9.933,5.416,12.638c15.552,1.966,11.55-20.285,25.275-17.151c0.923,5.987-2.773,4.463-6.318,7.222
		c-4.517,15.803-1.372,28.593-9.027,37.011c-5.217,5.736-14.571,6.451-22.568,9.93c-11.209,4.876-17.463,15.403-22.567,26.179
		c-2.53-16.029,2.991-39.704,4.514-56.872c6.826-9.209,9.833-19.816,17.151-28.887c12.707-15.751,31.745-21.754,35.206-48.747
		c0.892-6.959-0.818-14.109,0.902-21.665c2.843-12.48,14.379-18.558,23.471-26.179C419.76,67.206,421.903,61.947,421.481,56.952z"/>
	<path fill-rule="evenodd" clip-rule="evenodd" d="M389.886,57.855c1.049-0.147,1.606,0.199,1.806,0.902
		c1.304,26.257-4.29,44.639-13.541,59.579c-4.825,7.793-10.266,15.217-17.15,22.568c-11.54,12.321-24.522,26.947-28.888,47.844
		c-5.839,27.957-1.65,62.646-4.514,94.785c-1.816,20.388-9.52,42.343-18.055,61.385c-12.688,28.311-28.278,45.116-49.648,62.287
		c-1.536,1.234-1.963,2.564-4.514,4.514c-15.273,11.672-38.49,25.103-64.092,26.178c-4.674-7.688-8.939-16.091-9.93-26.178
		c-2.266-23.068,9.763-43.396,19.859-55.969c24.878-20.494,53.041-34.781,74.925-56.871c23.812-24.036,44.302-59.223,46.94-105.617
		c0.925-16.259-2.561-36.316,1.806-53.26c3.413-13.244,13.259-23.252,18.957-36.108c3.8-3.422,8.336-6.108,10.832-10.833
		C374.093,92.314,383.618,74.674,389.886,57.855z"/>
	<path fill-rule="evenodd" clip-rule="evenodd" d="M240.938,169.791c1.912,18.13,7.334,39.421-4.513,53.26
		c-9.339,10.91-28.544,13.429-43.331,20.762c-11.005,5.458-20.52,12.661-27.984,18.957c-9.65,8.141-14.153,17.185-21.665,25.276
		c-0.97,4.747-2.633,8.802-6.319,10.832c-14.394,31.296-13.458,79.104-2.708,113.742c4.583,8.406,9.572,21.053,10.833,29.789
		c-1.73-2.916-7.158,0.533-10.833-1.805c-5.125-13.13-12.025-24.777-19.86-36.109c-13.662-19.762-26.184-37.506-28.886-69.508
		c-1.614-19.108,1.251-30.741,9.93-42.428c3.863-5.203,9.069-12.184,12.638-15.347c25.945-23.001,67.009-35.434,101.104-49.649
		c8.216-7.794,18.865-12.093,23.47-24.373C236.61,193.07,235.686,180.5,240.938,169.791z"/>
	<path fill-rule="evenodd" clip-rule="evenodd" d="M372.734,260.966c-16.383,9.197-30.551,24.545-33.4,47.843
		c-0.824,6.747,0.358,13.793,0,20.763c-1.335,26.021-6.427,51.028-12.638,71.314c-14.211,30.257-45.701,55.436-86.661,57.773
		c-13.58,0.774-25.888-2.137-35.206-8.124c22.38-9.533,50.349-21.01,67.703-36.109c33.46-29.11,53.383-74.01,61.385-131.796
		C340.616,269.984,355.474,257.182,372.734,260.966z"/>
	<path fill-rule="evenodd" clip-rule="evenodd" d="M77.547,327.766c1.863,8.748,1.519,22.217,3.611,32.498
		c6.307,30.987,31.337,50.227,39.719,75.828c-26.036-8.269-39.27-29.336-51.455-51.455
		C68.894,362.554,69.727,345.112,77.547,327.766z"/>
	<path fill-rule="evenodd" clip-rule="evenodd" d="M77.547,413.523c0.903,0,1.806,0,2.708,0c2.344,4.276,2.977,10.264,9.027,10.832
		c7.119,16.052,27.288,19.053,41.525,27.984c2.94,9.998,8.188,17.69,8.124,30.692c-6.192,0.474-6.994-4.439-12.638-4.514
		C106.386,461.108,84.238,441.146,77.547,413.523z"/>
	<path fill-rule="evenodd" clip-rule="evenodd" d="M300.518,445.119c1.059,0.145,0.762,1.646,0.902,2.707
		c-4.752,4.797-9.265,9.765-14.443,15.347c-4.752,5.123-11.546,9.715-18.055,14.443c-9.398,6.829-18.841,9.501-36.108,8.125
		c-25.635-2.045-48.588-15.579-63.189-28.888c4.443-3.68,14.333-1.915,20.762-3.61C219.287,475.171,278.655,469.078,300.518,445.119
		z"/>
	<path fill-rule="evenodd" clip-rule="evenodd" d="M142.543,454.146c2.967,1.848,9.141,0.488,13.541,0.902
		c15.344,21.065,38.092,34.728,70.411,38.817c-10,5.034-26.855,6.002-42.427,4.514c-14.314-1.369-28.726-5.906-37.011-10.833
		C148.91,476.274,144.326,464.683,142.543,454.146z"/>
</g>
</svg>
