<?xml version="1.0" encoding="utf-8"?>
<!-- Generator: Adobe Illustrator 15.0.2, SVG Export Plug-In . SVG Version: 6.00 Build 0)  -->
<!DOCTYPE svg PUBLIC "-//W3C//DTD SVG 1.1//EN" "http://www.w3.org/Graphics/SVG/1.1/DTD/svg11.dtd">
<svg version="1.1" id="Layer_1" xmlns="http://www.w3.org/2000/svg" xmlns:xlink="http://www.w3.org/1999/xlink" x="0px" y="0px"
	 width="500px" height="500px" viewBox="0 0 500 500" enable-background="new 0 0 500 500" xml:space="preserve">
<g>
	<g>
		<path fill-rule="evenodd" clip-rule="evenodd" d="M233.788,3.892c78.394-5.797,143.069,26.556,183.616,63.38
			c40.077,36.397,76.214,95.41,79.225,166.838c3.523,83.586-25.064,137.833-64.312,181.75
			c-39.511,44.212-92.45,74.299-165.906,80.157c-76.542,6.104-139.142-25.097-181.751-63.38
			C41.884,394.205,7.688,340.08,3.57,267.664C-1.278,182.419,30.444,127.225,66.95,84.981
			c18.559-21.475,40.361-38.972,68.972-54.059C163.632,16.31,196.397,6.657,233.788,3.892z M152.699,41.174
			c16.625,18.794,33.399,37.437,43.807,62.448c15.137-1.952,29.92-4.255,47.535-3.728c0-27.03,0-54.06,0-81.089
			C206.566,19.234,179.029,29.601,152.699,41.174z M256.157,19.737c0.667,22.742-1.271,55.874,0.933,80.157
			c17.26-0.483,31.721,1.833,46.603,3.728c6.034-11.788,12.599-23.05,20.505-33.554c7.849-10.425,17.291-19.232,23.302-28.894
			C321.618,30.083,291.876,17.884,256.157,19.737z M142.446,46.767C92.402,77.19,56.188,121.443,38.988,184.711
			c3.737,1.909,5.653-4.453,8.389-7.457c32.213-35.376,81.053-58.191,136.08-71.768C172.821,82.879,161.039,61.417,142.446,46.767z
			 M357.752,47.699c-16.153,13.053-31.182,35.304-40.079,58.719c57.645,11.596,104.159,39.084,137.013,74.564
			c1.467,1.585,3.85,5.465,6.524,4.661C444.35,122.035,408.936,76.982,357.752,47.699z M201.166,112.942
			c7.223,25.393,12.181,52.838,10.252,83.885c-5.488,88.339-50.072,156.62-86.681,214.373
			c33.143,23.68,81.972,43.672,139.809,40.078c44.525-2.766,82.354-20.464,109.982-39.146
			c-25.072-38.045-49.804-81.073-67.107-130.487c-16.064-45.875-28.494-115.46-7.457-167.77c-13.29-2.865-27.44-4.87-43.807-4.66
			c0,46.207,0,99.764,0,146.333c0,15.615,3.318,33.065-6.524,42.875c-8.32-10.763-5.592-27.704-5.592-42.875
			c0-48.337,0-100.115,0-146.333C227.824,108.532,215.291,111.533,201.166,112.942z M41.784,271.392
			c-0.148,46.097,21.2,77.008,45.671,104.391c28.636-30.123,57.477-65.783,78.292-107.187
			c19.674-39.132,37.896-95.127,21.438-150.993c-0.053-0.568-0.139-1.104-0.932-0.932
			C119.476,134.118,42.049,189.145,41.784,271.392z M306.488,164.206c0,93.858,62.519,159.818,105.322,212.508
			c25.808-27.486,48.869-62.222,45.671-113.71c-2.564-41.276-24.224-71.34-48.467-95.07c-25.232-24.699-59.103-41.461-94.138-50.331
			C309.354,126.116,306.488,150.895,306.488,164.206z"/>
		<path fill-rule="evenodd" clip-rule="evenodd" d="M219.807,264.867c10.408,18.176,19.433,37.733,30.758,54.991
			c10.728-17.854,19.822-37.344,30.758-54.991c2.796,0,5.592,0,8.389,0c8.06,40.407,21.722,75.212,37.282,108.119
			c-20.74,22.755-43.426,43.567-66.177,64.312c6.717-32.74,12.723-66.192,19.573-98.798c-11.211,13.333-19.706,29.382-29.826,43.807
			c-10.923-13.622-19.227-29.862-29.826-43.807c4.912,30.507,12.374,66.539,18.641,98.798
			c-23.118-20.066-44.068-42.302-66.176-63.38c15.163-33.926,28.791-69.386,38.214-109.051
			C214.215,264.867,217.011,264.867,219.807,264.867z"/>
	</g>
</g>
</svg>
