<?xml version="1.0" encoding="utf-8"?>
<!-- Generator: Adobe Illustrator 15.0.2, SVG Export Plug-In . SVG Version: 6.00 Build 0)  -->
<!DOCTYPE svg PUBLIC "-//W3C//DTD SVG 1.1//EN" "http://www.w3.org/Graphics/SVG/1.1/DTD/svg11.dtd">
<svg version="1.1" id="Layer_1" xmlns="http://www.w3.org/2000/svg" xmlns:xlink="http://www.w3.org/1999/xlink" x="0px" y="0px"
	 width="500px" height="500px" viewBox="0 0 500 500" enable-background="new 0 0 500 500" xml:space="preserve">
<g>
	<g>
		<path fill-rule="evenodd" clip-rule="evenodd" d="M147.001,186.682c10.016,6.19,20.301,13.729,32.167,20.47
			c17.689,10.05,36.603,18.734,44.595,38.747c-7.139-2.954-12.026-8.684-20.47-8.772c-8.046-0.084-9.846,4.023-16.083,4.386
			c-15.248,0.888-26.182-6.663-28.511-19.739c-0.693-3.889,1.173-8.819,0-13.891C156.926,200.222,148.672,197.317,147.001,186.682z
			 M193.79,225.429c-4.426-4.411-21.572,3.425-18.277-10.235c-2.607-0.804-3.714-3.11-6.58-3.655
			C162.407,229.337,187.701,241.276,193.79,225.429z"/>
		<path fill-rule="evenodd" clip-rule="evenodd" d="M454.05,1.723c13.95,16.292,4.988,45.772-0.731,67.258
			c-6.031,22.658-14.748,44.709-22.663,62.872c15.02,9.593,26.814,22.411,33.629,40.208c-9.315-2.623-18.889-5.646-29.243-3.655
			c14.121,14.879,33.908,30.428,39.479,56.292c-11.382-3.971-22.492-8.212-38.746-7.311c7.252,9.796,17.537,19.144,25.587,31.436
			c7.766,11.86,14.032,25.261,15.353,42.402c1.734,22.521-2.12,43.715-8.042,62.141c-9.922-15.178-18.765-31.436-39.478-35.822
			c3.164,33.098-2.177,63.471-16.083,81.879c-5.195-12.595-11.503-24.075-22.663-30.705c-2.449,23.382-8.527,43.136-20.471,57.023
			c-4.623-10.484-7.96-22.256-16.813-28.511c-8.391,18.659-16.457,37.642-31.437,49.712c-3.156-10.003-8.41-17.908-15.353-24.125
			c-8.279,22.435-9.272,47.598-21.932,62.871c-13.324,16.074-55.5,16.434-71.645,2.925c-15.449-12.926-15.354-40.862-24.125-62.872
			c-5.182,3.108-10.496,12.407-13.159,20.471c-13.907-9.741-24.105-29.498-30.705-48.981c-9.412,5.453-12.962,16.768-16.815,27.78
			c-13.232-12.354-19.184-31.99-20.47-56.293c-12.051,5.982-18.337,17.729-23.394,30.705
			c-14.316-17.999-19.066-48.964-16.083-81.879c-20.25,5.094-29.442,21.245-40.208,35.822
			c-14.047-55.05,2.88-112.151,35.822-135.979c-14.537-0.159-28.958-0.203-38.746,4.387c3.309-10.626,12.444-19.024,20.469-27.05
			c8.14-8.139,16.836-16.658,27.781-21.201c-7.649-3.073-19.128-2.316-29.243-2.924c9.681-17.125,24.873-28.739,40.939-39.478
			C73.928,101.386,60.339,64.369,57.812,27.31c-0.533-7.808-0.896-17.221,4.386-21.201c12.952-0.484,21.699,9.479,30.705,15.353
			c27.64,18.025,55.084,35.722,88.458,48.981c0.369-9.632-2.242-22.611-5.117-31.435c18.52,5.118,33.363,13.912,45.326,25.587
			c1.325-5.254,0.512-12.646,0.73-19.008c13.052,7.663,26.054,15.372,35.823,26.318c1.291-6.383,2.389-15.625,2.193-21.201
			c14.047,4.229,21.805,14.749,27.049,27.781c7.338-11.184,14.124-22.917,24.126-31.436c2.47,10.445,2.788,23.042,8.042,30.705
			C375.85,63.889,407.185,25.039,454.05,1.723z M281.519,433.051c-1.342,17.421-9.586,28.945-28.512,29.243
			c-10.41,0.164-25.088-3.21-30.706-9.504c-5.963-6.683-3.694-20.723-4.386-32.897c-2.182-38.362-26.934-68.012-29.974-99.426
			c-1.721-17.782,6.323-31.491,13.159-36.553c10.346-7.659,26.61-1.649,30.704,8.772c-4.977-3.549-13.041-6.259-21.2-4.386
			c-16.038,18.2-2.81,56.195,19.007,56.292c-3.244-6.584-11.462-12.001-10.966-21.201c0.745-13.791,19.48-19.272,30.704-10.234
			c-1.139-27.372-7.185-49.839-36.553-48.981c4.814-7.425,17.603-8.071,26.319-4.387c4.642,1.962,6.766,6.65,9.503,5.848
			c-1.472-15.098-8.445-24.696-15.353-34.359c15.289-1.034,7.194-18.661,0.731-23.395c-6.119-4.481-16.081-8.043-24.125-13.159
			c-8.89-5.652-16.734-10.595-19.739-16.814c13.04,2.918,33.821,3.994,42.402-3.655c-8.148-2.82-16.944-8.883-19.739-14.621
			c35.782,3.69,46.261-31.587,41.67-67.258c-0.732-5.697-7.373-12.125-10.234-15.352c-3.376-3.808-7.539-9.812-10.967-8.773
			c-1.585,7.919-1.881,17.126-5.118,23.395c-9.629-12.303-17.977-25.886-35.09-30.705c1.16,7.423,1.16,18.895,0,26.318
			C143.771,74.405,108.73,47.305,70.971,22.923C66.002,38.912,73.41,58,78.282,77.022c1.977,7.72,4.993,15.376,8.042,24.856
			c2.581,8.025,5.069,27.521,14.622,22.663c-0.649-22.143-8.065-44.558-2.193-65.064c9.976,7.083,21.018,13.099,29.974,21.201
			c-3.257,3.81-9.741,4.393-11.697,9.504c11.683,6.837,29.764,7.277,39.478,16.083c-11.809,6.224-29.178,6.887-38.746,15.353
			c2.022,4.8,11.243,2.403,12.428,8.042c-28.015,4.152-50.871,13.463-62.872,33.629c10.901-1.271,25.646-1.057,34.36,2.193
			c-14.021,6.169-27.947,16.25-38.015,26.318c-3.316,3.316-9.087,8.111-8.042,10.966c10.558,1.869,25.21-0.354,33.629,3.655
			c-29.826,25.256-56.295,57.738-54.099,112.583c10.172-7.794,28.964-20.506,50.444-14.621c-9.298,16.189-6.638,48.293,2.193,62.872
			c7.017-12.723,16.139-23.339,32.167-27.05c-0.39,21.591,0.064,42.339,8.042,55.561c4.375-10.733,9.418-20.799,20.47-24.855
			c4.624,20.476,14.676,35.523,23.394,51.905c6.908-7.226,13-15.269,20.47-21.932c-1.486-13.625-9.84-24.273-6.58-40.209
			c5.353,12.47,16.498,27.347,20.47,46.057c4.459,21,1.61,41.821,10.965,55.562c11.126,16.341,46.621,19.23,61.41,2.925
			c13.645-15.045,10.415-43.314,12.428-69.452c1.021-13.248,5.685-24.215,7.311-34.36
			C284.242,380.604,283.722,404.443,281.519,433.051z M324.65,169.137c-8.017,3.924-15.877,8.003-21.932,13.89
			c-0.767-3.132-2.485-5.312-2.192-9.504c-6.278,2.744-9.583,12.133-13.16,19.739c-3.647,7.757-8.297,16.687-8.041,24.856
			c11.275-19.429,33.895-27.515,54.83-37.285c-3.348-1.671-9.107-4.343-13.891-2.193
			C321.462,175.208,323.117,172.233,324.65,169.137z M322.458,214.463c3.992,18.067-19.117,3.345-19.008,12.428
			c0.023,1.892,7.729,6.532,10.967,6.58c7.913,0.116,18.461-10.7,14.62-21.932C325.567,211.237,325.462,214.299,322.458,214.463z
			 M221.571,378.222c-3.252-11.288,2.116-18.983,8.041-23.394C218.617,336.839,209.185,372.478,221.571,378.222z M269.09,356.289
			c7.673,2.205,10.357,12.027,8.042,21.933c8.448-4.585,6.535-23.164,0.731-29.243C271.912,348.389,270.178,352.017,269.09,356.289z
			 M231.074,357.021c-0.103,4.246,1.313,6.972,2.924,9.504c3.293-0.118,2.299-4.524,5.849-4.386
			c1.087,2.811,2.816,4.981,5.117,6.578c1.056-2.6,2.962-4.349,5.118-5.848c0.505,2.906,3.215,3.607,4.386,5.848
			c2.367-2.02,3-5.772,6.58-6.578c1.089,1.834,1.822,4.026,3.655,5.117c1.281-3.35,3.622-5.639,2.925-10.967
			c-4.802-0.658-7.44,0.846-9.504,2.925c-5.646-1.714-12.359-1.644-18.277,0C239.149,356.473,233.908,355.292,231.074,357.021z
			 M231.074,448.403c2.822-1.278,3.923-7.496,2.193-10.966c-6.628-0.438-6.227-7.907-7.311-13.89
			C220.778,430.145,222.08,449.817,231.074,448.403z M265.435,438.169c-0.681,5.555,0.873,8.874,3.655,10.966
			c9.269-2.147,10.045-19.75,3.655-25.587C274.042,432.156,271.205,436.629,265.435,438.169z M239.847,454.983
			c7.835-0.16,13.419-1.274,19.739,0c2.547-1.612,4.234-7.929,2.193-11.697c-1.227,2.674-1.644,6.156-5.117,6.58
			c-2.237-0.932-2.149-4.187-4.387-5.118c-0.56,2.121-1.157,4.205-2.925,5.118c-0.559-2.121-1.155-4.205-2.923-5.118
			c-1.424,1.5-1.021,4.828-3.655,5.118c-3.52-0.625-3.628-4.658-5.118-7.311C235.643,446.747,237.475,452.799,239.847,454.983z"/>
	</g>
</g>
</svg>
