<?xml version="1.0" encoding="utf-8"?>
<!-- Generator: Adobe Illustrator 15.0.2, SVG Export Plug-In . SVG Version: 6.00 Build 0)  -->
<!DOCTYPE svg PUBLIC "-//W3C//DTD SVG 1.1//EN" "http://www.w3.org/Graphics/SVG/1.1/DTD/svg11.dtd">
<svg version="1.1" id="Layer_1" xmlns="http://www.w3.org/2000/svg" xmlns:xlink="http://www.w3.org/1999/xlink" x="0px" y="0px"
	 width="500px" height="500px" viewBox="0 0 500 500" enable-background="new 0 0 500 500" xml:space="preserve">
<g id="tbThMw_1_">
	<g>
		<path fill-rule="evenodd" clip-rule="evenodd" d="M246.999,3.504c2.254,0,4.508,0,6.762,0c7.503,2.639,13.604,6.682,14.876,15.552
			c56.815,5.167,97.637,26.329,131.178,54.77c17.073-12.162,39.023,8.761,27.046,25.694c26.421,34.886,48.948,73.665,53.418,130.502
			c3.292,3.243,9.192,3.88,12.171,7.437c5.001,5.197,5.342,18.466,0.677,24.343c-3.293,3.468-7.743,5.781-12.848,7.438
			c-4.435,56.87-26.23,96.382-53.418,130.501c11.922,16.929-9.226,38.859-26.37,26.371c-33.895,27.862-73.869,49.646-130.501,54.771
			c-3.298,10.458-15.271,19.952-29.076,13.523c-4.354-3.31-7.908-7.42-9.466-13.523c-57.296-4.237-97.054-26.011-131.177-53.419
			c-17.53,9.439-37.155-8.478-27.047-26.369c-27.699-34.51-49.831-74.586-54.77-131.854c-7.257-3.562-13.405-8.232-14.876-17.58
			c0-1.127,0-2.253,0-3.38c1.218-9.827,8.572-13.517,14.876-18.256c5.23-56.752,27.223-96.742,54.77-131.178
			c-10.284-16.464,9.163-36.098,25.695-25.694c34.726-27.256,74.575-49.389,131.853-54.094
			C234.128,11.82,238.304,5.402,246.999,3.504z M125.964,100.873c31.355,33.331,63.534,65.839,96.016,98.044
			c14.88,17.351,32.492,31.97,47.332,49.361c12.55,11.793,24.489,24.196,36.514,36.513c1.746,2.311,3.773,4.34,6.086,6.086
			c0.457,1.569,2.247,1.81,2.705,3.38c0.854,0.781,3.585,2.373,2.027,0c-8.588-36.398-4.186-83.201,6.762-113.596
			c11.838-31.438,29.006-57.544,50.037-79.788c-28.196-22.29-61.438-39.536-107.511-43.951c0,46.431,0,92.86,0,139.291
			c-11.556-10.308-23.154-20.572-32.457-33.132c-0.863-32.89,1.744-75.864-1.352-106.159
			C186.993,61.828,153.388,78.258,125.964,100.873z M101.623,124.538c-22.529,28.411-41.935,63.546-44.627,109.54
			c32.007-0.449,65.811,0.898,96.692-0.677C147.888,185.558,129.013,150.792,101.623,124.538z M397.108,125.214
			c-26.115,24.598-46.606,60.677-51.388,108.864c32.229,0,64.462,0,96.691,0C438.458,186.644,420.853,152.86,397.108,125.214z
			 M183.439,207.031c-0.037-0.711-0.867-0.532-0.676,0.676c16.938,81.377-17.492,151.62-57.475,191.355
			c28.583,22.132,61.367,40.061,108.188,43.952c0-45.98,0-91.96,0-137.938c10.628,11.686,23.097,21.53,32.457,34.483
			c0,34.484,0,68.97,0,103.455c45.514-4.523,79.739-20.333,106.158-43.952C309.187,335.07,246.391,270.975,183.439,207.031z
			 M56.319,266.534c4.716,46.672,22.317,80.46,45.303,108.863c27.568-26.075,46.641-60.644,52.065-108.863
			C121.232,266.534,88.774,266.534,56.319,266.534z M346.396,266.534c3.22,47.494,23.95,83.336,51.389,108.863
			c22.296-28.866,40.853-61.475,44.627-108.863C410.407,266.534,378.402,266.534,346.396,266.534z"/>
	</g>
</g>
</svg>
