<?xml version="1.0" encoding="utf-8"?>
<!-- Generator: Adobe Illustrator 15.0.2, SVG Export Plug-In . SVG Version: 6.00 Build 0)  -->
<!DOCTYPE svg PUBLIC "-//W3C//DTD SVG 1.1//EN" "http://www.w3.org/Graphics/SVG/1.1/DTD/svg11.dtd">
<svg version="1.1" id="Layer_1" xmlns="http://www.w3.org/2000/svg" xmlns:xlink="http://www.w3.org/1999/xlink" x="0px" y="0px"
	 width="500px" height="500px" viewBox="0 0 500 500" enable-background="new 0 0 500 500" xml:space="preserve">
<g id="yYoj4w_1_">
	<g>
		<g>
			<path fill-rule="evenodd" clip-rule="evenodd" d="M249.224,2.503c75.892-0.577,133.088,29.9,174.567,71.378
				c36.975,36.975,73.707,92.55,73.707,173.792c0,79.449-29.449,132.59-71.38,176.119c-39.014,40.5-97.547,73.297-173.791,73.707
				c-77.935,0.418-133.79-30.607-176.119-71.381c-40.986-39.479-73.706-98.25-73.706-173.791
				c0-79.097,32.525-137.265,71.379-176.119C113.729,36.362,167.728,3.124,249.224,2.503z M373.36,64.572
				c-35.529-23.693-80.85-41.005-139.653-37.242C140.314,33.309,79.892,91.596,45.949,160.002c2.787,0.979,5.642-2.776,8.535-4.655
				c10.088-6.551,21.568-12.828,31.81-17.844c50.979-26.58,118.753-42.259,193.964-36.465
				c71.619,5.517,129.118,29.303,173.793,59.741C436.603,120.091,409.205,88.476,373.36,64.572z M51.38,191.812
				c-12.135,14.563-25.065,35.908-24.826,58.189c0.239,22.391,14.2,44.831,27.154,59.741c40.322,46.41,115.07,65.172,196.292,65.172
				c83.367,0,155.101-19.398,195.515-65.172c12.539-14.201,27.29-37.439,27.157-60.517c-0.134-22.618-15.183-46.736-28.709-61.292
				c-43.242-46.542-120.185-65.508-208.704-61.292C151.763,130.616,90.416,144.97,51.38,191.812z M123.535,433.105
				c33.513,22.977,75.135,39.564,127.24,39.564c52.313,0,92.859-17.463,126.465-40.344c33.565-22.855,58.52-52.98,76.034-91.549
				c-49.141,32.559-118.062,60.516-201.724,60.516c-84.774,0-153.219-26.111-204.049-60.516c-0.045-0.475-0.116-0.92-0.776-0.775
				C63.114,378.389,90.796,410.654,123.535,433.105z"/>
			<path fill-rule="evenodd" clip-rule="evenodd" d="M257.759,144.485c11.216-0.096,21.501,0.74,31.81,1.551
				c0,9.57,0,19.138,0,28.707c-7.632-1.679-18.748,0.127-26.38-1.551c-1.809,49.655-0.258,102.671-0.775,153.619
				c8.951-0.617,18.733-0.404,27.155-1.551c0,10.604,0,21.207,0,31.809c-9.896,0.967-19.974,1.75-31.034,1.553
				c-7.526-6.957-11.78-17.184-17.845-25.604c0-54.826,0-109.654,0-164.481C245.672,159.812,251.812,152.245,257.759,144.485z"/>
			<path fill-rule="evenodd" clip-rule="evenodd" d="M229.827,145.261c0,71.12,0,142.239,0,213.36
				c-7.372-0.387-14.808-0.709-21.724-1.553c0-70.344,0-140.688,0-211.032C215.629,146.062,221.78,144.714,229.827,145.261z"/>
			<path fill-rule="evenodd" clip-rule="evenodd" d="M322.154,149.916c0,29.741,0,59.482,0,89.223
				c5.427-5.179,12.418-15.511,17.845-23.275c0-20.69,0-41.379,0-62.068c7.968,1.083,14.694,3.408,21.724,5.431
				c0,21.724,0,43.448,0,65.172c-3.864,7.515-10.102,12.657-13.965,20.171c4.148,8.524,9.493,15.852,13.965,24.051
				c0,25.088,0,50.174,0,75.26c-7.928,1.123-13.737,4.363-21.724,5.43c-1.932-28.326,4.543-65.059-4.656-86.119
				c-5.307,1.24-9.341,10.254-13.188,15.516c0,24.828,0,49.654,0,74.484c-7.181,1.094-14.596,1.953-21.724,3.102
				c0-69.826,0-139.653,0-209.48C307.601,147.918,315.097,148.697,322.154,149.916z"/>
			<path fill-rule="evenodd" clip-rule="evenodd" d="M194.914,147.588c3.602,66.34,0.531,139.376,1.552,208.705
				c-7.311-0.965-14.256-2.295-21.725-3.102c-3.507-35.102,4.725-70.898,0-103.966c-2.403-16.825-14.143-31.836-16.293-46.551
				c-1.81,47.328-0.258,98.018-0.775,146.637c-7.986-1.066-13.796-4.307-21.724-5.43c0-61.553,0-123.103,0-184.655
				c7.369-1.682,13.961-4.141,21.724-5.431c5.575,14.338,11.252,28.574,16.293,43.447c1.809-14.225,0.26-31.809,0.775-47.327
				C182.092,149.766,187.564,147.738,194.914,147.588z"/>
			<path fill-rule="evenodd" clip-rule="evenodd" d="M124.312,163.105c1.809,19.914,0.259,43.189,0.775,64.396
				c-3.878,6.208-9.33,10.843-13.966,16.293c3.432,6.397,9.891,9.766,13.966,15.516c0,26.639,0,53.275,0,79.914
				c-7.91-2.436-14.246-6.441-21.724-9.309c0-20.174,0-40.346,0-60.518c-2.255-2.51-4.53-8.43-6.983-8.535
				c-3.911-0.168-7.655,9.496-10.861,12.414c0,14.74,0,29.482,0,44.223c-8.899-5.842-16.062-13.42-22.5-21.723c0-30,0-60,0-90
				c5.087-8.88,14.883-17.183,22.5-20.948c0,19.137,0,38.275,0,57.413c5.461-3.854,12.573-12.767,17.845-19.396
				c0-16.81,0-33.621,0-50.431C110.414,169.381,117.398,166.279,124.312,163.105z"/>
			<path fill-rule="evenodd" clip-rule="evenodd" d="M371.81,163.105c25.299,9.097,46.736,22.055,62.068,41.121
				c0,7.758,0,15.517,0,23.275c-7.465-3.657-14.188-8.054-22.499-10.862c0-4.138,0-8.276,0-12.414
				c-4.14-4.397-10.557-6.513-17.069-8.535c-1.81,8.538-0.261,20.428-0.776,30.258c11.691,13.134,27.751,21.906,40.345,34.138
				c0,12.154,0,24.311,0,36.465c-14.849,20.066-36.454,33.373-62.068,42.672c0-14.223,0-28.449,0-42.672
				c7.005-1.787,14.884-2.701,21.724-4.654c0,4.137,0,8.275,0,12.412c7.075-1.977,12.589-5.516,17.846-9.311
				c0-9.051,0-18.102,0-27.154c-11.344-12.969-27.586-21.037-39.569-33.361C371.81,210.691,371.81,186.898,371.81,163.105z"/>
		</g>
	</g>
</g>
</svg>
