<?xml version="1.0" encoding="utf-8"?>
<!-- Generator: Adobe Illustrator 15.0.2, SVG Export Plug-In . SVG Version: 6.00 Build 0)  -->
<!DOCTYPE svg PUBLIC "-//W3C//DTD SVG 1.1//EN" "http://www.w3.org/Graphics/SVG/1.1/DTD/svg11.dtd">
<svg version="1.1" id="Layer_1" xmlns="http://www.w3.org/2000/svg" xmlns:xlink="http://www.w3.org/1999/xlink" x="0px" y="0px"
	 width="500px" height="500px" viewBox="0 0 500 500" enable-background="new 0 0 500 500" xml:space="preserve">
<g>
	<path fill="#020202" d="M250.2,64.085c10.017,0,20.049,0.276,30.098,0.804c69.944,3.669,134.992,24.763,197.256,55.679
		c2.409,1.196,4.716,1.8,3.613,5.854c-19.927,73.374-50.453,141.406-99.729,200.165c-36.478,43.497-79.949,78.707-127.988,108.52
		c-0.858,0.53-2.18,0.811-3.473,0.811c-1.173,0-2.32-0.229-3.079-0.699c-42.798-26.541-81.879-57.658-115.941-94.889
		c-27.014-33.232-57.394-73.395-73.117-107.104c-15.026-30.267-26.574-61.795-35.622-94.271
		c-4.514-16.205-4.431-16.092,11.243-23.558c42.469-20.231,86.401-35.952,132.877-44.197C194.168,66.26,222.125,64.085,250.2,64.085
		 M250.2,47.715c-30.006,0-59.184,2.479-86.721,7.363c-44.46,7.889-89.291,22.786-137.058,45.539l-0.384,0.182
		c-9.748,4.644-16.792,7.998-20.641,16.256c-3.925,8.423-1.729,16.31,1.053,26.291c9.883,35.474,21.869,67.198,36.643,96.98
		c13.408,28.684,37.299,63.75,75.163,110.327l0.303,0.372l0.321,0.354c33.743,36.88,72.795,68.857,119.39,97.75
		c4.209,2.61,8.69,3.156,11.709,3.156c3.117,0,7.749-0.566,12.103-3.27c53.388-33.133,96.535-69.739,131.901-111.91
		c46.703-55.691,80.389-123.202,102.984-206.394c1.075-3.955,3.412-17.429-11.698-24.599c-0.142-0.067-0.288-0.136-0.434-0.206
		C414.101,70.784,347.478,52.02,281.157,48.542C270.7,47.993,260.289,47.715,250.2,47.715L250.2,47.715z"/>
	<path fill="#020202" d="M339.789,281.329c-1.472,0.856-2.998,1.64-4.537,2.413c-1.535,0.784-3.075,1.574-4.625,2.364
		c-3.108,1.566-6.199,3.24-9.448,4.67c-2.788,1.284-5.605,2.58-8.433,3.881c0.724,7.39,3.098,13.763,7.438,19.15
		c14.783-12.657,27.805-27.31,38.648-43.536c-0.582,0.358-1.165,0.709-1.752,1.075C351.609,274.83,345.732,277.991,339.789,281.329z
		"/>
	<path fill="#020202" d="M280.62,307.094c-3.548,1.138-7.108,2.279-10.682,3.424c-0.834,0.232-1.672,0.466-2.504,0.696
		c-2.541,15.084-6.511,28.597-11.868,40.548c16.548-6.092,32.131-14.201,46.455-24.018c-5.566-6.946-9.273-15.045-11.053-24.301
		C287.539,304.66,284.142,306.037,280.62,307.094z"/>
	<path fill="#020202" d="M242.564,317.602l-5.561,1.126l-5.562,1.115l-2.781,0.56l-2.796,0.462
		c-3.726,0.607-7.452,1.218-11.168,1.821c-2.423,0.311-4.841,0.624-7.259,0.93c-2.101,14.899-8.173,28.591-18.211,40.994
		c11.999-0.373,23.747-1.744,35.166-4.039c8.968-11.994,15.012-26.685,18.759-43.11L242.564,317.602z"/>
	<path fill="#020202" d="M280.62,307.094c-3.548,1.138-7.108,2.279-10.682,3.424c-0.834,0.232-1.672,0.466-2.504,0.696
		c-2.541,15.084-6.511,28.597-11.868,40.548c16.548-6.092,32.131-14.201,46.455-24.018c-5.566-6.946-9.273-15.045-11.053-24.301
		C287.539,304.66,284.142,306.037,280.62,307.094z"/>
	<path fill="#020202" d="M237.004,318.728l-5.562,1.115l-2.781,0.56l-2.796,0.462c-3.726,0.607-7.452,1.218-11.168,1.821
		c-2.423,0.311-4.841,0.624-7.259,0.93c-2.101,14.899-8.173,28.591-18.211,40.994c11.999-0.373,23.747-1.744,35.166-4.039
		c8.968-11.994,15.012-26.685,18.759-43.11l-0.587,0.142L237.004,318.728z"/>
	<path fill="#020202" d="M339.789,281.329c-1.472,0.856-2.998,1.64-4.537,2.413c-1.535,0.784-3.075,1.574-4.625,2.364
		c-3.108,1.566-6.199,3.24-9.448,4.67c-2.788,1.284-5.605,2.58-8.433,3.881c0.724,7.39,3.098,13.763,7.438,19.15
		c14.783-12.657,27.805-27.31,38.648-43.536c-0.582,0.358-1.165,0.709-1.752,1.075C351.609,274.83,345.732,277.991,339.789,281.329z
		"/>
	<path fill="#020202" d="M341.842,198.439c-13.56,30.958-24.27,56.603-27.955,77.013c0.028-0.013,0.057-0.026,0.086-0.038
		c3.107-1.333,6.069-2.914,9.049-4.386c1.486-0.744,2.964-1.486,4.434-2.223c1.479-0.722,2.937-1.471,4.347-2.286
		c5.686-3.185,11.315-6.18,16.567-9.513c2.646-1.625,5.281-3.187,7.831-4.802c2.515-1.673,4.995-3.32,7.429-4.941
		c4.529-2.899,8.706-6.012,12.784-8.947c11.573-26.151,18.018-55.059,18.018-85.448c0-15.085-1.595-29.805-4.606-44.006
		c-4.65-1.459-9.292-2.848-13.926-4.165C369.148,136.072,355.086,168.203,341.842,198.439z"/>
	<path fill="#020202" d="M183.764,325.933c-11.849,0.846-23.542,1.252-34.901,1.153c-0.863-0.002-1.726,0.003-2.586,0.006
		c7.434,8.916,15.169,17.558,23.184,25.783C176.946,344.341,181.528,335.327,183.764,325.933z"/>
	<path fill="#020202" d="M142.715,176.392c22.943,31.587,46.666,64.248,58.34,96.87c3.982,11.131,6.313,21.795,7.003,31.978
		c1.389-0.16,2.781-0.316,4.173-0.473c3.555-0.526,7.117-1.052,10.684-1.577l2.673-0.401l2.657-0.493l5.317-0.984l5.318-0.992
		l5.272-1.185c0.748-0.174,1.499-0.341,2.248-0.506c8.335-68.389-14.512-157.625-31.178-210.786
		c-38.447,2.97-76.633,11.015-114.708,24.008C110.096,131.484,126.044,153.441,142.715,176.392z"/>
	<path fill="#020202" d="M130.646,307.353c6.035,0.314,12.17,0.543,18.414,0.666c11.811,0.285,23.96-0.021,36.247-0.781
		c-2.15-36.592-31.873-77.518-60.932-117.525c-17.809-24.517-34.829-47.956-45.237-70.043c-11.122,4.341-22.237,9.091-33.351,14.273
		C51.391,173.087,83.332,244.516,130.646,307.353z"/>
	<path fill="#020202" d="M243.151,317.46l-0.587,0.142l-5.561,1.126l-5.562,1.115l-2.781,0.56l-2.796,0.462
		c-3.726,0.607-7.452,1.218-11.168,1.821c-2.423,0.311-4.841,0.624-7.259,0.93c-2.101,14.899-8.173,28.591-18.211,40.994
		c11.999-0.373,23.747-1.744,35.166-4.039C233.36,348.576,239.404,333.886,243.151,317.46z"/>
	<path fill="#020202" d="M238.659,86.665c10.348,33.463,20.991,74.293,27.12,116.088c4.942,33.722,6.27,63.61,4.027,89.596
		c1.801-0.562,3.609-1.128,5.403-1.686c3.411-0.991,6.695-2.309,10.018-3.452c1.541-0.546,3.074-1.096,4.605-1.642
		c0.109-2.255,0.295-4.557,0.575-6.913c3.153-26.485,16.521-57.004,30.671-89.311c13.327-30.42,26.87-61.352,32.946-90.329
		C315.187,89.845,276.779,85.768,238.659,86.665z"/>
	<path fill="#020202" d="M290.969,303.443c-3.43,1.217-6.827,2.594-10.349,3.65c-3.548,1.138-7.108,2.279-10.682,3.424
		c-0.834,0.232-1.672,0.466-2.504,0.696c-2.541,15.084-6.511,28.597-11.868,40.548c16.548-6.092,32.131-14.201,46.455-24.018
		C296.455,320.798,292.748,312.699,290.969,303.443z"/>
	<path fill="#020202" d="M358.833,270.271c-0.582,0.358-1.165,0.709-1.752,1.075c-5.472,3.483-11.349,6.645-17.292,9.982
		c-1.472,0.856-2.998,1.64-4.537,2.413c-1.535,0.784-3.075,1.574-4.625,2.364c-3.108,1.566-6.199,3.24-9.448,4.67
		c-2.788,1.284-5.605,2.58-8.433,3.881c0.724,7.39,3.098,13.763,7.438,19.15C334.968,301.15,347.989,286.498,358.833,270.271z"/>
</g>
</svg>
