<?xml version="1.0" encoding="utf-8"?>
<!-- Generator: Adobe Illustrator 15.0.2, SVG Export Plug-In . SVG Version: 6.00 Build 0)  -->
<!DOCTYPE svg PUBLIC "-//W3C//DTD SVG 1.1//EN" "http://www.w3.org/Graphics/SVG/1.1/DTD/svg11.dtd">
<svg version="1.1" id="Layer_1" xmlns="http://www.w3.org/2000/svg" xmlns:xlink="http://www.w3.org/1999/xlink" x="0px" y="0px"
	 width="500px" height="500px" viewBox="0 0 500 500" enable-background="new 0 0 500 500" xml:space="preserve">
<path fill-rule="evenodd" clip-rule="evenodd" d="M386.176,114.396c3.361,8.279,4.811,18.472,7.431,27.492
	c8.688,2.209,17.609,4.186,26.749,5.944c-6.064,3.843-12.319,7.495-18.576,11.146c48.731,17.518,90.84,44.637,95.108,103.282
	c4.842,66.51-42.188,123.209-104.024,123.344c-31.475,0.068-57.037-14.934-73.561-31.95c-16.688-17.186-26.917-38.288-29.722-67.616
	c-23.249-18.114-59.622-23.103-92.136-31.951c31.531-4.997,70.137-1.854,94.366,7.431c2.928-6.484,5.243-13.58,7.43-20.805
	c-55.078-14.468-130.617-6.115-168.668,18.576c0.911-9.247,6.074-20.673,8.917-30.465C82.134,247.259,39.155,284.033,2.77,320.959
	C31.939,256.01,78.624,208.58,141.717,177.554c2.074,3.584-1.633,7.76-1.486,11.888c57.608-25.042,135.579-45.771,221.424-37.895
	c-1.638-5.057-12.245-11.522-13.374-17.09c8.664,1.243,16.764,3.05,26.006,3.715C379.312,131.309,382.274,122.383,386.176,114.396z
	 M377.26,144.117c-5.521,0.308-11.752-2.598-15.604-1.486c4.549,3.625,8.354,7.993,11.889,12.632
	c-2.592,4.095-4.067,9.306-5.944,14.117c5.104-1.583,8.756-4.619,14.118-5.944c5.395,2.283,7.208,8.148,12.632,10.402
	c-0.954-5.239-1.633-10.751-2.973-15.604c4.144-3.04,9.742-4.623,13.375-8.173c-5.107-1.333-10.844-2.036-15.604-3.715
	c-1.619-5.069-2.102-11.274-4.459-15.604C382.058,135.046,380.714,140.637,377.26,144.117z M288.838,172.353
	c-3.235,0.479-8.399-0.969-10.402,0.743c3.154,2.295,6.195,4.703,8.917,7.431c-1.196,3.031-4.248,8.114-2.973,11.146
	c2.786-2.415,5.805-4.598,9.659-5.944c3.672,1.777,6.173,4.726,9.66,6.687c-0.731-4.222-1.732-8.175-2.973-11.888
	c3.271-2.427,7.19-4.203,9.659-7.431c-4.789,0.579-7.316-1.104-11.888-0.743c-1.485-3.716-1.738-8.665-4.459-11.146
	C292.823,165.44,291.953,170.019,288.838,172.353z M395.835,201.331c-11.004-2.73-24.977-6.854-34.923-0.743
	c24.988,5.973,43.604,18.317,60.187,32.694c7.108-7.752,14.674-15.048,18.576-26.006c-25.666-22.137-70.879-28.688-117.4-27.492
	C348.783,184.483,379.176,189.259,395.835,201.331z M193.729,210.991c-0.412-0.002-0.843,0.602,0,0.743
	c62.537-7.702,145.917-9.159,179.071,26.006c-14.241-5.572-28.195-11.433-47.554-11.889c-5.323,4.832-8.633,11.677-11.889,18.576
	c29.702,9.457,79.117,14.984,101.053-5.201C374.374,193.497,262.418,184.989,193.729,210.991z M165.494,215.449
	c-2.016,0.46-5.896-0.943-6.687,0.743c1.83,1.638,4.864,2.071,5.201,5.201c-0.583,2.39-1.019,4.925-2.229,6.688
	c3.071-0.644,4.358-3.072,7.43-3.715c2.321,0.899,3.231,3.208,5.944,3.715c-0.001-2.971-1.485-4.46-1.486-7.431
	c2.296-1.172,4.375-2.56,5.944-4.458c-3.245,0.521-4.185-1.264-7.43-0.743c-1.321-2.146-1.336-5.598-2.972-7.43
	C168.085,210.609,167.852,214.091,165.494,215.449z M426.3,239.969c7.119,5.512,11.202,14.062,17.833,20.062
	c9.085-7.262,17.102-15.591,23.777-25.263c-6.547-8.562-13.578-16.638-22.291-23.034C440.893,222.859,433.703,231.521,426.3,239.969
	z M448.591,268.947c2.909,4.521,5.303,9.558,7.431,14.86c8.164-2.485,15.18-6.12,25.263-6.688
	c-0.964-13.401-3.63-25.101-9.659-33.436C465.744,253.902,455.395,259.652,448.591,268.947z M419.612,244.427
	c-21.838,24.275-77.552,17.778-109.969,7.43c-6.889,15.913-6.578,43.335-0.743,60.186c54.022-4.181,93.608-22.8,128.545-46.068
	C432.725,257.569,426.447,250.719,419.612,244.427z M441.16,272.662c-33.451,25-74.873,42.03-127.802,47.554
	c15.603,30.465,40.168,51.969,87.678,50.527c8.585-35.256,22.383-65.296,47.555-83.963
	C446.458,281.729,444.529,276.476,441.16,272.662z M458.993,291.238c4.349,11.75,5.611,26.586,8.174,40.124
	c6.983-13.079,13.131-26.993,14.117-46.068C472.547,285.968,466.168,289.002,458.993,291.238z M409.953,369.257
	c19.838-4.188,34.919-13.131,46.811-25.264c1.553-16.679,0.937-36.232-5.201-47.554
	C427.984,311.003,417.875,339.037,409.953,369.257z"/>
</svg>
