<?xml version="1.0" encoding="utf-8"?>
<!-- Generator: Adobe Illustrator 15.0.2, SVG Export Plug-In . SVG Version: 6.00 Build 0)  -->
<!DOCTYPE svg PUBLIC "-//W3C//DTD SVG 1.1//EN" "http://www.w3.org/Graphics/SVG/1.1/DTD/svg11.dtd">
<svg version="1.1" id="Layer_1" xmlns="http://www.w3.org/2000/svg" xmlns:xlink="http://www.w3.org/1999/xlink" x="0px" y="0px"
	 width="500px" height="500px" viewBox="0 0 500 500" enable-background="new 0 0 500 500" xml:space="preserve">
<g id="rsfjON_1_">
	<g>
		<g>
			<path fill-rule="evenodd" clip-rule="evenodd" d="M254.261,2.914c3.364,8.433,5.938,17.657,8.521,26.872
				c9.612,0,19.225,0,28.837,0c-6.893,6.651-16.072,11.018-22.938,17.695c2.917,8.442,5.038,17.682,8.521,25.561
				c-1.945,1.688-3.419-2.671-5.9-2.622c-1.129-2.146-3.778-2.773-5.242-4.587c-4.001-2.334-7.374-5.297-11.142-7.865
				c-8.766,4.343-15.101,11.115-23.594,15.729c3.059-8.52,5.414-17.744,8.52-26.216c-7.018-6.309-15.313-11.34-22.939-17.041
				c8.085-1.526,19.005-0.22,28.182-0.654C248.8,21.485,250.98,11.649,254.261,2.914z"/>
			<path fill-rule="evenodd" clip-rule="evenodd" d="M77.958,94.67c3.745,8.271,5.696,18.336,9.175,26.872
				c9.613,0,19.226,0,28.838,0c-7.234,6.529-15.841,11.686-23.594,17.695c3.155,8.424,5.662,17.495,8.52,26.216
				c-4.324-2.012-7.632-5.038-11.142-7.864c-3.975-2.36-7.527-5.145-11.141-7.865c-8.445,4.445-14.661,11.118-22.939,15.729
				c2.309-8.833,5.428-16.855,7.865-25.561c-0.513-2.982-4.109-2.881-5.243-5.243c-2.618-0.658-3.762-2.792-5.898-3.933
				c-3.9-2.871-7.631-5.914-11.797-8.52c8.086-1.527,19.005-0.221,28.182-0.655c1.99-1.069,1.602-4.516,2.622-6.555
				C73.725,108.351,76.164,101.833,77.958,94.67z"/>
			<path fill-rule="evenodd" clip-rule="evenodd" d="M426.632,103.846c2.957,3.159,3.083,9.149,5.243,13.108
				c0.722,5.175,3.208,8.588,3.931,13.763c9.614,0,19.227,0,28.838,0c-6.92,6.624-15.958,11.132-22.938,17.696
				c2.831,8.528,5.351,17.369,8.519,25.561c-1.464,1.207-4.113-1.975-5.243-3.277c-2.641-0.637-4.012-2.541-5.898-3.933
				c-3.953-2.382-7.293-5.376-11.142-7.864c-3.397-0.12-3.492,3.062-6.553,3.277c-0.907,2.371-4.145,2.411-5.243,4.587
				c-4.347,2.209-7.335,5.775-11.799,7.865c3.119-8.241,5.308-17.411,8.521-25.561c-0.46-3.036-3.846-3.146-5.243-5.243
				c-2.652-0.843-3.61-3.381-6.553-3.933c-3.369-3.404-7.339-6.207-11.799-8.52c8.304-1.527,19.443-0.221,28.838-0.656
				C421.36,122.169,424.355,113.367,426.632,103.846z"/>
			<path fill-rule="evenodd" clip-rule="evenodd" d="M53.053,288.013c0.558-0.119,0.618,0.256,0.655,0.655
				c3.463,8.117,5.683,17.477,8.521,26.216c9.394,0,18.788,0,28.182,0c-7.018,6.311-15.119,11.535-22.939,17.042
				c3.034,8.763,6.216,17.379,8.521,26.871c-7.513-5.377-15.019-10.761-22.284-16.385c-7.6,5.29-14.978,10.801-22.283,16.385
				c-0.8-3.653,2.986-8.365,3.277-13.109c1.729-4.168,2.858-8.938,4.588-13.106c-3.064-3.71-8.178-5.367-11.142-9.176
				c-4.729-1.826-7.374-5.734-11.798-7.866c7.868-1.525,18.568-0.219,27.527-0.655c2.687-2.991,3.214-8.146,4.587-12.451
				c1.789-3.893,2.525-8.836,4.588-12.452C53.053,289.323,53.053,288.668,53.053,288.013z"/>
			<path fill-rule="evenodd" clip-rule="evenodd" d="M443.017,300.467c3.744,8.27,5.695,18.334,9.176,26.871
				c9.393,0,18.788,0,28.181,0c-7.351,5.976-15.253,11.401-22.938,17.04c2.795,9.001,5.693,17.899,8.519,26.87
				c-7.608-5.281-15.208-10.569-22.283-16.384c-7.799,5.091-15.242,10.534-22.282,16.384c-0.8-3.65,2.213-9.137,3.275-13.106
				c1.152-4.529,2.657-8.703,3.933-13.109c-0.84-2.436-3.486-3.066-5.243-4.588c-1.886-1.389-3.259-3.294-5.898-3.931
				c-3.101-3.454-7.308-5.803-11.141-8.521c7.646-1.527,18.131-0.222,26.87-0.655c3.396-2.286,2.706-8.655,5.243-11.799
				c0.732-4.947,2.448-8.91,3.934-13.106C442.175,301.373,442.979,301.305,443.017,300.467z"/>
			<path fill-rule="evenodd" clip-rule="evenodd" d="M387.307,380.425c3.691,8.543,5.695,18.773,9.177,27.525
				c9.393,0,18.788,0,28.181,0c-7.266,6.061-15.306,11.349-22.938,17.042c2.853,8.943,5.893,17.701,8.52,26.871
				c-7.442-5.448-14.929-10.85-22.283-16.385c-8.138,4.75-14.624,11.153-22.938,15.729c2.776-8.584,5.059-17.662,8.519-25.561
				c-7.107-6.219-15.259-11.395-22.938-17.04c7.649-1.527,18.131-0.221,26.871-0.657c3.475-2.859,3.763-8.906,5.243-13.762
				C384.873,390.226,385.845,385.079,387.307,380.425z"/>
			<path fill-rule="evenodd" clip-rule="evenodd" d="M195.93,422.37c0.557-0.12,0.618,0.255,0.655,0.655
				c3.308,8.273,5.921,17.238,8.521,26.216c9.613,0,19.226,0,28.838,0c-6.96,6.585-16.154,10.937-22.939,17.696
				c2.917,8.442,5.039,17.681,8.52,25.561c-1.886,1.631-3.259-2.831-5.898-2.622c-1.229-2.047-4.014-2.54-5.243-4.588
				c-4.44-2.114-7.636-5.473-11.798-7.864c-8.29,4.601-14.648,11.13-22.938,15.729c3.183-8.178,5.306-17.415,8.52-25.561
				c-0.513-2.981-4.109-2.882-5.243-5.243c-2.309-0.968-3.971-2.584-5.898-3.933c-3.96-2.812-7.771-5.774-11.797-8.52
				c8.086-1.527,19.005-0.221,28.182-0.656C190.774,440.81,193.58,431.817,195.93,422.37z"/>
			<path fill-rule="evenodd" clip-rule="evenodd" d="M150.708,80.907c-4.544,2.01-7.481,5.627-11.797,7.864
				c-3.076,3.26-7.688,4.984-10.486,8.521c-0.566-3.418,2.493-8.858,3.276-13.108c1.729-4.17,2.859-8.938,4.588-13.107
				c-0.37-3.126-4.429-2.562-5.243-5.243c-2.946-0.551-3.609-3.383-6.555-3.933c-3.557-3.216-7.38-6.164-11.797-8.521
				c8.304-1.526,19.441-0.22,28.838-0.655c3.256-8.54,6.137-17.457,8.52-26.871c3.126,2.991,2.63,9.604,5.243,13.107
				c0.831,5.069,3.055,8.743,3.933,13.764c9.831,0,19.662,0,29.493,0c-7.604,6.159-16.344,11.184-23.594,17.695
				c2.861,8.718,5.275,17.884,8.52,26.217c-1.431,0.96-3.67-2.858-5.898-3.277c-1.101-2.177-4.337-2.217-5.243-4.588
				C158.04,86.683,155.053,83.115,150.708,80.907z"/>
			<path fill-rule="evenodd" clip-rule="evenodd" d="M353.226,80.907c-4.465,2.09-7.452,5.655-11.797,7.864
				c-2.915,3.422-7.746,4.925-10.486,8.521c-0.627-3.697,2.929-8.861,3.277-13.764c2.248-3.65,2.659-9.138,4.589-13.108
				c-1.559-1.938-3.877-3.115-5.9-4.587c-1.812-1.316-3.58-3.173-5.898-3.933c-3.558-3.216-7.379-6.164-11.797-8.521
				c8.304-1.526,19.441-0.22,28.839-0.655c3.166-8.631,6.056-17.536,8.519-26.871c4.022,7.992,6.066,17.965,9.176,26.871
				c9.612,0,19.225,0,28.839,0c-6.976,6.571-15.842,11.25-22.94,17.695c2.693,8.886,5.215,17.943,8.521,26.217
				c-1.432,0.96-3.671-2.858-5.898-3.277c-1.464-1.813-4.113-2.44-5.242-4.588C360.56,86.683,357.572,83.115,353.226,80.907z"/>
			<path fill-rule="evenodd" clip-rule="evenodd" d="M44.533,242.135c-4.625,1.93-7.529,5.58-11.797,7.865
				c-1.464,1.813-4.113,2.44-5.243,4.588c-2.017-0.488-1.259,1.799-3.276,1.312c-0.193,0.582-1.773,2.868-1.967,1.311
				c2.259-8.884,5.532-16.752,7.865-25.562c-0.764-2.022-3.403-3.68-5.898-4.588c-1.13-2.147-3.78-2.774-5.244-4.587
				c-4.345-2.209-7.332-5.775-11.797-7.865c8.086-1.527,19.005-0.221,28.182-0.655c3.369-8.429,6.243-17.352,8.521-26.872
				c2.913,3.204,3.145,9.09,5.243,13.108c1.39,4.728,2.922,9.312,4.587,13.764c9.395,0,18.788,0,28.182,0
				c-7.078,6.247-15.454,11.198-22.938,17.04c2.84,8.738,5.205,17.953,8.52,26.217c-1.101,0.843-4.337-1.752-5.243-3.277
				c-2.64-0.637-4.012-2.542-5.898-3.933C52.062,247.715,49.158,244.064,44.533,242.135z"/>
			<path fill-rule="evenodd" clip-rule="evenodd" d="M456.123,253.933c-4.464,2.09-7.452,5.656-11.797,7.864
				c-3.369,3.186-7.594,5.516-11.142,8.521c-1.146-1.188,1.644-4.005,1.311-6.555c2.736-6.003,4.57-12.908,6.554-19.662
				c-0.714-2.78-4.235-2.755-5.243-5.243c-2.639-0.638-4.012-2.542-5.898-3.933c-4.345-2.208-7.332-5.775-11.797-7.865
				c7.868-1.526,18.567-0.22,27.526-0.655c1.87-1.188,2.113-4.004,2.623-6.554c2.547-6.408,5.097-12.817,6.553-20.317
				c2.116-0.587,0.921,2.138,1.966,2.622c-0.015,1.544,1.13,1.929,0.657,3.932c1.442,1.616,1.454,4.661,2.62,6.555
				c1.217,4.682,2.976,8.822,3.934,13.763c9.611,0,19.224,0,28.836,0c-7.306,6.02-15.313,11.338-22.938,17.041
				c2.862,8.717,5.276,17.883,8.521,26.216c-1.231,0.973-4.015-2.075-5.243-3.276c-2.351-0.928-3.72-2.836-5.9-3.934
				C463.573,259.591,459.66,256.949,456.123,253.933z"/>
			<path fill-rule="evenodd" clip-rule="evenodd" d="M109.417,424.992c-4.581,1.974-7.674,5.434-11.797,7.864
				c-3.768,2.567-6.887,5.784-11.142,7.865c2.675-8.685,5.11-17.611,8.52-25.561c-7.048-6.716-15.577-11.951-23.595-17.697
				c8.086-1.527,19.005-0.219,28.183-0.654c2.914-3.203,3.145-9.089,5.243-13.107c0.724-5.176,3.209-8.588,3.932-13.764
				c2.577,4.034,2.998,8.959,4.588,13.764c1.43,4.318,3.468,8.72,4.588,13.107c9.612,0,19.225,0,28.838,0
				c-6.981,6.565-16.018,11.072-22.939,17.696c2.595,8.983,5.098,18.061,8.521,26.216c-1.432,0.96-3.671-2.857-5.899-3.277
				c-1.464-1.813-4.113-2.44-5.243-4.588C116.589,430.927,113.686,427.278,109.417,424.992z"/>
			<path fill-rule="evenodd" clip-rule="evenodd" d="M285.72,470.87c-0.369-3.125-4.428-2.563-5.243-5.243
				c-2.755-0.74-3.889-3.103-6.554-3.933c-3.558-3.215-7.381-6.166-11.797-8.521c8.304-1.527,19.441-0.22,28.837-0.655
				c1.942-4.175,3.47-8.765,4.588-13.764c1.383-1.676,1.024-5.094,2.622-6.554c0.591-2.25,0.384-5.296,2.621-5.898
				c2.227,9.134,5.699,17.021,7.865,26.216c9.831,0,19.66,0,29.492,0c-7.704,6.059-16.059,11.468-23.594,17.697
				c2.649,9.146,5.724,17.867,8.519,26.87c-7.547-5.342-15.069-10.707-22.282-16.384c-8.219,4.232-14.115,10.788-22.283,15.074
				c-0.126,0.529-0.657,0.65-0.655,1.31c-1.146-1.188,1.644-4.004,1.311-6.555c0.734-2.105,1.793-3.887,1.966-6.554
				C283.304,480.251,283.746,474.795,285.72,470.87z"/>
		</g>
	</g>
</g>
</svg>
