<?xml version="1.0" encoding="utf-8"?>
<!-- Generator: Adobe Illustrator 15.0.2, SVG Export Plug-In . SVG Version: 6.00 Build 0)  -->
<!DOCTYPE svg PUBLIC "-//W3C//DTD SVG 1.1//EN" "http://www.w3.org/Graphics/SVG/1.1/DTD/svg11.dtd">
<svg version="1.1" id="Layer_1" xmlns="http://www.w3.org/2000/svg" xmlns:xlink="http://www.w3.org/1999/xlink" x="0px" y="0px"
	 width="500px" height="500px" viewBox="0 0 500 500" enable-background="new 0 0 500 500" xml:space="preserve">
<g>
	<path fill-rule="evenodd" clip-rule="evenodd" d="M254.09,3.167c3.832,8.311,6.204,18.082,8.921,27.508c9.665,0,19.33,0,28.995,0
		c-7.437,5.945-15.734,11.03-23.047,17.101c2.196,9.45,5.922,17.373,8.178,26.765c-7.483-5.404-15.086-10.688-22.304-16.356
		c-7.492,5.395-15.536,10.238-22.305,16.356c0.289-7.894,4.969-17.827,7.435-26.021c-6.712-6.671-14.831-11.934-23.047-17.1
		c7.933-1.732,19.08-0.25,28.251-0.744C248.756,22.12,251.619,12.84,254.09,3.167z"/>
	<path fill-rule="evenodd" clip-rule="evenodd" d="M352.972,26.214c4.061,8.329,5.719,19.063,9.665,27.508
		c9.418,0,18.834,0,28.251,0c-7.426,5.956-15.551,11.213-23.047,17.1c2.6,9.047,5.838,17.457,8.178,26.765
		c-7.452-5.435-14.906-10.869-22.304-16.356c-7.777,5.11-15.244,10.53-22.305,16.356c0.573-7.61,5.283-17.513,7.435-26.021
		c-6.221-6.914-14.844-11.426-22.304-17.1c7.438-1.731,18.088-0.251,26.765-0.744C348.271,46.296,349.91,35.545,352.972,26.214z"/>
	<path fill-rule="evenodd" clip-rule="evenodd" d="M77.886,95.357c3.693,8.202,5.981,17.809,8.922,26.765c9.665,0,19.33,0,28.995,0
		c-6.878,6.752-16.034,11.226-23.048,17.844c2.203,9.197,5.687,17.113,8.179,26.021c-8.05-4.59-14.812-10.467-22.304-15.613
		c-8.733,4.153-14.651,11.123-23.048,15.613c2.36-9.04,5.555-17.245,8.178-26.021c-7.429-5.954-15.152-11.614-23.048-17.101
		c7.934-1.731,19.08-0.25,28.252-0.743C72.604,113.866,75.066,104.434,77.886,95.357z"/>
	<path fill-rule="evenodd" clip-rule="evenodd" d="M427.318,104.279c3.562,8.333,6.232,17.558,8.922,26.765
		c9.665,0,19.33,0,28.996,0c-6.88,6.753-16.036,11.227-23.049,17.843c2.702,8.698,5.595,17.206,8.179,26.021
		c-7.958-4.68-14.665-10.613-22.304-15.613c-8.166,4.473-14.858,10.419-22.306,15.613c0.401-7.535,5.486-16.814,7.436-25.278
		c-6.571-7.306-15.374-12.381-23.791-17.843c8.182-1.731,19.576-0.25,28.996-0.744C421.96,122.711,424.63,113.486,427.318,104.279z"
		/>
	<path fill-rule="evenodd" clip-rule="evenodd" d="M115.803,142.939c10.797,5.809,20.163,15.819,31.97,21.561
		c25.879,12.586,69.302,14.281,95.908,0c10.479-5.625,17.562-14.665,27.508-20.816c-6.893,38.909-26.238,66.132-44.607,93.678
		c-20.235,30.342-32.797,69.746-28.253,122.672c-21.201-11.697-63.583-8.582-78.064,4.463
		c4.212-50.199,28.447-82.377,55.018-110.035c26.826-27.924,63.407-46.358,81.781-82.525c-5.104,0.637-7.417,8.305-11.152,12.638
		c-26.027,30.201-69.555,52.341-130.107,42.378C115.803,198.947,115.803,170.944,115.803,142.939z"/>
	<path fill-rule="evenodd" clip-rule="evenodd" d="M304.646,241.079c11.901-10.199,20.22-19.736,46.838-16.357
		c30.39,3.858,47.452,35.397,44.609,75.091c-2.439,34.066-25.746,61.318-60.222,64.684c-82.1,8.012-102.988-80.371-83.27-150.183
		c10.727-37.971,36.915-65.885,84.013-68.4c32.839-1.752,58.356,19.433,55.018,47.583c-1.458,12.292-15.384,26.372-34.2,20.817
		c-9.006-2.659-13.659-11.326-16.355-19.33c-0.738-2.188-2.232-25.598-8.18-27.509c-14.579-4.685-21.526,17.387-23.79,27.509
		C305.649,210.433,305.635,227.928,304.646,241.079z M306.132,319.887c0.942,12.941,4.893,24.254,16.356,23.791
		c10.435-0.422,15.886-13.842,17.1-31.969c1.653-24.662,1.999-64.02-20.072-58.734C303.97,256.695,304.354,295.461,306.132,319.887z
		"/>
	<path fill-rule="evenodd" clip-rule="evenodd" d="M43.686,188.292c4.862,7.034,6.354,17.438,9.666,26.021c9.665,0,19.33,0,28.995,0
		c-7.692,5.939-15.669,11.592-23.791,17.1c3.453,8.195,5.167,18.128,8.921,26.022c-7.536-2.133-14.824-10.947-23.047-14.87
		c-7.646,4.744-14.766,10.017-21.561,15.612c0.288-7.893,4.969-17.827,7.435-26.021c-6.925-6.458-15.209-11.558-23.048-17.101
		c7.687-1.731,18.584-0.25,27.508-0.743C39.141,207.042,40.965,197.219,43.686,188.292z"/>
	<path fill-rule="evenodd" clip-rule="evenodd" d="M455.57,199.444c3.646,8.497,6.253,18.034,8.923,27.509
		c9.417,0,18.833,0,28.251,0c-6.628,6.506-15.226,11.043-22.305,17.099c2.56,9.089,5.785,17.511,8.179,26.767
		c-7.52-5.369-14.785-10.99-22.305-16.357c-7.732,5.154-15.352,10.422-22.304,16.357c0.607-7.578,5.329-17.469,7.435-26.022
		c-6.032-7.103-15.033-11.237-22.304-17.101c7.438-1.731,18.089-0.25,26.765-0.743C450.429,219.084,452.628,208.892,455.57,199.444z
		"/>
	<path fill-rule="evenodd" clip-rule="evenodd" d="M108.368,371.186c5.134,6.762,5.846,17.945,9.665,26.023
		c9.666,0,19.331,0,28.995,0c-7.775,5.854-15.424,11.834-23.791,17.098c3.464,8.186,5.236,18.061,8.922,26.021
		c-7.507-2.16-14.786-10.984-23.048-14.869c-8.438,4.447-14.539,11.234-23.047,15.615c3.213-8.436,5.701-17.596,8.922-26.021
		c-7.646-5.986-15.299-11.963-23.792-17.102c7.934-1.732,19.08-0.25,28.252-0.742C103.824,389.939,105.568,380.033,108.368,371.186z
		"/>
	<path fill-rule="evenodd" clip-rule="evenodd" d="M300.184,426.203c3.64,8.256,6.104,17.689,8.923,26.766c9.664,0,19.33,0,28.995,0
		c-7.329,6.301-16.294,10.967-23.048,17.844c2.219,8.934,5.332,16.971,8.179,25.277c-7.219-2.201-14.822-10.453-22.304-14.869
		c-8.199,4.441-14.988,10.291-22.306,15.613c0.371-7.812,5.065-17.732,7.435-26.021c-7.088-6.293-15.239-11.525-23.047-17.102
		c7.934-1.73,19.079-0.25,28.252-0.742C294.51,444.32,297.282,435.197,300.184,426.203z"/>
	<path fill-rule="evenodd" clip-rule="evenodd" d="M150.746,81.231c-7.715,5.172-15.114,10.659-22.304,16.356
		c0.841-7.59,5.186-18.106,8.178-26.021c-6.978-6.405-15.098-11.668-23.048-17.1c7.687-1.731,18.585-0.251,27.509-0.744
		c4.008-7.887,6.19-17.601,8.922-26.765c4.665,7.478,6.145,18.143,9.665,26.765c9.417,0,18.835,0,28.252,0
		c-7.225,6.158-15.548,11.217-23.048,17.1c3.454,8.194,5.168,18.127,8.922,26.022C166.459,94.263,158.502,85.869,150.746,81.231z"/>
	<path fill-rule="evenodd" clip-rule="evenodd" d="M53.352,342.936c-7.701,4.938-14.115,11.162-22.305,15.611
		c2.448-8.705,5.038-17.266,8.179-25.277c-6.838-6.545-14.972-11.795-23.048-17.1c7.686-1.732,18.584-0.252,27.508-0.744
		c4.526-7.865,6.234-18.549,9.666-27.51c3.451,8.693,5.88,18.408,8.922,27.51c9.417,0,18.834,0,28.251,0
		c-7.42,5.963-15.384,11.381-23.048,17.1c3.363,8.285,5.475,17.822,8.922,26.021C69.241,355.787,61.091,347.588,53.352,342.936z"/>
	<path fill-rule="evenodd" clip-rule="evenodd" d="M443.675,355.574c-7.847,5.039-15.278,10.494-22.304,16.355
		c0.86-7.322,5.335-17.461,7.435-26.021c-6.06-7.57-14.986-12.275-23.049-17.844c7.935-1.73,19.081-0.25,28.253-0.744
		c4.115-7.779,6.439-17.35,8.922-26.764c3.983,7.912,6.517,17.273,8.922,26.764c9.912,0,19.826,0,29.738,0
		c-7.901,5.729-15.322,11.939-23.79,17.102c3.08,8.814,5.238,18.553,8.921,26.764C459.649,368.344,451.658,359.982,443.675,355.574z
		"/>
	<path fill-rule="evenodd" clip-rule="evenodd" d="M388.658,435.869c-8.354,4.779-15.688,10.582-23.049,16.355
		c1.3-7.131,4.963-18.33,8.18-26.021c-6.812-6.57-15.008-11.758-23.049-17.1c7.687-1.732,18.585-0.25,27.509-0.742
		c4.905-7.488,5.061-19.723,10.409-26.768c2.229,9.42,5.233,18.062,8.178,26.768c9.418,0,18.835,0,28.253,0
		c-7.468,5.914-15.443,11.322-23.049,17.098c3.454,8.195,5.168,18.129,8.922,26.021C404.237,448.537,395.77,440.902,388.658,435.869
		z"/>
	<path fill-rule="evenodd" clip-rule="evenodd" d="M196.842,477.504c-7.806,5.08-15.416,10.357-22.305,16.355
		c0.607-7.576,5.328-17.467,7.436-26.021c-6.033-7.104-14.639-11.631-22.305-17.1c7.438-1.732,18.089-0.252,26.765-0.744
		c5.038-7.354,6.792-17.99,9.665-27.508c4.379,8.014,5.924,18.859,9.666,27.508c9.417,0,18.835,0,28.252,0
		c-7.555,5.58-15.081,11.189-23.048,16.357c2.573,9.322,5.436,18.355,8.922,26.764C212.992,490.098,204.201,482.537,196.842,477.504
		z"/>
</g>
</svg>
