<?xml version="1.0" encoding="utf-8"?>
<!-- Generator: Adobe Illustrator 15.0.2, SVG Export Plug-In . SVG Version: 6.00 Build 0)  -->
<!DOCTYPE svg PUBLIC "-//W3C//DTD SVG 1.1//EN" "http://www.w3.org/Graphics/SVG/1.1/DTD/svg11.dtd">
<svg version="1.1" id="Layer_1" xmlns="http://www.w3.org/2000/svg" xmlns:xlink="http://www.w3.org/1999/xlink" x="0px" y="0px"
	 width="500px" height="500px" viewBox="0 0 500 500" enable-background="new 0 0 500 500" xml:space="preserve">
<path fill-rule="evenodd" clip-rule="evenodd" d="M218.862,14.427c-0.141-0.654,0.3-0.726,0.769-0.769c37.716,0,80.454,0,120.708,0
	c40.055,0,81.73-3.997,108.406,11.533c26.366,13.612,44.608,35.351,46.13,73.809c-2.328,37.65-16.009,63.951-23.834,96.104
	c-18.062,62.154-36.062,124.372-54.588,186.059c-20.891,59.068-64.059,95.861-135.315,104.562
	c-36.843,1.354-79.418,0.769-119.938,0.769c-40.216,0-80.917,3.168-109.175-10.764c-25.467-14.512-45.127-34.832-46.899-73.039
	c1.042-38.937,15.78-64.18,23.065-96.874c18.272-61.943,36.253-124.179,54.588-186.06c21.107-58.852,63.884-96.035,134.546-105.331
	C217.837,14.427,218.35,14.427,218.862,14.427z M474.885,105.919c0-4.101,0-8.201,0-12.301
	c-5.314-37.228-29.462-55.623-67.657-59.97c-63.045,0-126.09,0-189.134,0c-0.983,0.042-1.065,0.986-2.307,0.769
	c-50.977,6.941-83.321,32.518-104.562,69.195c-18.07,40.105-27.756,88.596-41.517,133.009
	c97.84,33.628,196.815,66.129,294.465,99.95c-13.555,6.435-28.15,11.829-42.286,17.683c3.393,20.955,7.948,44.844,9.994,64.583
	c-19.704-9.256-39.136-18.784-59.2-27.679c-15.717,8.373-30.151,18.03-46.13,26.141c4.147-11.742,8.037-23.742,12.302-35.366
	c-17.489,13.008-32.541,28.454-49.975,41.517c-7.61,7.767-16.401,14.354-24.603,21.527c-4.063,3.627-8.094,7.282-12.301,10.765
	c-2.094,1.749-4.284,3.404-6.151,5.382c-0.778,1.405-7.221,4.027-3.844,4.612c39.717-0.309,83.549,0.77,122.246,0.77
	c39.946,0,70.359-12.739,91.491-31.522c48.639-33.626,52.949-111.584,74.578-172.221c-94.906-32.466-191.203-63.539-285.239-96.874
	c17.526-3.232,33.839-7.678,50.743-11.533c-1.792-24.349-6.345-50.035-7.688-72.271c24.573,11.05,49.09,22.156,73.04,33.829
	c17.89-15.684,32.123-35.022,49.975-50.743c4.638,20.734,11.469,39.274,16.146,59.969c20.335-5.293,41.474-13.881,60.738-17.683
	c-5.695,15.833-11.854,31.201-16.915,47.668c27.716,9.189,55.062,18.747,83.035,27.678
	C460.56,156.688,470.195,133.776,474.885,105.919z M32.034,363.48c12.871-12.502,25.352-25.392,36.904-39.211
	c-7.528-2.723-15.215-5.287-23.065-7.688C41.373,332.326,36.857,348.057,32.034,363.48z M27.421,378.857
	c-1.822,9.164-3.561,21.761-1.538,32.291c24.442-22.458,51.958-52.604,74.577-76.884C76.373,349.387,51.684,363.91,27.421,378.857z
	 M28.959,424.219c4.149,7.383,8.158,14.907,13.839,20.758c30.699-31.319,61.938-66.203,89.186-98.411
	C98.483,373.291,62.213,397.247,28.959,424.219z M52.793,453.435c8.336,4.221,16.561,8.554,26.909,10.764
	c29.732-34.595,61.817-70.936,89.186-105.331C130.87,391.07,90.487,420.907,52.793,453.435z M148.129,418.837
	c-8.887,8.282-19.036,15.305-27.678,23.834c-5.321,3.393-9.409,8.018-14.608,11.532c-2.098,2.26-4.69,4.023-6.919,6.15
	c-0.993,1.625-7.721,4.664-4.613,5.382c10.764,0,21.528,0,32.292,0c14.045-14.915,26-31.92,39.979-46.898
	c11.53-16.405,28.075-31.895,37.673-47.668C186.271,387.783,166.866,402.977,148.129,418.837z"/>
</svg>
