<?xml version="1.0" encoding="utf-8"?>
<!-- Generator: Adobe Illustrator 15.0.2, SVG Export Plug-In . SVG Version: 6.00 Build 0)  -->
<!DOCTYPE svg PUBLIC "-//W3C//DTD SVG 1.1//EN" "http://www.w3.org/Graphics/SVG/1.1/DTD/svg11.dtd">
<svg version="1.1" id="Layer_1" xmlns="http://www.w3.org/2000/svg" xmlns:xlink="http://www.w3.org/1999/xlink" x="0px" y="0px"
	 width="500px" height="500px" viewBox="0 0 500 500" enable-background="new 0 0 500 500" xml:space="preserve">
<g>
	<path fill-rule="evenodd" clip-rule="evenodd" d="M211.338,3.5c8.671,0,17.344,0,26.016,0
		c-29.643,30.099-63.987,65.288-98.86,100.161C98.848,143.307,63.07,182.489,68.25,259.756
		c4.004,59.723,33.023,98.149,67.641,130.079c-4.687,2.684-7.02,7.721-11.707,10.406c-42.041-30.805-67.749-77.939-75.446-143.087
		c0-7.805,0-15.609,0-23.414C62.177,116.231,152.83,75.938,211.338,3.5z"/>
	<path fill-rule="evenodd" clip-rule="evenodd" d="M262.068,3.5c8.238,0,16.479,0,24.715,0
		c-31.76,31.779-64.933,67.535-101.461,104.063c-35.166,35.165-76.007,64.995-80.649,126.177
		c-4.66,61.423,21.684,102.146,55.934,131.38c-4.688,2.683-7.02,7.721-11.707,10.406c-32.15-26.285-58.523-60.271-62.438-111.868
		c-6.294-82.948,34.113-118.665,75.446-159.997C197.541,68.028,233.193,34.282,262.068,3.5z"/>
	<path fill-rule="evenodd" clip-rule="evenodd" d="M311.498,3.5c8.674,0,17.344,0,26.016,0
		c-31.012,31.459-67.496,68.797-107.965,109.267c-37.031,37.03-85.663,68.781-89.755,127.478
		c-3.267,46.865,19.794,78.751,46.829,97.56c-3.356,4.446-7.259,8.349-11.707,11.707c-31.376-21.979-55.485-52.738-53.333-105.364
		c1.207-29.509,14.542-60.638,31.219-80.649c22.284-26.74,52.645-52.646,79.348-79.349C260.23,56.069,288.695,29.314,311.498,3.5z"
		/>
	<path fill-rule="evenodd" clip-rule="evenodd" d="M362.229,3.5c8.674,0,17.344,0,26.018,0
		c-48.178,50.069-113.279,113.279-167.803,167.802c-18.859,18.859-41.556,41.567-44.227,68.942
		c-3.892,39.873,17.813,53.692,36.422,72.844c-5.295,2.51-6.643,8.967-13.008,10.406c-24.052-16.81-42.571-38.947-41.625-78.047
		c0.775-32.04,17.396-52.519,37.723-72.845C252.019,116.312,310.699,54.383,362.229,3.5z"/>
	<path fill-rule="evenodd" clip-rule="evenodd" d="M412.961,3.5c8.238,0,16.477,0,24.715,0
		c-49.301,50.096-112.039,113.34-165.201,166.501c-17.01,17.01-44.328,38.091-54.633,57.235
		c-13.794,25.623,2.921,49.226,22.113,58.535c-5.731,2.939-7.503,9.84-14.309,11.707c-27.816-10.057-40.986-51.068-23.415-80.649
		c11.297-19.017,34.695-35.995,52.032-53.332C306.396,111.365,365.369,51.554,412.961,3.5z"/>
	<path fill-rule="evenodd" clip-rule="evenodd" d="M282.881,496.5c-8.238,0-16.477,0-24.715,0
		c54.408-78.162,183.588-127.993,173.006-265.361c-4.27-55.408-35.807-98.115-67.641-126.177
		c6.361-1.875,7.723-11.738,13.008-11.708c5.248,0.031,23.074,20.885,27.316,26.017c24.033,29.074,44.16,73.37,46.828,113.169
		c5.404,80.616-27.82,122.777-68.941,163.899C347.525,430.554,313.906,467.997,282.881,496.5z"/>
	<path fill-rule="evenodd" clip-rule="evenodd" d="M233.451,496.5c-8.672,0-17.344,0-26.016,0
		c30.753-29.969,65.469-68.07,104.062-106.665c37.348-37.347,78.658-66.944,83.252-127.478
		c4.924-64.895-22.584-106.159-57.236-131.38c5.732-2.94,7.504-9.841,14.309-11.707c37.719,30.549,67.541,76.865,62.439,143.087
		c-4.691,60.876-41.527,94.859-76.748,130.079C300.951,428.999,264.678,463.37,233.451,496.5z"/>
	<path fill-rule="evenodd" clip-rule="evenodd" d="M182.72,496.5c-8.238,0-16.477,0-24.715,0
		c30.483-33.282,67.84-70.443,109.266-111.868c37.031-37.031,88.143-69.957,92.355-128.778c3.533-49.319-19.758-79.117-46.828-98.86
		c3.973-4.267,6.875-9.603,13.008-11.707c33.842,22.507,56.768,60.179,52.033,114.47c-5.246,60.143-52.311,93.937-87.154,128.778
		C251.848,427.37,215.245,462.075,182.72,496.5z"/>
	<path fill-rule="evenodd" clip-rule="evenodd" d="M131.989,496.5c-8.238,0-16.476,0-24.715,0
		c45.87-48.66,113.636-116.238,166.501-169.104c19.646-19.646,41.465-37.466,48.129-65.039
		c10.004-41.379-17.033-63.37-35.121-80.649c5.295-2.51,6.643-8.967,13.008-10.406c28.312,15.678,46.283,48.116,41.625,89.755
		c-3.371,30.14-24.205,48.92-42.926,67.642C242.123,385.066,184.791,446.867,131.989,496.5z"/>
	<path fill-rule="evenodd" clip-rule="evenodd" d="M82.56,496.5c-8.672,0-17.344,0-26.016,0
		c50.847-51.355,115.438-116.741,170.404-171.705c14.545-14.546,47.592-41.278,55.934-58.535
		c12.928-26.742-5.92-47.854-23.414-57.235c5.732-2.939,7.504-9.84,14.309-11.707c19.076,9.249,32.346,23.958,32.52,49.431
		c0.277,40.355-37.34,62.055-59.836,84.552C192.566,385.191,131.316,447.283,82.56,496.5z"/>
</g>
</svg>
