<?xml version="1.0" encoding="utf-8"?>
<!-- Generator: Adobe Illustrator 15.0.2, SVG Export Plug-In . SVG Version: 6.00 Build 0)  -->
<!DOCTYPE svg PUBLIC "-//W3C//DTD SVG 1.1//EN" "http://www.w3.org/Graphics/SVG/1.1/DTD/svg11.dtd">
<svg version="1.1" id="Layer_1" xmlns="http://www.w3.org/2000/svg" xmlns:xlink="http://www.w3.org/1999/xlink" x="0px" y="0px"
	 width="500px" height="500px" viewBox="0 0 500 500" enable-background="new 0 0 500 500" xml:space="preserve">
<g>
	<path fill-rule="evenodd" clip-rule="evenodd" fill="#020202" d="M219.753,1.264c0.621-0.134,0.688,0.284,0.729,0.729
		c0,65.182,0,133.051,0,199.146c0,21.781-1.623,43.198,2.189,63.463c4.195,9.422,11.591,15.643,22.614,18.237
		c7.649,0.598,13.344-0.76,18.236-2.919c1.793,4.529,5.417,7.229,5.836,13.132c-27.954,12.164-56.301-4.729-62.005-28.45
		c-1.695-81.221-0.249-165.584-0.729-248.019C209.089,9.565,215.969,6.962,219.753,1.264z"/>
	<path fill-rule="evenodd" clip-rule="evenodd" fill="#020202" d="M264.98,310.558c1.521,4.315,2.374,9.298,3.647,13.861
		c-51.594,8.837-83.541-19.72-91.184-62.005c0-72.461,0-144.922,0-217.383c1.102-5.534,9.616-9.784,13.131-15.319
		c0.621-0.134,0.688,0.285,0.729,0.729c0,75.378,0,150.758,0,226.135c2.11,21.963,12.29,35.855,26.261,45.957
		c2.416,1.231,4.633,2.661,6.565,4.377c6.282,1.5,11.445,4.117,18.236,5.106C250.435,312.061,258.724,312.326,264.98,310.558z"/>
	<path fill-rule="evenodd" clip-rule="evenodd" fill="#020202" d="M161.396,59.621c0.621-0.134,0.688,0.285,0.729,0.729
		c0,65.896,0,131.79,0,197.686c6.632,50.269,34.908,78.889,86.807,83.889c6.022-0.057,10.874-1.283,16.778-1.458
		c0.352,4.998,2.201,8.497,2.188,13.86c-70.958,6.416-109.77-31.671-119.633-91.184c0-62.735,0-125.47,0-188.204
		C150.731,67.922,157.611,65.32,161.396,59.621z"/>
	<path fill-rule="evenodd" clip-rule="evenodd" fill="#020202" d="M265.71,368.916c0.243,2.637,2.21,11.153,1.459,14.59
		c-73.162,5.021-112.452-29.996-136.411-76.595c-20.719-51.007-6.955-136.494-10.942-203.522c2.616-6.868,9.401-9.565,13.13-15.319
		c0.621-0.134,0.688,0.284,0.73,0.729c0,31.71,0,66.109,0,99.208c0,33.39-2.396,66.941,4.376,94.832
		c15.083,50.813,49.424,82.365,110.151,87.536C253.472,369.322,260.602,370.129,265.71,368.916z"/>
	<path fill-rule="evenodd" clip-rule="evenodd" fill="#020202" d="M394.097,382.775c0-46.929,0-93.857,0-140.787
		c-4.81-44.308-23.256-74.98-49.604-97.75c-25.511-22.433-60.416-39.22-110.149-35.014c-0.163-4.943-1.028-9.185-1.459-13.86
		c1.763-1.398,5.861-0.46,8.753-0.729c1.179,0.206,1.257-0.689,2.189-0.729c72.521,0.669,113.081,33.298,142.246,77.324
		c31.331,41.617,21.009,124.885,22.614,196.227C406.025,374.284,399.087,380.71,394.097,382.775z"/>
	<path fill-rule="evenodd" clip-rule="evenodd" fill="#020202" d="M265.71,397.365c1.048,4.302,1.513,9.187,1.459,14.589
		c-77.801,4.812-122.111-30.074-152.459-75.135c-33.024-43.138-21.375-130.742-23.344-205.71c2.895-6.833,9.152-10.301,13.86-15.319
		c0.621-0.134,0.688,0.285,0.729,0.729c0,49.604,0,99.208,0,148.812c11.364,76.901,55.388,121.146,132.034,132.764
		C247.129,397.751,257.731,398.87,265.71,397.365z"/>
	<path fill-rule="evenodd" clip-rule="evenodd" fill="#020202" d="M366.376,411.954c0-30.793,0-63.793,0-96.289
		c0-31.808,2.416-64.583-4.376-91.184c-14.072-49.635-47.316-80.098-103.585-87.537c-8.385-0.117-16.602-0.066-24.072,0.729
		c0.262-5.368-1.425-8.787-1.459-13.859c2.551-1.583,8.479,0.213,10.942-1.459c82.47,3.122,124.223,46.958,136.411,120.363
		c0,51.549,0,103.098,0,154.647C377.753,403.443,368.838,410.699,366.376,411.954z"/>
	<path fill-rule="evenodd" clip-rule="evenodd" fill="#020202" d="M337.928,444.051c0-65.166,0-130.331,0-195.498
		c-2.274-27.391-13.818-45.512-28.449-60.546c-13.727-11.076-29.214-20.39-51.793-22.613c-8.271-0.247-15.887,0.162-23.343,0.729
		c0.506-5.613-1.966-8.247-1.459-13.86c3.259-0.875,8.051-0.216,10.942-1.459c64.992,1.632,97.296,35.952,107.961,91.913
		c0,62.005,0,124.01,0,186.015C349.961,433.782,343.212,440.047,337.928,444.051z"/>
	<path fill-rule="evenodd" clip-rule="evenodd" fill="#020202" d="M308.749,469.583c0-72.947,0-145.894,0-218.841
		c-1.441-20.443-10.857-32.911-21.884-43.768c-8.791-5.556-18.018-10.676-30.638-12.401c-7.936-0.396-14.647,0.429-21.155,1.459
		c-0.563-5.03-2.205-8.981-2.918-13.86c4.636-0.958,10.009-1.176,14.59-2.189c44.886,1.8,67.785,25.587,75.864,64.194
		c0,70.514,0,141.031,0,211.547C319.666,461.538,313.17,467.676,308.749,469.583z"/>
	<path fill-rule="evenodd" clip-rule="evenodd" fill="#020202" d="M279.57,498.762c0-82.43,0-164.861,0-247.29
		c-1.214-2.435-0.733-6.562-2.188-8.754c-4.546-14.231-23.344-23.735-40.851-16.048c-1.366-4.956-4.47-8.174-5.836-13.13
		c4.266-1.083,8.185-2.514,12.4-3.647c4.863,0,9.727,0,14.59,0c18.117,4.496,29.622,15.606,35.015,32.826
		c1.696,79.274,0.248,161.694,0.729,242.184C289.573,489.804,283.793,496.657,279.57,498.762z"/>
</g>
<path fill-rule="evenodd" clip-rule="evenodd" fill="#FFFFFF" d="M-37,620c209.672,0,419.331,0,629,0
	C384.668,621.667,170.332,621.667-37,620z"/>
</svg>
