<?xml version="1.0" encoding="utf-8"?>
<!-- Generator: Adobe Illustrator 15.0.2, SVG Export Plug-In . SVG Version: 6.00 Build 0)  -->
<!DOCTYPE svg PUBLIC "-//W3C//DTD SVG 1.1//EN" "http://www.w3.org/Graphics/SVG/1.1/DTD/svg11.dtd">
<svg version="1.1" id="Layer_1" xmlns="http://www.w3.org/2000/svg" xmlns:xlink="http://www.w3.org/1999/xlink" x="0px" y="0px"
	 width="500px" height="500px" viewBox="0 0 500 500" enable-background="new 0 0 500 500" xml:space="preserve">
<path fill-rule="evenodd" clip-rule="evenodd" fill="#FFFFFF" d="M-37,620c209.672,0,419.331,0,629,0
	C384.668,621.667,170.332,621.667-37,620z"/>
<g>
	<path fill-rule="evenodd" clip-rule="evenodd" fill="#020202" d="M138.441,230.766c7.694,0,15.388,0,23.082,0
		c31.715-29.62,61.665-61.007,92.324-91.683c17.897,16.724,34.671,34.572,51.933,51.932c21.335-16.919,42.08-34.429,62.832-51.932
		c14.96,14.104,28.814,29.315,42.314,44.879c-18.524,15.455-37.216,30.745-55.138,46.804c8.335,0,16.67,0,25.005,0
		c40.21-28.819,79.154-58.903,118.61-88.478c-15.197,58.961-33.909,119.965-50.65,179.519
		c-57.692-16.071-126.783-28.851-199.394-28.851c-72.74,0-140.481,14.562-199.395,28.21C33.735,263.451,16.853,206.389,0.597,148.7
		c30.534,14.986,60.405,30.637,90.4,46.162c20.47-17.784,38.859-37.65,58.985-55.779c7.857,7.651,19.923,19.281,30.133,29.492
		c1.12,1.121,9.594,9.078,9.617,9.617c0.08,1.874-10.465,11.107-12.823,13.464C163.924,204.642,150.374,217.679,138.441,230.766z"/>
	<path fill-rule="evenodd" clip-rule="evenodd" fill="#020202" d="M444.906,335.271c-2.569,8.115-5.077,16.295-7.052,25.005
		c-107.753-31.428-268.718-30.371-376.35,0.641c-2.513-8.6-5.072-17.153-7.053-26.286c51.755-13,106.318-23.193,168.62-25.646
		C306.819,305.383,380.475,317.423,444.906,335.271z"/>
</g>
</svg>
