<?xml version="1.0" encoding="utf-8"?>
<!-- Generator: Adobe Illustrator 15.0.2, SVG Export Plug-In . SVG Version: 6.00 Build 0)  -->
<!DOCTYPE svg PUBLIC "-//W3C//DTD SVG 1.1//EN" "http://www.w3.org/Graphics/SVG/1.1/DTD/svg11.dtd">
<svg version="1.1" id="Layer_1" xmlns="http://www.w3.org/2000/svg" xmlns:xlink="http://www.w3.org/1999/xlink" x="0px" y="0px"
	 width="500px" height="500px" viewBox="0 0 500 500" enable-background="new 0 0 500 500" xml:space="preserve">
<path fill-rule="evenodd" clip-rule="evenodd" fill="#FFFFFF" d="M-37,620c209.672,0,419.331,0,629,0
	C384.668,621.667,170.332,621.667-37,620z"/>
<g id="dlj0BH_1_">
	<g>
		<g>
			<path fill-rule="evenodd" clip-rule="evenodd" d="M287.604,0.898c2.207,31.639,0.322,67.371,0.948,100.589
				c-17.45,32.844-36.447,64.142-54.091,96.793c23.725,0,47.448,0,71.173,0c19.167-32.393,36.955-66.164,55.987-98.691
				c0.904-15.229,3.798-28.467,4.746-43.652c10.949-17.837,20.764-36.807,31.315-55.04c17.714,0,35.427,0,53.142,0
				c2.207,31.955,0.322,68.003,0.949,101.539c-30.914,57.972-63.797,113.976-95.845,170.811c-28.152,0-56.305,0-84.457,0
				c-23.628,23.188-44.625,49.006-66.428,74.019c15.945-1.428,39.007-3.165,58.835-3.796c-18.076,16.719-37.491,32.1-56.937,47.449
				c14.069,19.778,31.075,36.617,46.5,55.038c-22.479-3.775-49.24-11.492-72.122-18.029c-9.008,21.99-14.358,47.641-21.826,71.173
				c-10.072-20.612-18.194-43.173-27.52-64.53c-23.156,5.946-43.706,14.496-66.427,20.876
				c13.588-20.255,26.876-40.814,40.805-60.732c-18.73-13.533-37.322-27.206-56.938-39.855c21.878-3.426,47.794-2.817,72.121-3.795
				c-1.731-21.361-3.765-42.42-4.745-64.53c2.235-3.221,6.244,7.471,10.438,8.541c3.542,3.733,6.05,8.5,10.438,11.389
				c6.679,7.872,13.524,15.576,20.877,22.774c7.062-18.561,14.166-37.079,21.827-55.04c-14.579-2.186-33.193-0.337-49.346-0.95
				c-3.385-11.481-8.634-21.1-12.337-32.264c25.165-48.223,52.356-94.415,78.764-141.395c0.858-15.273,2.964-29.3,4.744-43.652
				c9.117-17.77,18.617-35.158,28.469-52.193c-0.042-1.623,0.706-2.458,1.898-2.847C250.91,0.898,269.258,0.898,287.604,0.898z
				 M242.053,17.031c-7.723,9.358-12.3,21.862-18.979,32.265c8.857,0,17.713,0,26.57,0c6.02-10.43,11.063-21.835,17.083-32.265
				C258.502,17.031,250.277,17.031,242.053,17.031z M405.274,17.031c-5.177,11.272-12.236,20.661-17.082,32.265
				c8.226,0,16.449,0,24.673,0c4.197-11.936,11.195-21.069,16.133-32.265C421.091,17.031,413.182,17.031,405.274,17.031z
				 M219.278,64.479c-1.65,8.788-2.632,18.245-2.846,28.469c7.908,0,15.816,0,23.723,0c-0.369-10.492,1.886-18.358,1.898-28.469
				C234.461,64.479,226.87,64.479,219.278,64.479z M380.602,92.947c7.591,0,15.183,0,22.774,0
				c1.846-8.594,1.193-19.685,2.848-28.469c-7.908,0-15.816,0-23.725,0C382.461,74.027,379.388,85.274,380.602,92.947z
				 M109.199,423.186c10.633-4.235,22.534-7.2,33.214-11.389c5.369,10.762,8.232,24.031,15.183,33.214
				c2.836-12.662,6.483-24.517,10.438-36.061c11.735,3.449,24.54,5.826,36.061,9.49c1.949-2.461-7.257-9.684-10.438-13.285
				c-3.083-6.091-8.425-9.921-12.336-15.185c5.043-4.447,11.002-7.978,15.183-13.285c3.853-0.894,5.083-4.408,8.541-5.694
				c-0.027-2.985,9.359-5.231,4.745-6.643c-13.75,1.438-33.264,2.159-45.55,1.897c30.283-44.685,60.054-89.88,91.101-133.802
				c25.307,0,50.61,0,75.917,0c22.715-39.916,44.961-80.301,67.376-120.518c-8.54,0-17.082,0-25.623,0
				c-18.713,34.112-36.905,68.745-57.886,100.59c-45.234-0.633-92.998,1.264-136.65-0.95c18.215-33.661,37.74-66.012,55.988-99.64
				c-8.54,0-17.081,0-25.622,0c-21.594,41.036-45.486,79.776-67.375,120.518c24.989,0.632,52.508-1.264,75.917,0.949
				c-19.94,43.007-38.428,87.466-58.836,130.007c-3.5-4.724-8.552-7.896-11.387-13.286c-4.57-1.3-8.488-12.782-11.388-9.489
				c-0.642,10.132,0.9,18.078,0.949,27.52c-11.844,1.442-26.747-0.175-37.01,2.847c10.226,6.54,20.392,13.14,29.418,20.878
				C122.907,402.1,112.703,413.397,109.199,423.186z"/>
			<path fill-rule="evenodd" clip-rule="evenodd" d="M147.158,375.735c6.809-2.048,13.557,4.145,14.234,11.389
				c1.222,14.349-21.118,15.965-24.673,4.745C135.805,382.097,139.045,376.482,147.158,375.735z"/>
		</g>
	</g>
</g>
</svg>
