<?xml version="1.0" encoding="utf-8"?>
<!-- Generator: Adobe Illustrator 15.0.2, SVG Export Plug-In . SVG Version: 6.00 Build 0)  -->
<!DOCTYPE svg PUBLIC "-//W3C//DTD SVG 1.1//EN" "http://www.w3.org/Graphics/SVG/1.1/DTD/svg11.dtd">
<svg version="1.1" id="Layer_1" xmlns="http://www.w3.org/2000/svg" xmlns:xlink="http://www.w3.org/1999/xlink" x="0px" y="0px"
	 width="500px" height="500px" viewBox="0 0 500 500" enable-background="new 0 0 500 500" xml:space="preserve">
<path fill-rule="evenodd" clip-rule="evenodd" fill="#FFFFFF" d="M-37,620c209.672,0,419.331,0,629,0
	C384.668,621.667,170.332,621.667-37,620z"/>
<g>
	<g>
		<path fill-rule="evenodd" clip-rule="evenodd" d="M390.331,109.602c-18.675,4.244-38.046-1.454-51.797-6.317
			c-1.399-2.811-3.263-5.159-5.053-7.58c-11.565-0.436-17.215-6.789-22.108-13.897c-6.142,1.299-7.321-2.365-9.476-5.054
			c-8.368-2.452-16.726-6.645-24.003-0.631c-9.734-6.058-21.7-9.883-30.952-16.423c-11.199-2.963-22.694,1.521-32.846-1.263
			c-6.669-1.83-9.612-10.518-15.161-12.634c-18.583,1.922-34.54-5.105-49.901-3.158c-4.679,0.593-10.824,4-15.792,5.685
			c-15.632,5.305-31.475,11.813-47.375,17.055c2.228-5.558,8.277-8.383,13.265-12.001c14.158-10.271,30.809-22.107,49.27-29.688
			c12.487-5.127,25.393-11.937,37.9-15.16c13.114-3.378,30.985-6.321,44.848-5.685c60.651,2.782,98.603,30.003,129.492,64.43
			C372.345,80.321,383.573,94.273,390.331,109.602z"/>
		<path fill-rule="evenodd" clip-rule="evenodd" d="M402.965,106.444c-27.626-41.648-57.56-80.986-109.278-98.541
			c-0.335-0.508-0.659-1.026-0.632-1.895c0.562-0.389,1.129-0.764,1.263,0c48.325,8.18,90.898,33.363,123.808,61.272
			c4.486,3.805,11.221,10.293,11.37,14.528c0.168,4.759-6.546,12.47-10.106,15.792C414.491,102.168,409.059,104.554,402.965,106.444
			z"/>
		<path fill-rule="evenodd" clip-rule="evenodd" d="M488.24,182.244c-16.467-5.204-35.999-9.333-58.114-6.949
			c-6.076-20.874-13.81-40.092-22.108-58.745c13.07-5.88,23.659-14.242,29.688-27.162c11.272,9.09,22.556,28.043,30.321,42.322
			C476.721,147.696,484.202,165.52,488.24,182.244z"/>
		<path fill-rule="evenodd" clip-rule="evenodd" d="M396.648,120.34c9.406,16.282,16.66,34.717,21.477,55.587
			c-15.914,0.902-31.832,5.302-46.743,5.685c-15.314,0.394-31.791-13.056-44.85-4.421c-4.401-1.915-8.634-4-13.265-5.685
			c-7.18,2.336-13.732,5.049-20.844,8.212c-6.299,2.801-13.572,7.645-20.215,8.843c-9.878,1.783-19.802-1.587-31.583,1.263
			c-5.361-7.832-15.059-5.688-25.267-3.158c-7.51-5.104-15.741-5.416-24.004-2.527c-8.86,3.098-18.806,21.73-27.162,25.267
			c-10.583,4.479-26.602-3.725-40.427-0.632c-3.801,0.851-8.034,4.551-10.738,6.317c-3.062,2-6.437,4.199-8.843,7.58
			c-8.802-1.806-17.145,2.192-26.53,1.896c-4.239,2.113-4.987,7.308-8.843,8.842c-3.396,1.352-7.124,0.072-10.107,0.632
			c-15.427,2.897-24.891,16.501-34.11,26.53c-6.741,7.333-13.235,13.778-20.845,20.846c-4.167-36.903,1.113-78.224,10.738-107.384
			c21.292-14.712,41.667-30.344,62.536-45.48c13.996,8.024,30.833-6.46,42.322,3.79c9.649-7.616,19.066-15.464,29.056-22.74
			c12.075,3.092,28.593-0.227,40.427,1.895c7.546-5.297,16.333-9.355,24.003-14.528c21.379,0.814,39.287-5.505,56.85-3.159
			c3.176,0.425,6.242,3.326,9.475,3.79c7.93,1.14,13.863-1.361,20.214,1.263c6.434,2.659,8.831,10.013,15.792,12.002
			c4.847,1.385,10.505-0.125,15.16,0.632c6.523,1.059,12.881,4.619,19.582,6.317C363.906,121.363,378.379,122.882,396.648,120.34z"
			/>
		<path fill-rule="evenodd" clip-rule="evenodd" d="M434.548,185.402c22.448-0.128,43.527,1.111,56.851,10.107
			c7.762,25.069,7.476,62.125,3.791,91.591c-13.017-16.673-30.461-28.916-54.956-34.11c-0.828-23.596-3.499-45.35-7.58-65.693
			C433.008,186.388,433.639,185.756,434.548,185.402z"/>
		<path fill-rule="evenodd" clip-rule="evenodd" d="M420.02,186.666c6.154,18.277,8.818,43.393,8.213,66.324
			c-10.722,1.263-20.012,3.619-29.688,6.948c-6.487,2.232-13.051,6.98-18.319,7.58c-3.782,0.431-8.136-2.576-12.002-1.896
			c-3.272,0.578-5.225,5.377-8.211,6.949c-6.052,3.188-11.774,1.072-16.424,4.422c-2.386,2.218-4.095,6.41-4.422,8.843
			c-5.851,0.455-8.635,6.125-14.527,6.948c-3.378,0.473-7.052-1.904-10.739-1.263c-3.484,0.606-5.383,3.827-8.843,5.054
			c-5.193,1.84-10.794,0.955-15.16,3.789c-0.909,3.091-0.956,7.046-3.159,8.844c-13.721,7.755-29.527,13.427-42.953,21.478
			c-4.647,8.197-10.483,15.204-14.529,24.002c-3.263,0.527-5.678,1.902-8.843,2.527c-0.59,5.298-4.328,10.132-2.526,15.792
			c-15.854,15.309-33.699,28.626-43.586,49.901c-16.508,1.6-34.585,1.631-44.216,10.107c-9.493-1.627-19.292-8.03-25.898-0.632
			c-10.788-4.583-21.873-8.868-34.11-12.002c-12.7-13.409-23.202-29.016-33.479-44.849c3.007-9.838,16.802-8.886,28.425-10.106
			c4.156-11.636,9.82-21.764,13.265-34.11c11.468-9.798,24.878-17.653,36.005-27.793c5.544-2.136,11.314-0.598,15.792-2.526
			c5.408-2.332,7.405-8.805,12.001-12.002c8.646-1.024,16.623,1.919,24.635,0.631c8.588-1.38,16.379-10.746,25.267-13.896
			c6.724-2.384,14.531-0.944,20.213-3.158c6.65-2.592,14.079-15.116,18.95-20.845c6.771-7.962,13.666-14.189,18.95-20.845
			c5.066,0.83,10.983,0.809,16.424,1.264c11.779-3.816,24.748-11.88,34.11-20.213c5.665-0.441,10.437-1.776,16.424-1.896
			c5.556-5.812,13.287-9.452,18.949-15.16c10.886,1.356,22.004,3.378,32.848,1.895c6.366-0.871,12.272-5.357,19.581-6.949
			C397.923,187.758,409.65,188.514,420.02,186.666z"/>
		<path fill-rule="evenodd" clip-rule="evenodd" d="M428.232,265.623c-0.993,75.118-30.454,139.3-70.747,181.922
			c-30.912,32.697-74.394,57.577-142.126,47.375c6.095-7.381,16.469-10.482,25.267-15.16c-1.549-2.659,0.439-6.032-0.631-8.211
			c12.88-4.194,17.879-16.29,25.898-27.795c5.09-7.301,12.005-14.79,14.529-21.476c1.757-4.654,0.877-9.814,1.894-14.528
			c1.494-6.92,5.254-13.021,6.317-20.214c4.54-3.25,10.366-5.215,15.791-7.58c-0.198-19.412,8.975-34.783,13.266-51.797
			c9.671-5.699,18.412-12.33,28.425-17.688c2.839-6.635,7.464-11.485,10.106-18.317c5.347-0.137,10.092-4.218,14.529-3.158
			C383.323,275.034,404.716,266.538,428.232,265.623z"/>
		<path fill-rule="evenodd" clip-rule="evenodd" d="M440.865,265.623c25.202,3.854,41.027,17.086,51.165,36.006
			c-9.621,42.743-28.251,77.898-52.429,107.384c-17.489,21.33-38.085,38.265-62.535,53.061
			c-13.146,7.955-27.647,15.646-43.585,18.95c62.095-44.45,100.245-112.837,106.12-213.505
			C440.145,267.01,439.978,265.789,440.865,265.623z"/>
	</g>
</g>
</svg>
