<?xml version="1.0" encoding="utf-8"?>
<!-- Generator: Adobe Illustrator 15.0.2, SVG Export Plug-In . SVG Version: 6.00 Build 0)  -->
<!DOCTYPE svg PUBLIC "-//W3C//DTD SVG 1.1//EN" "http://www.w3.org/Graphics/SVG/1.1/DTD/svg11.dtd">
<svg version="1.1" id="Layer_1" xmlns="http://www.w3.org/2000/svg" xmlns:xlink="http://www.w3.org/1999/xlink" x="0px" y="0px"
	 width="500px" height="500px" viewBox="0 0 500 500" enable-background="new 0 0 500 500" xml:space="preserve">
<path fill-rule="evenodd" clip-rule="evenodd" fill="#FFFFFF" d="M-37,620c209.672,0,419.331,0,629,0
	C384.668,621.667,170.332,621.667-37,620z"/>
<g>
	<g>
		<path fill-rule="evenodd" clip-rule="evenodd" d="M266.486,86c67.455,0,134.912,0,202.369,0
			c-12.863,30.338-26.354,60.053-39.223,90.385c-59.119,0-118.24,0-177.359,0c-20.994,45.896-40.447,93.328-61.393,139.271
			c-19.896,0-39.792,0-59.688,0c0.571-19.596,8.728-38.613,19.328-52.298c1.917-2.476,9.208-12.414,11.369-12.506
			c2.675-0.114,9.372,10.539,10.801,12.506c3.842,5.288,6.601,9.169,9.095,14.212C210.654,214.349,237.216,148.82,266.486,86z"/>
		<path fill-rule="evenodd" clip-rule="evenodd" d="M498.416,86c-12.773,30.429-26.262,60.143-39.223,90.385
			c-5.496,0-10.99,0-16.486,0c12.697-30.695,25.457-61.329,39.791-90.385C487.805,86,493.109,86,498.416,86z"/>
		<path fill-rule="evenodd" clip-rule="evenodd" d="M156.205,245.168c-17.296,17.19-30.923,38.05-32.97,70.488
			c-7.58,0-15.159,0-22.738,0c0-30.507,0-61.014,0-91.521C124.542,225.669,141.548,234.244,156.205,245.168z"/>
		<path fill-rule="evenodd" clip-rule="evenodd" d="M91.969,224.704c0,30.127,0,60.256,0,90.385c-7.39,0-14.78,0-22.169,0
			c-1.89-32.218-15.809-52.405-32.402-69.921C51.599,234.358,68.255,226.002,91.969,224.704z"/>
		<path fill-rule="evenodd" clip-rule="evenodd" d="M61.272,315.656c-19.896,0-39.792,0-59.688,0
			c1.844-29.231,12.941-49.21,28.991-64.235C47.744,265.521,60.294,287.262,61.272,315.656z"/>
		<path fill-rule="evenodd" clip-rule="evenodd" d="M61.841,323.615c-2.786,29.048-14.115,49.552-31.833,63.667
			C15.114,371.479,3.427,352.47,1.584,323.615C21.67,323.615,41.755,323.615,61.841,323.615z"/>
		<path fill-rule="evenodd" clip-rule="evenodd" d="M91.969,323.615c0,29.938,0,59.877,0,89.816
			c-24.425-0.775-40.501-9.902-55.14-20.465c17.948-16.349,30.24-38.354,33.539-69.352
			C77.568,323.615,84.769,323.615,91.969,323.615z"/>
		<path fill-rule="evenodd" clip-rule="evenodd" d="M123.234,323.615c2.591,31.327,15.067,52.769,32.97,68.783
			C142.4,404.364,124.823,412.557,100.496,414c0.379-29.939-0.758-61.394,0.568-90.385
			C108.454,323.615,115.844,323.615,123.234,323.615z"/>
		<path fill-rule="evenodd" clip-rule="evenodd" d="M191.449,323.615c-2.509,28.565-13.143,49.008-29.56,63.667
			c-16.379-15.075-28.432-34.477-30.697-63.667C151.278,323.615,171.364,323.615,191.449,323.615z"/>
	</g>
</g>
</svg>
