<?xml version="1.0" encoding="utf-8"?>
<!-- Generator: Adobe Illustrator 15.0.2, SVG Export Plug-In . SVG Version: 6.00 Build 0)  -->
<!DOCTYPE svg PUBLIC "-//W3C//DTD SVG 1.1//EN" "http://www.w3.org/Graphics/SVG/1.1/DTD/svg11.dtd">
<svg version="1.1" id="Layer_1" xmlns="http://www.w3.org/2000/svg" xmlns:xlink="http://www.w3.org/1999/xlink" x="0px" y="0px"
	 width="500px" height="500px" viewBox="0 0 500 500" enable-background="new 0 0 500 500" xml:space="preserve">
<path fill-rule="evenodd" clip-rule="evenodd" fill="#020202" d="M237.961,2.894c-0.104-0.479,0.22-0.532,0.563-0.563
	c83.979-1.354,137.104,28.146,180.837,67.039c41.679,40.758,72.798,92.075,78.306,169.006
	c1.314,83.939-27.529,137.722-67.039,180.837c-40.37,42.067-91.166,73.707-169.006,78.306
	c-82.944,2.948-137.326-27.55-180.837-65.912C39.344,390.609,7.092,340.426,2.479,262.6
	c-2.854-82.851,26.979-137.896,65.913-180.837c40.27-42.167,91.033-73.84,168.442-78.869C237.209,2.894,237.585,2.894,237.961,2.894
	z M202.47,28.808c13.667,8.492,23.369,20.948,29.857,36.618c6.034-8.613,11.47-17.825,18.027-25.915
	c5.798,8.85,11.271,18.025,18.028,25.915c5.288-16.683,15.829-28.112,29.294-36.618C269.196,22.527,230.893,22.324,202.47,28.808z
	 M177.682,35.568C109.164,60.376,60.071,107.621,36.844,175.843c39.144-56.812,95.467-96.45,180.273-107.601
	C210.277,51.045,196.588,40.698,177.682,35.568z M320.774,35.568c-17.845,5.817-31.176,16.146-38.309,32.674
	c84.799,10.596,140.01,50.78,180.273,105.911C437.289,106.088,390.254,59.604,320.774,35.568z M237.961,80.073
	c-17.293,1.297-34.553,2.628-49.012,6.76c12.024,6.567,24.503,12.678,36.055,19.717c-4.215,13.625-7.539,28.141-11.831,41.688
	c13.005-8.214,24.147-18.292,37.181-26.478c12.003,8.842,23.819,17.869,36.056,26.478c-3.438-14.401-7.851-27.829-11.268-42.251
	c12.07-6.521,24.55-12.631,36.055-19.717c-15.607-2.983-31.89-5.292-49.575-6.197c-4.046-7.597-7.482-15.803-11.831-23.098
	C245.536,64.362,242.85,73.318,237.961,80.073z M165.288,94.72c-0.72,0.031-0.78,0.722-1.69,0.563
	c-39.237,10.901-65.343,34.934-90.7,59.715C47.636,179.875,31.43,213.808,23.323,255.84c1.178,25.676,5.483,48.223,12.394,68.165
	c3.339,10.182,7.902,19.139,11.83,28.731c2.931,3.829,4.831,8.689,7.324,12.957c1.395,1.985,2.768,3.992,3.943,6.197
	c1.139,0.944,3.053,6.429,3.943,3.943c-0.956-3.552-0.439-8.575-0.563-12.957c5.926-54.918,34.032-87.652,60.842-121.685
	c27.01-33.833,63.353-58.331,80.56-101.967c2.186-9.27,4.734-18.176,7.324-27.041C195.779,106.293,187.978,93.062,165.288,94.72z
	 M476.26,254.713c-7.875-42.452-24.909-75.744-50.139-100.841c-25.816-24.51-51.761-48.891-91.826-59.152c-3.756,0-7.512,0-11.268,0
	c-12.909,4.18-22.39,11.787-33.801,17.464c2.223,9.419,5.229,18.055,7.323,27.604c17.502,43.717,54.357,68.079,81.123,102.53
	c27.138,34.268,55.499,67.313,60.279,123.938c0.421,3.802-0.907,5.854-0.563,9.577C458.906,346.273,474.351,305.76,476.26,254.713z
	 M248.665,143.168c-42.124,31.674-81.949,65.649-113.234,108.164c-15.459,21.348-27.896,45.716-38.308,72.109
	c-10.053,24.742-14.212,68.285-1.127,92.954c30.73,27.858,68.151,49.026,118.304,57.462c6.269-91.19,12.919-182.001,19.154-273.227
	c4.829-5.876,16.9-16.337,16.9-16.337l17.114,15.757l18.378,273.244c48.964-7.746,89.145-29.16,118.304-58.589
	c13.563-24.246,8.343-67.735-1.69-91.826c-9.995-26.998-23.378-50.608-38.308-72.673c-32.021-41.778-71.302-76.297-113.798-107.601
	C250.039,140.973,249.476,143.469,248.665,143.168z"/>
</svg>
