<svg version="1.1" xmlns="http://www.w3.org/2000/svg" xmlns:xlink="http://www.w3.org/1999/xlink" x="0px" y="0px" width="317px" height="272px" viewBox="0 0 317 272" enable-background="new 0 0 317 272" xml:space="preserve">
<style>
	/* ANIMATION */

	.antenaFill{
		animation: antenaPulse 0.5s ease infinite;
	}

	@keyframes antenaPulse {
		0% { opacity: 0; }
		50%{ opacity: 1; }
		100%{ opacity: 0; }
	}

	/* .eye{
		animation: blinking 8s ease infinite;
	}

	@keyframes blinking {
		0% { opacity: 1; }
		1% { opacity: 0; }
		2% { opacity: 1; }
		10%{ opacity: 1; }
		11%{ opacity: 0; }
		12%{ opacity: 1; }
	} */
</style>
<g id="Layer_2">
	<circle fill="#FFFFFF" cx="256.169" cy="39.417" r="21.349"/>
	<circle class="antenaFill" fill="#F73906" cx="256.169" cy="39.417" r="21.349"/>
	<g>
		<path fill="#FFFFFF" d="M35.919,155.199c-9.465-4.227-16.061-13.722-16.06-24.756c0-14.966,12.133-27.099,27.1-27.099
			c8.305,0,15.738,3.736,20.708,9.62"/>
		<path d="M33.88,159.764c-11.555-5.161-19.021-16.67-19.021-29.322c0-17.7,14.4-32.099,32.1-32.099
			c9.471,0,18.411,4.152,24.528,11.393l-7.639,6.453c-4.213-4.987-10.369-7.847-16.889-7.846c-12.186,0-22.1,9.914-22.1,22.099
			c0,8.711,5.141,16.637,13.099,20.191L33.88,159.764z"/>
	</g>
	<g>
		<path fill="#FFFFFF" d="M248.638,113.337c4.969-6.099,12.539-9.994,21.019-9.994c14.966,0,27.099,12.133,27.099,27.099
			c0,11.332-6.955,21.039-16.829,25.086"/>
		<path d="M281.822,160.155l-3.792-9.253c8.337-3.417,13.725-11.448,13.725-20.459c0-12.186-9.914-22.099-22.099-22.099
			c-6.673,0-12.921,2.971-17.142,8.152l-7.753-6.316c6.128-7.521,15.202-11.835,24.895-11.835c17.699,0,32.099,14.399,32.099,32.099
			C301.755,143.529,293.931,155.192,281.822,160.155z"/>
	</g>
	<g>
		<ellipse fill="#FFFFFF" cx="157.885" cy="167.935" rx="123.5" ry="80.497"/>
		<path d="M157.886,253.432c-33.947,0-65.93-8.661-90.058-24.387c-24.79-16.158-38.442-37.86-38.442-61.11
			s13.652-44.952,38.442-61.111c24.128-15.728,56.112-24.389,90.058-24.389c33.946,0,65.929,8.662,90.057,24.389
			c24.79,16.159,38.442,37.861,38.442,61.111s-13.652,44.952-38.442,61.11C223.814,244.771,191.832,253.432,157.886,253.432z
			 M157.886,92.435c-65.341,0-118.5,33.869-118.5,75.5c0,41.629,53.159,75.497,118.5,75.497c65.34,0,118.499-33.868,118.499-75.497
			C276.385,126.304,223.226,92.435,157.886,92.435z"/>
	</g>
	<circle class="eye" fill="#F73906" cx="115.053" cy="152.5" r="20"/>
	<circle class="eye" fill="#F73906" cx="201.72" cy="152.5" r="20"/>
	<path d="M256.17,65.766c-14.529,0-26.35-11.82-26.35-26.349s11.82-26.349,26.35-26.349c14.529,0,26.349,11.82,26.349,26.349
		S270.699,65.766,256.17,65.766z M256.17,23.068c-9.015,0-16.35,7.334-16.35,16.349s7.334,16.349,16.35,16.349
		c9.015,0,16.349-7.334,16.349-16.349S265.185,23.068,256.17,23.068z"/>
	<path d="M158.484,222.5h-0.169c-22.076,0-37.576-4.81-46.069-14.297c-1.842-2.057-1.667-5.218,0.39-7.06
		c2.057-1.842,5.218-1.668,7.06,0.39c4.479,5.003,14.815,10.967,38.619,10.967h0.169c23.803,0,34.139-5.964,38.619-10.967
		c1.842-2.058,5.004-2.231,7.06-0.39c2.058,1.842,2.232,5.003,0.39,7.06C196.06,217.69,180.56,222.5,158.484,222.5z"/>
	<path d="M162.643,88.975l-9.514-3.082l21.033-64.934c0.796-2.457,3.33-3.904,5.851-3.338l56.331,12.636l-2.188,9.758
		l-51.884-11.639L162.643,88.975z"/>
</g>
</svg>
